%TF.GenerationSoftware,KiCad,Pcbnew,9.0.0*%
%TF.CreationDate,2025-05-13T23:13:56+02:00*%
%TF.ProjectId,kitchen_timer-hardware,6b697463-6865-46e5-9f74-696d65722d68,rev?*%
%TF.SameCoordinates,Original*%
%TF.FileFunction,Legend,Top*%
%TF.FilePolarity,Positive*%
%FSLAX46Y46*%
G04 Gerber Fmt 4.6, Leading zero omitted, Abs format (unit mm)*
G04 Created by KiCad (PCBNEW 9.0.0) date 2025-05-13 23:13:56*
%MOMM*%
%LPD*%
G01*
G04 APERTURE LIST*
%ADD10C,0.195072*%
%ADD11C,0.254000*%
%ADD12C,0.120000*%
%ADD13C,0.127000*%
%ADD14C,0.200000*%
%ADD15C,0.150000*%
%ADD16C,0.100000*%
G04 APERTURE END LIST*
D10*
X164871733Y-86006036D02*
X164824114Y-86053656D01*
X164824114Y-86053656D02*
X164681257Y-86101275D01*
X164681257Y-86101275D02*
X164586019Y-86101275D01*
X164586019Y-86101275D02*
X164443162Y-86053656D01*
X164443162Y-86053656D02*
X164347924Y-85958417D01*
X164347924Y-85958417D02*
X164300305Y-85863179D01*
X164300305Y-85863179D02*
X164252686Y-85672703D01*
X164252686Y-85672703D02*
X164252686Y-85529846D01*
X164252686Y-85529846D02*
X164300305Y-85339370D01*
X164300305Y-85339370D02*
X164347924Y-85244132D01*
X164347924Y-85244132D02*
X164443162Y-85148894D01*
X164443162Y-85148894D02*
X164586019Y-85101275D01*
X164586019Y-85101275D02*
X164681257Y-85101275D01*
X164681257Y-85101275D02*
X164824114Y-85148894D01*
X164824114Y-85148894D02*
X164871733Y-85196513D01*
X165443162Y-85529846D02*
X165347924Y-85482227D01*
X165347924Y-85482227D02*
X165300305Y-85434608D01*
X165300305Y-85434608D02*
X165252686Y-85339370D01*
X165252686Y-85339370D02*
X165252686Y-85291751D01*
X165252686Y-85291751D02*
X165300305Y-85196513D01*
X165300305Y-85196513D02*
X165347924Y-85148894D01*
X165347924Y-85148894D02*
X165443162Y-85101275D01*
X165443162Y-85101275D02*
X165633638Y-85101275D01*
X165633638Y-85101275D02*
X165728876Y-85148894D01*
X165728876Y-85148894D02*
X165776495Y-85196513D01*
X165776495Y-85196513D02*
X165824114Y-85291751D01*
X165824114Y-85291751D02*
X165824114Y-85339370D01*
X165824114Y-85339370D02*
X165776495Y-85434608D01*
X165776495Y-85434608D02*
X165728876Y-85482227D01*
X165728876Y-85482227D02*
X165633638Y-85529846D01*
X165633638Y-85529846D02*
X165443162Y-85529846D01*
X165443162Y-85529846D02*
X165347924Y-85577465D01*
X165347924Y-85577465D02*
X165300305Y-85625084D01*
X165300305Y-85625084D02*
X165252686Y-85720322D01*
X165252686Y-85720322D02*
X165252686Y-85910798D01*
X165252686Y-85910798D02*
X165300305Y-86006036D01*
X165300305Y-86006036D02*
X165347924Y-86053656D01*
X165347924Y-86053656D02*
X165443162Y-86101275D01*
X165443162Y-86101275D02*
X165633638Y-86101275D01*
X165633638Y-86101275D02*
X165728876Y-86053656D01*
X165728876Y-86053656D02*
X165776495Y-86006036D01*
X165776495Y-86006036D02*
X165824114Y-85910798D01*
X165824114Y-85910798D02*
X165824114Y-85720322D01*
X165824114Y-85720322D02*
X165776495Y-85625084D01*
X165776495Y-85625084D02*
X165728876Y-85577465D01*
X165728876Y-85577465D02*
X165633638Y-85529846D01*
X145402705Y-78582875D02*
X145402705Y-77582875D01*
X145402705Y-77582875D02*
X145640800Y-77582875D01*
X145640800Y-77582875D02*
X145783657Y-77630494D01*
X145783657Y-77630494D02*
X145878895Y-77725732D01*
X145878895Y-77725732D02*
X145926514Y-77820970D01*
X145926514Y-77820970D02*
X145974133Y-78011446D01*
X145974133Y-78011446D02*
X145974133Y-78154303D01*
X145974133Y-78154303D02*
X145926514Y-78344779D01*
X145926514Y-78344779D02*
X145878895Y-78440017D01*
X145878895Y-78440017D02*
X145783657Y-78535256D01*
X145783657Y-78535256D02*
X145640800Y-78582875D01*
X145640800Y-78582875D02*
X145402705Y-78582875D01*
X146307467Y-77582875D02*
X146926514Y-77582875D01*
X146926514Y-77582875D02*
X146593181Y-77963827D01*
X146593181Y-77963827D02*
X146736038Y-77963827D01*
X146736038Y-77963827D02*
X146831276Y-78011446D01*
X146831276Y-78011446D02*
X146878895Y-78059065D01*
X146878895Y-78059065D02*
X146926514Y-78154303D01*
X146926514Y-78154303D02*
X146926514Y-78392398D01*
X146926514Y-78392398D02*
X146878895Y-78487636D01*
X146878895Y-78487636D02*
X146831276Y-78535256D01*
X146831276Y-78535256D02*
X146736038Y-78582875D01*
X146736038Y-78582875D02*
X146450324Y-78582875D01*
X146450324Y-78582875D02*
X146355086Y-78535256D01*
X146355086Y-78535256D02*
X146307467Y-78487636D01*
X169256436Y-107221257D02*
X169304056Y-107268876D01*
X169304056Y-107268876D02*
X169351675Y-107411733D01*
X169351675Y-107411733D02*
X169351675Y-107506971D01*
X169351675Y-107506971D02*
X169304056Y-107649828D01*
X169304056Y-107649828D02*
X169208817Y-107745066D01*
X169208817Y-107745066D02*
X169113579Y-107792685D01*
X169113579Y-107792685D02*
X168923103Y-107840304D01*
X168923103Y-107840304D02*
X168780246Y-107840304D01*
X168780246Y-107840304D02*
X168589770Y-107792685D01*
X168589770Y-107792685D02*
X168494532Y-107745066D01*
X168494532Y-107745066D02*
X168399294Y-107649828D01*
X168399294Y-107649828D02*
X168351675Y-107506971D01*
X168351675Y-107506971D02*
X168351675Y-107411733D01*
X168351675Y-107411733D02*
X168399294Y-107268876D01*
X168399294Y-107268876D02*
X168446913Y-107221257D01*
X169351675Y-106268876D02*
X169351675Y-106840304D01*
X169351675Y-106554590D02*
X168351675Y-106554590D01*
X168351675Y-106554590D02*
X168494532Y-106649828D01*
X168494532Y-106649828D02*
X168589770Y-106745066D01*
X168589770Y-106745066D02*
X168637389Y-106840304D01*
X168446913Y-105887923D02*
X168399294Y-105840304D01*
X168399294Y-105840304D02*
X168351675Y-105745066D01*
X168351675Y-105745066D02*
X168351675Y-105506971D01*
X168351675Y-105506971D02*
X168399294Y-105411733D01*
X168399294Y-105411733D02*
X168446913Y-105364114D01*
X168446913Y-105364114D02*
X168542151Y-105316495D01*
X168542151Y-105316495D02*
X168637389Y-105316495D01*
X168637389Y-105316495D02*
X168780246Y-105364114D01*
X168780246Y-105364114D02*
X169351675Y-105935542D01*
X169351675Y-105935542D02*
X169351675Y-105316495D01*
X141716475Y-105392457D02*
X141240284Y-105725790D01*
X141716475Y-105963885D02*
X140716475Y-105963885D01*
X140716475Y-105963885D02*
X140716475Y-105582933D01*
X140716475Y-105582933D02*
X140764094Y-105487695D01*
X140764094Y-105487695D02*
X140811713Y-105440076D01*
X140811713Y-105440076D02*
X140906951Y-105392457D01*
X140906951Y-105392457D02*
X141049808Y-105392457D01*
X141049808Y-105392457D02*
X141145046Y-105440076D01*
X141145046Y-105440076D02*
X141192665Y-105487695D01*
X141192665Y-105487695D02*
X141240284Y-105582933D01*
X141240284Y-105582933D02*
X141240284Y-105963885D01*
X141716475Y-104440076D02*
X141716475Y-105011504D01*
X141716475Y-104725790D02*
X140716475Y-104725790D01*
X140716475Y-104725790D02*
X140859332Y-104821028D01*
X140859332Y-104821028D02*
X140954570Y-104916266D01*
X140954570Y-104916266D02*
X141002189Y-105011504D01*
X141049808Y-103582933D02*
X141716475Y-103582933D01*
X140668856Y-103821028D02*
X141383141Y-104059123D01*
X141383141Y-104059123D02*
X141383141Y-103440076D01*
X157470836Y-48293257D02*
X157518456Y-48340876D01*
X157518456Y-48340876D02*
X157566075Y-48483733D01*
X157566075Y-48483733D02*
X157566075Y-48578971D01*
X157566075Y-48578971D02*
X157518456Y-48721828D01*
X157518456Y-48721828D02*
X157423217Y-48817066D01*
X157423217Y-48817066D02*
X157327979Y-48864685D01*
X157327979Y-48864685D02*
X157137503Y-48912304D01*
X157137503Y-48912304D02*
X156994646Y-48912304D01*
X156994646Y-48912304D02*
X156804170Y-48864685D01*
X156804170Y-48864685D02*
X156708932Y-48817066D01*
X156708932Y-48817066D02*
X156613694Y-48721828D01*
X156613694Y-48721828D02*
X156566075Y-48578971D01*
X156566075Y-48578971D02*
X156566075Y-48483733D01*
X156566075Y-48483733D02*
X156613694Y-48340876D01*
X156613694Y-48340876D02*
X156661313Y-48293257D01*
X157566075Y-47340876D02*
X157566075Y-47912304D01*
X157566075Y-47626590D02*
X156566075Y-47626590D01*
X156566075Y-47626590D02*
X156708932Y-47721828D01*
X156708932Y-47721828D02*
X156804170Y-47817066D01*
X156804170Y-47817066D02*
X156851789Y-47912304D01*
X156566075Y-46436114D02*
X156566075Y-46912304D01*
X156566075Y-46912304D02*
X157042265Y-46959923D01*
X157042265Y-46959923D02*
X156994646Y-46912304D01*
X156994646Y-46912304D02*
X156947027Y-46817066D01*
X156947027Y-46817066D02*
X156947027Y-46578971D01*
X156947027Y-46578971D02*
X156994646Y-46483733D01*
X156994646Y-46483733D02*
X157042265Y-46436114D01*
X157042265Y-46436114D02*
X157137503Y-46388495D01*
X157137503Y-46388495D02*
X157375598Y-46388495D01*
X157375598Y-46388495D02*
X157470836Y-46436114D01*
X157470836Y-46436114D02*
X157518456Y-46483733D01*
X157518456Y-46483733D02*
X157566075Y-46578971D01*
X157566075Y-46578971D02*
X157566075Y-46817066D01*
X157566075Y-46817066D02*
X157518456Y-46912304D01*
X157518456Y-46912304D02*
X157470836Y-46959923D01*
X177477546Y-92851637D02*
X177620630Y-92899331D01*
X177620630Y-92899331D02*
X177859104Y-92899331D01*
X177859104Y-92899331D02*
X177954494Y-92851637D01*
X177954494Y-92851637D02*
X178002189Y-92803942D01*
X178002189Y-92803942D02*
X178049883Y-92708552D01*
X178049883Y-92708552D02*
X178049883Y-92613162D01*
X178049883Y-92613162D02*
X178002189Y-92517773D01*
X178002189Y-92517773D02*
X177954494Y-92470078D01*
X177954494Y-92470078D02*
X177859104Y-92422383D01*
X177859104Y-92422383D02*
X177668325Y-92374688D01*
X177668325Y-92374688D02*
X177572935Y-92326994D01*
X177572935Y-92326994D02*
X177525241Y-92279299D01*
X177525241Y-92279299D02*
X177477546Y-92183909D01*
X177477546Y-92183909D02*
X177477546Y-92088520D01*
X177477546Y-92088520D02*
X177525241Y-91993130D01*
X177525241Y-91993130D02*
X177572935Y-91945435D01*
X177572935Y-91945435D02*
X177668325Y-91897740D01*
X177668325Y-91897740D02*
X177906799Y-91897740D01*
X177906799Y-91897740D02*
X178049883Y-91945435D01*
X178383747Y-91897740D02*
X178622221Y-92899331D01*
X178622221Y-92899331D02*
X178813000Y-92183909D01*
X178813000Y-92183909D02*
X179003779Y-92899331D01*
X179003779Y-92899331D02*
X179242254Y-91897740D01*
X179576117Y-91993130D02*
X179623812Y-91945435D01*
X179623812Y-91945435D02*
X179719201Y-91897740D01*
X179719201Y-91897740D02*
X179957675Y-91897740D01*
X179957675Y-91897740D02*
X180053065Y-91945435D01*
X180053065Y-91945435D02*
X180100760Y-91993130D01*
X180100760Y-91993130D02*
X180148454Y-92088520D01*
X180148454Y-92088520D02*
X180148454Y-92183909D01*
X180148454Y-92183909D02*
X180100760Y-92326994D01*
X180100760Y-92326994D02*
X179528422Y-92899331D01*
X179528422Y-92899331D02*
X180148454Y-92899331D01*
X178319466Y-85507675D02*
X178319466Y-86221960D01*
X178319466Y-86221960D02*
X178271847Y-86364817D01*
X178271847Y-86364817D02*
X178176609Y-86460056D01*
X178176609Y-86460056D02*
X178033752Y-86507675D01*
X178033752Y-86507675D02*
X177938514Y-86507675D01*
X178700419Y-85507675D02*
X179319466Y-85507675D01*
X179319466Y-85507675D02*
X178986133Y-85888627D01*
X178986133Y-85888627D02*
X179128990Y-85888627D01*
X179128990Y-85888627D02*
X179224228Y-85936246D01*
X179224228Y-85936246D02*
X179271847Y-85983865D01*
X179271847Y-85983865D02*
X179319466Y-86079103D01*
X179319466Y-86079103D02*
X179319466Y-86317198D01*
X179319466Y-86317198D02*
X179271847Y-86412436D01*
X179271847Y-86412436D02*
X179224228Y-86460056D01*
X179224228Y-86460056D02*
X179128990Y-86507675D01*
X179128990Y-86507675D02*
X178843276Y-86507675D01*
X178843276Y-86507675D02*
X178748038Y-86460056D01*
X178748038Y-86460056D02*
X178700419Y-86412436D01*
X166365095Y-50967475D02*
X166365095Y-51776998D01*
X166365095Y-51776998D02*
X166412714Y-51872236D01*
X166412714Y-51872236D02*
X166460333Y-51919856D01*
X166460333Y-51919856D02*
X166555571Y-51967475D01*
X166555571Y-51967475D02*
X166746047Y-51967475D01*
X166746047Y-51967475D02*
X166841285Y-51919856D01*
X166841285Y-51919856D02*
X166888904Y-51872236D01*
X166888904Y-51872236D02*
X166936523Y-51776998D01*
X166936523Y-51776998D02*
X166936523Y-50967475D01*
X167460333Y-51967475D02*
X167650809Y-51967475D01*
X167650809Y-51967475D02*
X167746047Y-51919856D01*
X167746047Y-51919856D02*
X167793666Y-51872236D01*
X167793666Y-51872236D02*
X167888904Y-51729379D01*
X167888904Y-51729379D02*
X167936523Y-51538903D01*
X167936523Y-51538903D02*
X167936523Y-51157951D01*
X167936523Y-51157951D02*
X167888904Y-51062713D01*
X167888904Y-51062713D02*
X167841285Y-51015094D01*
X167841285Y-51015094D02*
X167746047Y-50967475D01*
X167746047Y-50967475D02*
X167555571Y-50967475D01*
X167555571Y-50967475D02*
X167460333Y-51015094D01*
X167460333Y-51015094D02*
X167412714Y-51062713D01*
X167412714Y-51062713D02*
X167365095Y-51157951D01*
X167365095Y-51157951D02*
X167365095Y-51396046D01*
X167365095Y-51396046D02*
X167412714Y-51491284D01*
X167412714Y-51491284D02*
X167460333Y-51538903D01*
X167460333Y-51538903D02*
X167555571Y-51586522D01*
X167555571Y-51586522D02*
X167746047Y-51586522D01*
X167746047Y-51586522D02*
X167841285Y-51538903D01*
X167841285Y-51538903D02*
X167888904Y-51491284D01*
X167888904Y-51491284D02*
X167936523Y-51396046D01*
X169881942Y-111597675D02*
X169548609Y-111121484D01*
X169310514Y-111597675D02*
X169310514Y-110597675D01*
X169310514Y-110597675D02*
X169691466Y-110597675D01*
X169691466Y-110597675D02*
X169786704Y-110645294D01*
X169786704Y-110645294D02*
X169834323Y-110692913D01*
X169834323Y-110692913D02*
X169881942Y-110788151D01*
X169881942Y-110788151D02*
X169881942Y-110931008D01*
X169881942Y-110931008D02*
X169834323Y-111026246D01*
X169834323Y-111026246D02*
X169786704Y-111073865D01*
X169786704Y-111073865D02*
X169691466Y-111121484D01*
X169691466Y-111121484D02*
X169310514Y-111121484D01*
X170834323Y-111597675D02*
X170262895Y-111597675D01*
X170548609Y-111597675D02*
X170548609Y-110597675D01*
X170548609Y-110597675D02*
X170453371Y-110740532D01*
X170453371Y-110740532D02*
X170358133Y-110835770D01*
X170358133Y-110835770D02*
X170262895Y-110883389D01*
X171167657Y-110597675D02*
X171786704Y-110597675D01*
X171786704Y-110597675D02*
X171453371Y-110978627D01*
X171453371Y-110978627D02*
X171596228Y-110978627D01*
X171596228Y-110978627D02*
X171691466Y-111026246D01*
X171691466Y-111026246D02*
X171739085Y-111073865D01*
X171739085Y-111073865D02*
X171786704Y-111169103D01*
X171786704Y-111169103D02*
X171786704Y-111407198D01*
X171786704Y-111407198D02*
X171739085Y-111502436D01*
X171739085Y-111502436D02*
X171691466Y-111550056D01*
X171691466Y-111550056D02*
X171596228Y-111597675D01*
X171596228Y-111597675D02*
X171310514Y-111597675D01*
X171310514Y-111597675D02*
X171215276Y-111550056D01*
X171215276Y-111550056D02*
X171167657Y-111502436D01*
X149195905Y-51566275D02*
X149195905Y-52375798D01*
X149195905Y-52375798D02*
X149243524Y-52471036D01*
X149243524Y-52471036D02*
X149291143Y-52518656D01*
X149291143Y-52518656D02*
X149386381Y-52566275D01*
X149386381Y-52566275D02*
X149576857Y-52566275D01*
X149576857Y-52566275D02*
X149672095Y-52518656D01*
X149672095Y-52518656D02*
X149719714Y-52471036D01*
X149719714Y-52471036D02*
X149767333Y-52375798D01*
X149767333Y-52375798D02*
X149767333Y-51566275D01*
X150767333Y-52566275D02*
X150195905Y-52566275D01*
X150481619Y-52566275D02*
X150481619Y-51566275D01*
X150481619Y-51566275D02*
X150386381Y-51709132D01*
X150386381Y-51709132D02*
X150291143Y-51804370D01*
X150291143Y-51804370D02*
X150195905Y-51851989D01*
X151624476Y-51899608D02*
X151624476Y-52566275D01*
X151386381Y-51518656D02*
X151148286Y-52232941D01*
X151148286Y-52232941D02*
X151767333Y-52232941D01*
X165784686Y-75080856D02*
X165927543Y-75128475D01*
X165927543Y-75128475D02*
X166165638Y-75128475D01*
X166165638Y-75128475D02*
X166260876Y-75080856D01*
X166260876Y-75080856D02*
X166308495Y-75033236D01*
X166308495Y-75033236D02*
X166356114Y-74937998D01*
X166356114Y-74937998D02*
X166356114Y-74842760D01*
X166356114Y-74842760D02*
X166308495Y-74747522D01*
X166308495Y-74747522D02*
X166260876Y-74699903D01*
X166260876Y-74699903D02*
X166165638Y-74652284D01*
X166165638Y-74652284D02*
X165975162Y-74604665D01*
X165975162Y-74604665D02*
X165879924Y-74557046D01*
X165879924Y-74557046D02*
X165832305Y-74509427D01*
X165832305Y-74509427D02*
X165784686Y-74414189D01*
X165784686Y-74414189D02*
X165784686Y-74318951D01*
X165784686Y-74318951D02*
X165832305Y-74223713D01*
X165832305Y-74223713D02*
X165879924Y-74176094D01*
X165879924Y-74176094D02*
X165975162Y-74128475D01*
X165975162Y-74128475D02*
X166213257Y-74128475D01*
X166213257Y-74128475D02*
X166356114Y-74176094D01*
X167356114Y-75033236D02*
X167308495Y-75080856D01*
X167308495Y-75080856D02*
X167165638Y-75128475D01*
X167165638Y-75128475D02*
X167070400Y-75128475D01*
X167070400Y-75128475D02*
X166927543Y-75080856D01*
X166927543Y-75080856D02*
X166832305Y-74985617D01*
X166832305Y-74985617D02*
X166784686Y-74890379D01*
X166784686Y-74890379D02*
X166737067Y-74699903D01*
X166737067Y-74699903D02*
X166737067Y-74557046D01*
X166737067Y-74557046D02*
X166784686Y-74366570D01*
X166784686Y-74366570D02*
X166832305Y-74271332D01*
X166832305Y-74271332D02*
X166927543Y-74176094D01*
X166927543Y-74176094D02*
X167070400Y-74128475D01*
X167070400Y-74128475D02*
X167165638Y-74128475D01*
X167165638Y-74128475D02*
X167308495Y-74176094D01*
X167308495Y-74176094D02*
X167356114Y-74223713D01*
X167784686Y-75128475D02*
X167784686Y-74128475D01*
X168356114Y-75128475D02*
X167927543Y-74557046D01*
X168356114Y-74128475D02*
X167784686Y-74699903D01*
X145402705Y-80818075D02*
X145402705Y-79818075D01*
X145402705Y-79818075D02*
X145640800Y-79818075D01*
X145640800Y-79818075D02*
X145783657Y-79865694D01*
X145783657Y-79865694D02*
X145878895Y-79960932D01*
X145878895Y-79960932D02*
X145926514Y-80056170D01*
X145926514Y-80056170D02*
X145974133Y-80246646D01*
X145974133Y-80246646D02*
X145974133Y-80389503D01*
X145974133Y-80389503D02*
X145926514Y-80579979D01*
X145926514Y-80579979D02*
X145878895Y-80675217D01*
X145878895Y-80675217D02*
X145783657Y-80770456D01*
X145783657Y-80770456D02*
X145640800Y-80818075D01*
X145640800Y-80818075D02*
X145402705Y-80818075D01*
X146831276Y-80151408D02*
X146831276Y-80818075D01*
X146593181Y-79770456D02*
X146355086Y-80484741D01*
X146355086Y-80484741D02*
X146974133Y-80484741D01*
X157470836Y-90350666D02*
X157518456Y-90398285D01*
X157518456Y-90398285D02*
X157566075Y-90541142D01*
X157566075Y-90541142D02*
X157566075Y-90636380D01*
X157566075Y-90636380D02*
X157518456Y-90779237D01*
X157518456Y-90779237D02*
X157423217Y-90874475D01*
X157423217Y-90874475D02*
X157327979Y-90922094D01*
X157327979Y-90922094D02*
X157137503Y-90969713D01*
X157137503Y-90969713D02*
X156994646Y-90969713D01*
X156994646Y-90969713D02*
X156804170Y-90922094D01*
X156804170Y-90922094D02*
X156708932Y-90874475D01*
X156708932Y-90874475D02*
X156613694Y-90779237D01*
X156613694Y-90779237D02*
X156566075Y-90636380D01*
X156566075Y-90636380D02*
X156566075Y-90541142D01*
X156566075Y-90541142D02*
X156613694Y-90398285D01*
X156613694Y-90398285D02*
X156661313Y-90350666D01*
X156566075Y-89445904D02*
X156566075Y-89922094D01*
X156566075Y-89922094D02*
X157042265Y-89969713D01*
X157042265Y-89969713D02*
X156994646Y-89922094D01*
X156994646Y-89922094D02*
X156947027Y-89826856D01*
X156947027Y-89826856D02*
X156947027Y-89588761D01*
X156947027Y-89588761D02*
X156994646Y-89493523D01*
X156994646Y-89493523D02*
X157042265Y-89445904D01*
X157042265Y-89445904D02*
X157137503Y-89398285D01*
X157137503Y-89398285D02*
X157375598Y-89398285D01*
X157375598Y-89398285D02*
X157470836Y-89445904D01*
X157470836Y-89445904D02*
X157518456Y-89493523D01*
X157518456Y-89493523D02*
X157566075Y-89588761D01*
X157566075Y-89588761D02*
X157566075Y-89826856D01*
X157566075Y-89826856D02*
X157518456Y-89922094D01*
X157518456Y-89922094D02*
X157470836Y-89969713D01*
X145309105Y-51166875D02*
X145309105Y-51976398D01*
X145309105Y-51976398D02*
X145356724Y-52071636D01*
X145356724Y-52071636D02*
X145404343Y-52119256D01*
X145404343Y-52119256D02*
X145499581Y-52166875D01*
X145499581Y-52166875D02*
X145690057Y-52166875D01*
X145690057Y-52166875D02*
X145785295Y-52119256D01*
X145785295Y-52119256D02*
X145832914Y-52071636D01*
X145832914Y-52071636D02*
X145880533Y-51976398D01*
X145880533Y-51976398D02*
X145880533Y-51166875D01*
X146880533Y-52166875D02*
X146309105Y-52166875D01*
X146594819Y-52166875D02*
X146594819Y-51166875D01*
X146594819Y-51166875D02*
X146499581Y-51309732D01*
X146499581Y-51309732D02*
X146404343Y-51404970D01*
X146404343Y-51404970D02*
X146309105Y-51452589D01*
X147499581Y-51166875D02*
X147594819Y-51166875D01*
X147594819Y-51166875D02*
X147690057Y-51214494D01*
X147690057Y-51214494D02*
X147737676Y-51262113D01*
X147737676Y-51262113D02*
X147785295Y-51357351D01*
X147785295Y-51357351D02*
X147832914Y-51547827D01*
X147832914Y-51547827D02*
X147832914Y-51785922D01*
X147832914Y-51785922D02*
X147785295Y-51976398D01*
X147785295Y-51976398D02*
X147737676Y-52071636D01*
X147737676Y-52071636D02*
X147690057Y-52119256D01*
X147690057Y-52119256D02*
X147594819Y-52166875D01*
X147594819Y-52166875D02*
X147499581Y-52166875D01*
X147499581Y-52166875D02*
X147404343Y-52119256D01*
X147404343Y-52119256D02*
X147356724Y-52071636D01*
X147356724Y-52071636D02*
X147309105Y-51976398D01*
X147309105Y-51976398D02*
X147261486Y-51785922D01*
X147261486Y-51785922D02*
X147261486Y-51547827D01*
X147261486Y-51547827D02*
X147309105Y-51357351D01*
X147309105Y-51357351D02*
X147356724Y-51262113D01*
X147356724Y-51262113D02*
X147404343Y-51214494D01*
X147404343Y-51214494D02*
X147499581Y-51166875D01*
X147483961Y-95962836D02*
X147436342Y-96010456D01*
X147436342Y-96010456D02*
X147293485Y-96058075D01*
X147293485Y-96058075D02*
X147198247Y-96058075D01*
X147198247Y-96058075D02*
X147055390Y-96010456D01*
X147055390Y-96010456D02*
X146960152Y-95915217D01*
X146960152Y-95915217D02*
X146912533Y-95819979D01*
X146912533Y-95819979D02*
X146864914Y-95629503D01*
X146864914Y-95629503D02*
X146864914Y-95486646D01*
X146864914Y-95486646D02*
X146912533Y-95296170D01*
X146912533Y-95296170D02*
X146960152Y-95200932D01*
X146960152Y-95200932D02*
X147055390Y-95105694D01*
X147055390Y-95105694D02*
X147198247Y-95058075D01*
X147198247Y-95058075D02*
X147293485Y-95058075D01*
X147293485Y-95058075D02*
X147436342Y-95105694D01*
X147436342Y-95105694D02*
X147483961Y-95153313D01*
X147912533Y-96058075D02*
X147912533Y-95058075D01*
X147912533Y-95534265D02*
X148483961Y-95534265D01*
X148483961Y-96058075D02*
X148483961Y-95058075D01*
X148722057Y-96153313D02*
X149483961Y-96153313D01*
X150055390Y-95534265D02*
X150198247Y-95581884D01*
X150198247Y-95581884D02*
X150245866Y-95629503D01*
X150245866Y-95629503D02*
X150293485Y-95724741D01*
X150293485Y-95724741D02*
X150293485Y-95867598D01*
X150293485Y-95867598D02*
X150245866Y-95962836D01*
X150245866Y-95962836D02*
X150198247Y-96010456D01*
X150198247Y-96010456D02*
X150103009Y-96058075D01*
X150103009Y-96058075D02*
X149722057Y-96058075D01*
X149722057Y-96058075D02*
X149722057Y-95058075D01*
X149722057Y-95058075D02*
X150055390Y-95058075D01*
X150055390Y-95058075D02*
X150150628Y-95105694D01*
X150150628Y-95105694D02*
X150198247Y-95153313D01*
X150198247Y-95153313D02*
X150245866Y-95248551D01*
X150245866Y-95248551D02*
X150245866Y-95343789D01*
X150245866Y-95343789D02*
X150198247Y-95439027D01*
X150198247Y-95439027D02*
X150150628Y-95486646D01*
X150150628Y-95486646D02*
X150055390Y-95534265D01*
X150055390Y-95534265D02*
X149722057Y-95534265D01*
X170399905Y-52074275D02*
X170399905Y-52883798D01*
X170399905Y-52883798D02*
X170447524Y-52979036D01*
X170447524Y-52979036D02*
X170495143Y-53026656D01*
X170495143Y-53026656D02*
X170590381Y-53074275D01*
X170590381Y-53074275D02*
X170780857Y-53074275D01*
X170780857Y-53074275D02*
X170876095Y-53026656D01*
X170876095Y-53026656D02*
X170923714Y-52979036D01*
X170923714Y-52979036D02*
X170971333Y-52883798D01*
X170971333Y-52883798D02*
X170971333Y-52074275D01*
X171971333Y-53074275D02*
X171399905Y-53074275D01*
X171685619Y-53074275D02*
X171685619Y-52074275D01*
X171685619Y-52074275D02*
X171590381Y-52217132D01*
X171590381Y-52217132D02*
X171495143Y-52312370D01*
X171495143Y-52312370D02*
X171399905Y-52359989D01*
X172304667Y-52074275D02*
X172923714Y-52074275D01*
X172923714Y-52074275D02*
X172590381Y-52455227D01*
X172590381Y-52455227D02*
X172733238Y-52455227D01*
X172733238Y-52455227D02*
X172828476Y-52502846D01*
X172828476Y-52502846D02*
X172876095Y-52550465D01*
X172876095Y-52550465D02*
X172923714Y-52645703D01*
X172923714Y-52645703D02*
X172923714Y-52883798D01*
X172923714Y-52883798D02*
X172876095Y-52979036D01*
X172876095Y-52979036D02*
X172828476Y-53026656D01*
X172828476Y-53026656D02*
X172733238Y-53074275D01*
X172733238Y-53074275D02*
X172447524Y-53074275D01*
X172447524Y-53074275D02*
X172352286Y-53026656D01*
X172352286Y-53026656D02*
X172304667Y-52979036D01*
X166943543Y-119629275D02*
X166943543Y-118629275D01*
X166943543Y-118629275D02*
X167181638Y-118629275D01*
X167181638Y-118629275D02*
X167324495Y-118676894D01*
X167324495Y-118676894D02*
X167419733Y-118772132D01*
X167419733Y-118772132D02*
X167467352Y-118867370D01*
X167467352Y-118867370D02*
X167514971Y-119057846D01*
X167514971Y-119057846D02*
X167514971Y-119200703D01*
X167514971Y-119200703D02*
X167467352Y-119391179D01*
X167467352Y-119391179D02*
X167419733Y-119486417D01*
X167419733Y-119486417D02*
X167324495Y-119581656D01*
X167324495Y-119581656D02*
X167181638Y-119629275D01*
X167181638Y-119629275D02*
X166943543Y-119629275D01*
X167800686Y-118629275D02*
X168372114Y-118629275D01*
X168086400Y-119629275D02*
X168086400Y-118629275D01*
X169276876Y-119629275D02*
X168943543Y-119153084D01*
X168705448Y-119629275D02*
X168705448Y-118629275D01*
X168705448Y-118629275D02*
X169086400Y-118629275D01*
X169086400Y-118629275D02*
X169181638Y-118676894D01*
X169181638Y-118676894D02*
X169229257Y-118724513D01*
X169229257Y-118724513D02*
X169276876Y-118819751D01*
X169276876Y-118819751D02*
X169276876Y-118962608D01*
X169276876Y-118962608D02*
X169229257Y-119057846D01*
X169229257Y-119057846D02*
X169181638Y-119105465D01*
X169181638Y-119105465D02*
X169086400Y-119153084D01*
X169086400Y-119153084D02*
X168705448Y-119153084D01*
X175492686Y-110104322D02*
X176254591Y-110104322D01*
X175873638Y-110485275D02*
X175873638Y-109723370D01*
X177206971Y-109485275D02*
X176730781Y-109485275D01*
X176730781Y-109485275D02*
X176683162Y-109961465D01*
X176683162Y-109961465D02*
X176730781Y-109913846D01*
X176730781Y-109913846D02*
X176826019Y-109866227D01*
X176826019Y-109866227D02*
X177064114Y-109866227D01*
X177064114Y-109866227D02*
X177159352Y-109913846D01*
X177159352Y-109913846D02*
X177206971Y-109961465D01*
X177206971Y-109961465D02*
X177254590Y-110056703D01*
X177254590Y-110056703D02*
X177254590Y-110294798D01*
X177254590Y-110294798D02*
X177206971Y-110390036D01*
X177206971Y-110390036D02*
X177159352Y-110437656D01*
X177159352Y-110437656D02*
X177064114Y-110485275D01*
X177064114Y-110485275D02*
X176826019Y-110485275D01*
X176826019Y-110485275D02*
X176730781Y-110437656D01*
X176730781Y-110437656D02*
X176683162Y-110390036D01*
X177540305Y-109485275D02*
X177873638Y-110485275D01*
X177873638Y-110485275D02*
X178206971Y-109485275D01*
D11*
X175506518Y-103130428D02*
X175506518Y-103735190D01*
X175506518Y-103735190D02*
X174236518Y-103735190D01*
X175446042Y-102767571D02*
X175506518Y-102586142D01*
X175506518Y-102586142D02*
X175506518Y-102283761D01*
X175506518Y-102283761D02*
X175446042Y-102162809D01*
X175446042Y-102162809D02*
X175385565Y-102102333D01*
X175385565Y-102102333D02*
X175264613Y-102041856D01*
X175264613Y-102041856D02*
X175143661Y-102041856D01*
X175143661Y-102041856D02*
X175022708Y-102102333D01*
X175022708Y-102102333D02*
X174962232Y-102162809D01*
X174962232Y-102162809D02*
X174901756Y-102283761D01*
X174901756Y-102283761D02*
X174841280Y-102525666D01*
X174841280Y-102525666D02*
X174780803Y-102646618D01*
X174780803Y-102646618D02*
X174720327Y-102707095D01*
X174720327Y-102707095D02*
X174599375Y-102767571D01*
X174599375Y-102767571D02*
X174478422Y-102767571D01*
X174478422Y-102767571D02*
X174357470Y-102707095D01*
X174357470Y-102707095D02*
X174296994Y-102646618D01*
X174296994Y-102646618D02*
X174236518Y-102525666D01*
X174236518Y-102525666D02*
X174236518Y-102223285D01*
X174236518Y-102223285D02*
X174296994Y-102041856D01*
X175506518Y-100832332D02*
X175506518Y-101558047D01*
X175506518Y-101195190D02*
X174236518Y-101195190D01*
X174236518Y-101195190D02*
X174417946Y-101316142D01*
X174417946Y-101316142D02*
X174538899Y-101437094D01*
X174538899Y-101437094D02*
X174599375Y-101558047D01*
D10*
X164058609Y-89885084D02*
X164058609Y-90361275D01*
X163725276Y-89361275D02*
X164058609Y-89885084D01*
X164058609Y-89885084D02*
X164391942Y-89361275D01*
X165249085Y-90361275D02*
X164677657Y-90361275D01*
X164963371Y-90361275D02*
X164963371Y-89361275D01*
X164963371Y-89361275D02*
X164868133Y-89504132D01*
X164868133Y-89504132D02*
X164772895Y-89599370D01*
X164772895Y-89599370D02*
X164677657Y-89646989D01*
X132969333Y-129382875D02*
X132636000Y-128906684D01*
X132397905Y-129382875D02*
X132397905Y-128382875D01*
X132397905Y-128382875D02*
X132778857Y-128382875D01*
X132778857Y-128382875D02*
X132874095Y-128430494D01*
X132874095Y-128430494D02*
X132921714Y-128478113D01*
X132921714Y-128478113D02*
X132969333Y-128573351D01*
X132969333Y-128573351D02*
X132969333Y-128716208D01*
X132969333Y-128716208D02*
X132921714Y-128811446D01*
X132921714Y-128811446D02*
X132874095Y-128859065D01*
X132874095Y-128859065D02*
X132778857Y-128906684D01*
X132778857Y-128906684D02*
X132397905Y-128906684D01*
X133921714Y-129382875D02*
X133350286Y-129382875D01*
X133636000Y-129382875D02*
X133636000Y-128382875D01*
X133636000Y-128382875D02*
X133540762Y-128525732D01*
X133540762Y-128525732D02*
X133445524Y-128620970D01*
X133445524Y-128620970D02*
X133350286Y-128668589D01*
X154376761Y-115863713D02*
X154281523Y-115816094D01*
X154281523Y-115816094D02*
X154186285Y-115720856D01*
X154186285Y-115720856D02*
X154043428Y-115577998D01*
X154043428Y-115577998D02*
X153948190Y-115530379D01*
X153948190Y-115530379D02*
X153852952Y-115530379D01*
X153900571Y-115768475D02*
X153805333Y-115720856D01*
X153805333Y-115720856D02*
X153710095Y-115625617D01*
X153710095Y-115625617D02*
X153662476Y-115435141D01*
X153662476Y-115435141D02*
X153662476Y-115101808D01*
X153662476Y-115101808D02*
X153710095Y-114911332D01*
X153710095Y-114911332D02*
X153805333Y-114816094D01*
X153805333Y-114816094D02*
X153900571Y-114768475D01*
X153900571Y-114768475D02*
X154091047Y-114768475D01*
X154091047Y-114768475D02*
X154186285Y-114816094D01*
X154186285Y-114816094D02*
X154281523Y-114911332D01*
X154281523Y-114911332D02*
X154329142Y-115101808D01*
X154329142Y-115101808D02*
X154329142Y-115435141D01*
X154329142Y-115435141D02*
X154281523Y-115625617D01*
X154281523Y-115625617D02*
X154186285Y-115720856D01*
X154186285Y-115720856D02*
X154091047Y-115768475D01*
X154091047Y-115768475D02*
X153900571Y-115768475D01*
X155281523Y-115768475D02*
X154710095Y-115768475D01*
X154995809Y-115768475D02*
X154995809Y-114768475D01*
X154995809Y-114768475D02*
X154900571Y-114911332D01*
X154900571Y-114911332D02*
X154805333Y-115006570D01*
X154805333Y-115006570D02*
X154710095Y-115054189D01*
X175103161Y-93918113D02*
X175007923Y-93870494D01*
X175007923Y-93870494D02*
X174912685Y-93775256D01*
X174912685Y-93775256D02*
X174769828Y-93632398D01*
X174769828Y-93632398D02*
X174674590Y-93584779D01*
X174674590Y-93584779D02*
X174579352Y-93584779D01*
X174626971Y-93822875D02*
X174531733Y-93775256D01*
X174531733Y-93775256D02*
X174436495Y-93680017D01*
X174436495Y-93680017D02*
X174388876Y-93489541D01*
X174388876Y-93489541D02*
X174388876Y-93156208D01*
X174388876Y-93156208D02*
X174436495Y-92965732D01*
X174436495Y-92965732D02*
X174531733Y-92870494D01*
X174531733Y-92870494D02*
X174626971Y-92822875D01*
X174626971Y-92822875D02*
X174817447Y-92822875D01*
X174817447Y-92822875D02*
X174912685Y-92870494D01*
X174912685Y-92870494D02*
X175007923Y-92965732D01*
X175007923Y-92965732D02*
X175055542Y-93156208D01*
X175055542Y-93156208D02*
X175055542Y-93489541D01*
X175055542Y-93489541D02*
X175007923Y-93680017D01*
X175007923Y-93680017D02*
X174912685Y-93775256D01*
X174912685Y-93775256D02*
X174817447Y-93822875D01*
X174817447Y-93822875D02*
X174626971Y-93822875D01*
X175388876Y-92822875D02*
X176007923Y-92822875D01*
X176007923Y-92822875D02*
X175674590Y-93203827D01*
X175674590Y-93203827D02*
X175817447Y-93203827D01*
X175817447Y-93203827D02*
X175912685Y-93251446D01*
X175912685Y-93251446D02*
X175960304Y-93299065D01*
X175960304Y-93299065D02*
X176007923Y-93394303D01*
X176007923Y-93394303D02*
X176007923Y-93632398D01*
X176007923Y-93632398D02*
X175960304Y-93727636D01*
X175960304Y-93727636D02*
X175912685Y-93775256D01*
X175912685Y-93775256D02*
X175817447Y-93822875D01*
X175817447Y-93822875D02*
X175531733Y-93822875D01*
X175531733Y-93822875D02*
X175436495Y-93775256D01*
X175436495Y-93775256D02*
X175388876Y-93727636D01*
X157267636Y-70442057D02*
X157315256Y-70489676D01*
X157315256Y-70489676D02*
X157362875Y-70632533D01*
X157362875Y-70632533D02*
X157362875Y-70727771D01*
X157362875Y-70727771D02*
X157315256Y-70870628D01*
X157315256Y-70870628D02*
X157220017Y-70965866D01*
X157220017Y-70965866D02*
X157124779Y-71013485D01*
X157124779Y-71013485D02*
X156934303Y-71061104D01*
X156934303Y-71061104D02*
X156791446Y-71061104D01*
X156791446Y-71061104D02*
X156600970Y-71013485D01*
X156600970Y-71013485D02*
X156505732Y-70965866D01*
X156505732Y-70965866D02*
X156410494Y-70870628D01*
X156410494Y-70870628D02*
X156362875Y-70727771D01*
X156362875Y-70727771D02*
X156362875Y-70632533D01*
X156362875Y-70632533D02*
X156410494Y-70489676D01*
X156410494Y-70489676D02*
X156458113Y-70442057D01*
X157362875Y-69489676D02*
X157362875Y-70061104D01*
X157362875Y-69775390D02*
X156362875Y-69775390D01*
X156362875Y-69775390D02*
X156505732Y-69870628D01*
X156505732Y-69870628D02*
X156600970Y-69965866D01*
X156600970Y-69965866D02*
X156648589Y-70061104D01*
X156362875Y-69156342D02*
X156362875Y-68537295D01*
X156362875Y-68537295D02*
X156743827Y-68870628D01*
X156743827Y-68870628D02*
X156743827Y-68727771D01*
X156743827Y-68727771D02*
X156791446Y-68632533D01*
X156791446Y-68632533D02*
X156839065Y-68584914D01*
X156839065Y-68584914D02*
X156934303Y-68537295D01*
X156934303Y-68537295D02*
X157172398Y-68537295D01*
X157172398Y-68537295D02*
X157267636Y-68584914D01*
X157267636Y-68584914D02*
X157315256Y-68632533D01*
X157315256Y-68632533D02*
X157362875Y-68727771D01*
X157362875Y-68727771D02*
X157362875Y-69013485D01*
X157362875Y-69013485D02*
X157315256Y-69108723D01*
X157315256Y-69108723D02*
X157267636Y-69156342D01*
X145016190Y-104090836D02*
X144968571Y-104138456D01*
X144968571Y-104138456D02*
X144825714Y-104186075D01*
X144825714Y-104186075D02*
X144730476Y-104186075D01*
X144730476Y-104186075D02*
X144587619Y-104138456D01*
X144587619Y-104138456D02*
X144492381Y-104043217D01*
X144492381Y-104043217D02*
X144444762Y-103947979D01*
X144444762Y-103947979D02*
X144397143Y-103757503D01*
X144397143Y-103757503D02*
X144397143Y-103614646D01*
X144397143Y-103614646D02*
X144444762Y-103424170D01*
X144444762Y-103424170D02*
X144492381Y-103328932D01*
X144492381Y-103328932D02*
X144587619Y-103233694D01*
X144587619Y-103233694D02*
X144730476Y-103186075D01*
X144730476Y-103186075D02*
X144825714Y-103186075D01*
X144825714Y-103186075D02*
X144968571Y-103233694D01*
X144968571Y-103233694D02*
X145016190Y-103281313D01*
X145444762Y-104186075D02*
X145444762Y-103186075D01*
X145444762Y-103662265D02*
X146016190Y-103662265D01*
X146016190Y-104186075D02*
X146016190Y-103186075D01*
X146254286Y-104281313D02*
X147016190Y-104281313D01*
X147206667Y-103900360D02*
X147682857Y-103900360D01*
X147111429Y-104186075D02*
X147444762Y-103186075D01*
X147444762Y-103186075D02*
X147778095Y-104186075D01*
X159191675Y-94826057D02*
X158715484Y-95159390D01*
X159191675Y-95397485D02*
X158191675Y-95397485D01*
X158191675Y-95397485D02*
X158191675Y-95016533D01*
X158191675Y-95016533D02*
X158239294Y-94921295D01*
X158239294Y-94921295D02*
X158286913Y-94873676D01*
X158286913Y-94873676D02*
X158382151Y-94826057D01*
X158382151Y-94826057D02*
X158525008Y-94826057D01*
X158525008Y-94826057D02*
X158620246Y-94873676D01*
X158620246Y-94873676D02*
X158667865Y-94921295D01*
X158667865Y-94921295D02*
X158715484Y-95016533D01*
X158715484Y-95016533D02*
X158715484Y-95397485D01*
X159191675Y-93873676D02*
X159191675Y-94445104D01*
X159191675Y-94159390D02*
X158191675Y-94159390D01*
X158191675Y-94159390D02*
X158334532Y-94254628D01*
X158334532Y-94254628D02*
X158429770Y-94349866D01*
X158429770Y-94349866D02*
X158477389Y-94445104D01*
X159191675Y-92921295D02*
X159191675Y-93492723D01*
X159191675Y-93207009D02*
X158191675Y-93207009D01*
X158191675Y-93207009D02*
X158334532Y-93302247D01*
X158334532Y-93302247D02*
X158429770Y-93397485D01*
X158429770Y-93397485D02*
X158477389Y-93492723D01*
X166100475Y-111285257D02*
X165624284Y-111618590D01*
X166100475Y-111856685D02*
X165100475Y-111856685D01*
X165100475Y-111856685D02*
X165100475Y-111475733D01*
X165100475Y-111475733D02*
X165148094Y-111380495D01*
X165148094Y-111380495D02*
X165195713Y-111332876D01*
X165195713Y-111332876D02*
X165290951Y-111285257D01*
X165290951Y-111285257D02*
X165433808Y-111285257D01*
X165433808Y-111285257D02*
X165529046Y-111332876D01*
X165529046Y-111332876D02*
X165576665Y-111380495D01*
X165576665Y-111380495D02*
X165624284Y-111475733D01*
X165624284Y-111475733D02*
X165624284Y-111856685D01*
X166100475Y-110332876D02*
X166100475Y-110904304D01*
X166100475Y-110618590D02*
X165100475Y-110618590D01*
X165100475Y-110618590D02*
X165243332Y-110713828D01*
X165243332Y-110713828D02*
X165338570Y-110809066D01*
X165338570Y-110809066D02*
X165386189Y-110904304D01*
X165100475Y-109428114D02*
X165100475Y-109904304D01*
X165100475Y-109904304D02*
X165576665Y-109951923D01*
X165576665Y-109951923D02*
X165529046Y-109904304D01*
X165529046Y-109904304D02*
X165481427Y-109809066D01*
X165481427Y-109809066D02*
X165481427Y-109570971D01*
X165481427Y-109570971D02*
X165529046Y-109475733D01*
X165529046Y-109475733D02*
X165576665Y-109428114D01*
X165576665Y-109428114D02*
X165671903Y-109380495D01*
X165671903Y-109380495D02*
X165909998Y-109380495D01*
X165909998Y-109380495D02*
X166005236Y-109428114D01*
X166005236Y-109428114D02*
X166052856Y-109475733D01*
X166052856Y-109475733D02*
X166100475Y-109570971D01*
X166100475Y-109570971D02*
X166100475Y-109809066D01*
X166100475Y-109809066D02*
X166052856Y-109904304D01*
X166052856Y-109904304D02*
X166005236Y-109951923D01*
X135034971Y-132227675D02*
X135034971Y-131227675D01*
X135034971Y-131227675D02*
X135415923Y-131227675D01*
X135415923Y-131227675D02*
X135511161Y-131275294D01*
X135511161Y-131275294D02*
X135558780Y-131322913D01*
X135558780Y-131322913D02*
X135606399Y-131418151D01*
X135606399Y-131418151D02*
X135606399Y-131561008D01*
X135606399Y-131561008D02*
X135558780Y-131656246D01*
X135558780Y-131656246D02*
X135511161Y-131703865D01*
X135511161Y-131703865D02*
X135415923Y-131751484D01*
X135415923Y-131751484D02*
X135034971Y-131751484D01*
X136034971Y-132227675D02*
X136034971Y-131227675D01*
X136034971Y-131227675D02*
X136415923Y-131227675D01*
X136415923Y-131227675D02*
X136511161Y-131275294D01*
X136511161Y-131275294D02*
X136558780Y-131322913D01*
X136558780Y-131322913D02*
X136606399Y-131418151D01*
X136606399Y-131418151D02*
X136606399Y-131561008D01*
X136606399Y-131561008D02*
X136558780Y-131656246D01*
X136558780Y-131656246D02*
X136511161Y-131703865D01*
X136511161Y-131703865D02*
X136415923Y-131751484D01*
X136415923Y-131751484D02*
X136034971Y-131751484D01*
X136796876Y-132322913D02*
X137558780Y-132322913D01*
X137654019Y-131227675D02*
X137987352Y-132227675D01*
X137987352Y-132227675D02*
X138320685Y-131227675D01*
X139225447Y-132132436D02*
X139177828Y-132180056D01*
X139177828Y-132180056D02*
X139034971Y-132227675D01*
X139034971Y-132227675D02*
X138939733Y-132227675D01*
X138939733Y-132227675D02*
X138796876Y-132180056D01*
X138796876Y-132180056D02*
X138701638Y-132084817D01*
X138701638Y-132084817D02*
X138654019Y-131989579D01*
X138654019Y-131989579D02*
X138606400Y-131799103D01*
X138606400Y-131799103D02*
X138606400Y-131656246D01*
X138606400Y-131656246D02*
X138654019Y-131465770D01*
X138654019Y-131465770D02*
X138701638Y-131370532D01*
X138701638Y-131370532D02*
X138796876Y-131275294D01*
X138796876Y-131275294D02*
X138939733Y-131227675D01*
X138939733Y-131227675D02*
X139034971Y-131227675D01*
X139034971Y-131227675D02*
X139177828Y-131275294D01*
X139177828Y-131275294D02*
X139225447Y-131322913D01*
X140225447Y-132132436D02*
X140177828Y-132180056D01*
X140177828Y-132180056D02*
X140034971Y-132227675D01*
X140034971Y-132227675D02*
X139939733Y-132227675D01*
X139939733Y-132227675D02*
X139796876Y-132180056D01*
X139796876Y-132180056D02*
X139701638Y-132084817D01*
X139701638Y-132084817D02*
X139654019Y-131989579D01*
X139654019Y-131989579D02*
X139606400Y-131799103D01*
X139606400Y-131799103D02*
X139606400Y-131656246D01*
X139606400Y-131656246D02*
X139654019Y-131465770D01*
X139654019Y-131465770D02*
X139701638Y-131370532D01*
X139701638Y-131370532D02*
X139796876Y-131275294D01*
X139796876Y-131275294D02*
X139939733Y-131227675D01*
X139939733Y-131227675D02*
X140034971Y-131227675D01*
X140034971Y-131227675D02*
X140177828Y-131275294D01*
X140177828Y-131275294D02*
X140225447Y-131322913D01*
X154422836Y-90965257D02*
X154470456Y-91012876D01*
X154470456Y-91012876D02*
X154518075Y-91155733D01*
X154518075Y-91155733D02*
X154518075Y-91250971D01*
X154518075Y-91250971D02*
X154470456Y-91393828D01*
X154470456Y-91393828D02*
X154375217Y-91489066D01*
X154375217Y-91489066D02*
X154279979Y-91536685D01*
X154279979Y-91536685D02*
X154089503Y-91584304D01*
X154089503Y-91584304D02*
X153946646Y-91584304D01*
X153946646Y-91584304D02*
X153756170Y-91536685D01*
X153756170Y-91536685D02*
X153660932Y-91489066D01*
X153660932Y-91489066D02*
X153565694Y-91393828D01*
X153565694Y-91393828D02*
X153518075Y-91250971D01*
X153518075Y-91250971D02*
X153518075Y-91155733D01*
X153518075Y-91155733D02*
X153565694Y-91012876D01*
X153565694Y-91012876D02*
X153613313Y-90965257D01*
X154518075Y-90012876D02*
X154518075Y-90584304D01*
X154518075Y-90298590D02*
X153518075Y-90298590D01*
X153518075Y-90298590D02*
X153660932Y-90393828D01*
X153660932Y-90393828D02*
X153756170Y-90489066D01*
X153756170Y-90489066D02*
X153803789Y-90584304D01*
X153518075Y-89393828D02*
X153518075Y-89298590D01*
X153518075Y-89298590D02*
X153565694Y-89203352D01*
X153565694Y-89203352D02*
X153613313Y-89155733D01*
X153613313Y-89155733D02*
X153708551Y-89108114D01*
X153708551Y-89108114D02*
X153899027Y-89060495D01*
X153899027Y-89060495D02*
X154137122Y-89060495D01*
X154137122Y-89060495D02*
X154327598Y-89108114D01*
X154327598Y-89108114D02*
X154422836Y-89155733D01*
X154422836Y-89155733D02*
X154470456Y-89203352D01*
X154470456Y-89203352D02*
X154518075Y-89298590D01*
X154518075Y-89298590D02*
X154518075Y-89393828D01*
X154518075Y-89393828D02*
X154470456Y-89489066D01*
X154470456Y-89489066D02*
X154422836Y-89536685D01*
X154422836Y-89536685D02*
X154327598Y-89584304D01*
X154327598Y-89584304D02*
X154137122Y-89631923D01*
X154137122Y-89631923D02*
X153899027Y-89631923D01*
X153899027Y-89631923D02*
X153708551Y-89584304D01*
X153708551Y-89584304D02*
X153613313Y-89536685D01*
X153613313Y-89536685D02*
X153565694Y-89489066D01*
X153565694Y-89489066D02*
X153518075Y-89393828D01*
X179516495Y-109532894D02*
X179421257Y-109485275D01*
X179421257Y-109485275D02*
X179278400Y-109485275D01*
X179278400Y-109485275D02*
X179135543Y-109532894D01*
X179135543Y-109532894D02*
X179040305Y-109628132D01*
X179040305Y-109628132D02*
X178992686Y-109723370D01*
X178992686Y-109723370D02*
X178945067Y-109913846D01*
X178945067Y-109913846D02*
X178945067Y-110056703D01*
X178945067Y-110056703D02*
X178992686Y-110247179D01*
X178992686Y-110247179D02*
X179040305Y-110342417D01*
X179040305Y-110342417D02*
X179135543Y-110437656D01*
X179135543Y-110437656D02*
X179278400Y-110485275D01*
X179278400Y-110485275D02*
X179373638Y-110485275D01*
X179373638Y-110485275D02*
X179516495Y-110437656D01*
X179516495Y-110437656D02*
X179564114Y-110390036D01*
X179564114Y-110390036D02*
X179564114Y-110056703D01*
X179564114Y-110056703D02*
X179373638Y-110056703D01*
X179992686Y-110485275D02*
X179992686Y-109485275D01*
X179992686Y-109485275D02*
X180564114Y-110485275D01*
X180564114Y-110485275D02*
X180564114Y-109485275D01*
X181040305Y-110485275D02*
X181040305Y-109485275D01*
X181040305Y-109485275D02*
X181278400Y-109485275D01*
X181278400Y-109485275D02*
X181421257Y-109532894D01*
X181421257Y-109532894D02*
X181516495Y-109628132D01*
X181516495Y-109628132D02*
X181564114Y-109723370D01*
X181564114Y-109723370D02*
X181611733Y-109913846D01*
X181611733Y-109913846D02*
X181611733Y-110056703D01*
X181611733Y-110056703D02*
X181564114Y-110247179D01*
X181564114Y-110247179D02*
X181516495Y-110342417D01*
X181516495Y-110342417D02*
X181421257Y-110437656D01*
X181421257Y-110437656D02*
X181278400Y-110485275D01*
X181278400Y-110485275D02*
X181040305Y-110485275D01*
X145075636Y-109456457D02*
X145123256Y-109504076D01*
X145123256Y-109504076D02*
X145170875Y-109646933D01*
X145170875Y-109646933D02*
X145170875Y-109742171D01*
X145170875Y-109742171D02*
X145123256Y-109885028D01*
X145123256Y-109885028D02*
X145028017Y-109980266D01*
X145028017Y-109980266D02*
X144932779Y-110027885D01*
X144932779Y-110027885D02*
X144742303Y-110075504D01*
X144742303Y-110075504D02*
X144599446Y-110075504D01*
X144599446Y-110075504D02*
X144408970Y-110027885D01*
X144408970Y-110027885D02*
X144313732Y-109980266D01*
X144313732Y-109980266D02*
X144218494Y-109885028D01*
X144218494Y-109885028D02*
X144170875Y-109742171D01*
X144170875Y-109742171D02*
X144170875Y-109646933D01*
X144170875Y-109646933D02*
X144218494Y-109504076D01*
X144218494Y-109504076D02*
X144266113Y-109456457D01*
X145170875Y-108504076D02*
X145170875Y-109075504D01*
X145170875Y-108789790D02*
X144170875Y-108789790D01*
X144170875Y-108789790D02*
X144313732Y-108885028D01*
X144313732Y-108885028D02*
X144408970Y-108980266D01*
X144408970Y-108980266D02*
X144456589Y-109075504D01*
X145170875Y-107551695D02*
X145170875Y-108123123D01*
X145170875Y-107837409D02*
X144170875Y-107837409D01*
X144170875Y-107837409D02*
X144313732Y-107932647D01*
X144313732Y-107932647D02*
X144408970Y-108027885D01*
X144408970Y-108027885D02*
X144456589Y-108123123D01*
X136626933Y-78582875D02*
X136293600Y-78106684D01*
X136055505Y-78582875D02*
X136055505Y-77582875D01*
X136055505Y-77582875D02*
X136436457Y-77582875D01*
X136436457Y-77582875D02*
X136531695Y-77630494D01*
X136531695Y-77630494D02*
X136579314Y-77678113D01*
X136579314Y-77678113D02*
X136626933Y-77773351D01*
X136626933Y-77773351D02*
X136626933Y-77916208D01*
X136626933Y-77916208D02*
X136579314Y-78011446D01*
X136579314Y-78011446D02*
X136531695Y-78059065D01*
X136531695Y-78059065D02*
X136436457Y-78106684D01*
X136436457Y-78106684D02*
X136055505Y-78106684D01*
X136960267Y-77582875D02*
X137626933Y-77582875D01*
X137626933Y-77582875D02*
X137198362Y-78582875D01*
X131278095Y-37803294D02*
X131182857Y-37755675D01*
X131182857Y-37755675D02*
X131040000Y-37755675D01*
X131040000Y-37755675D02*
X130897143Y-37803294D01*
X130897143Y-37803294D02*
X130801905Y-37898532D01*
X130801905Y-37898532D02*
X130754286Y-37993770D01*
X130754286Y-37993770D02*
X130706667Y-38184246D01*
X130706667Y-38184246D02*
X130706667Y-38327103D01*
X130706667Y-38327103D02*
X130754286Y-38517579D01*
X130754286Y-38517579D02*
X130801905Y-38612817D01*
X130801905Y-38612817D02*
X130897143Y-38708056D01*
X130897143Y-38708056D02*
X131040000Y-38755675D01*
X131040000Y-38755675D02*
X131135238Y-38755675D01*
X131135238Y-38755675D02*
X131278095Y-38708056D01*
X131278095Y-38708056D02*
X131325714Y-38660436D01*
X131325714Y-38660436D02*
X131325714Y-38327103D01*
X131325714Y-38327103D02*
X131135238Y-38327103D01*
X131754286Y-38755675D02*
X131754286Y-37755675D01*
X131754286Y-37755675D02*
X132325714Y-38755675D01*
X132325714Y-38755675D02*
X132325714Y-37755675D01*
X132801905Y-38755675D02*
X132801905Y-37755675D01*
X132801905Y-37755675D02*
X133040000Y-37755675D01*
X133040000Y-37755675D02*
X133182857Y-37803294D01*
X133182857Y-37803294D02*
X133278095Y-37898532D01*
X133278095Y-37898532D02*
X133325714Y-37993770D01*
X133325714Y-37993770D02*
X133373333Y-38184246D01*
X133373333Y-38184246D02*
X133373333Y-38327103D01*
X133373333Y-38327103D02*
X133325714Y-38517579D01*
X133325714Y-38517579D02*
X133278095Y-38612817D01*
X133278095Y-38612817D02*
X133182857Y-38708056D01*
X133182857Y-38708056D02*
X133040000Y-38755675D01*
X133040000Y-38755675D02*
X132801905Y-38755675D01*
X172079724Y-134541859D02*
X172555915Y-134208526D01*
X172079724Y-133970431D02*
X173079724Y-133970431D01*
X173079724Y-133970431D02*
X173079724Y-134351383D01*
X173079724Y-134351383D02*
X173032105Y-134446621D01*
X173032105Y-134446621D02*
X172984486Y-134494240D01*
X172984486Y-134494240D02*
X172889248Y-134541859D01*
X172889248Y-134541859D02*
X172746391Y-134541859D01*
X172746391Y-134541859D02*
X172651153Y-134494240D01*
X172651153Y-134494240D02*
X172603534Y-134446621D01*
X172603534Y-134446621D02*
X172555915Y-134351383D01*
X172555915Y-134351383D02*
X172555915Y-133970431D01*
X172079724Y-134970431D02*
X173079724Y-134970431D01*
X173079724Y-134970431D02*
X173079724Y-135208526D01*
X173079724Y-135208526D02*
X173032105Y-135351383D01*
X173032105Y-135351383D02*
X172936867Y-135446621D01*
X172936867Y-135446621D02*
X172841629Y-135494240D01*
X172841629Y-135494240D02*
X172651153Y-135541859D01*
X172651153Y-135541859D02*
X172508296Y-135541859D01*
X172508296Y-135541859D02*
X172317820Y-135494240D01*
X172317820Y-135494240D02*
X172222582Y-135446621D01*
X172222582Y-135446621D02*
X172127344Y-135351383D01*
X172127344Y-135351383D02*
X172079724Y-135208526D01*
X172079724Y-135208526D02*
X172079724Y-134970431D01*
X172603534Y-136303764D02*
X172603534Y-135970431D01*
X172079724Y-135970431D02*
X173079724Y-135970431D01*
X173079724Y-135970431D02*
X173079724Y-136446621D01*
X173079724Y-136970431D02*
X172841629Y-136970431D01*
X172936867Y-136732336D02*
X172841629Y-136970431D01*
X172841629Y-136970431D02*
X172936867Y-137208526D01*
X172651153Y-136827574D02*
X172841629Y-136970431D01*
X172841629Y-136970431D02*
X172651153Y-137113288D01*
X173079724Y-137732336D02*
X172841629Y-137732336D01*
X172936867Y-137494241D02*
X172841629Y-137732336D01*
X172841629Y-137732336D02*
X172936867Y-137970431D01*
X172651153Y-137589479D02*
X172841629Y-137732336D01*
X172841629Y-137732336D02*
X172651153Y-137875193D01*
X145402705Y-83053275D02*
X145402705Y-82053275D01*
X145402705Y-82053275D02*
X145640800Y-82053275D01*
X145640800Y-82053275D02*
X145783657Y-82100894D01*
X145783657Y-82100894D02*
X145878895Y-82196132D01*
X145878895Y-82196132D02*
X145926514Y-82291370D01*
X145926514Y-82291370D02*
X145974133Y-82481846D01*
X145974133Y-82481846D02*
X145974133Y-82624703D01*
X145974133Y-82624703D02*
X145926514Y-82815179D01*
X145926514Y-82815179D02*
X145878895Y-82910417D01*
X145878895Y-82910417D02*
X145783657Y-83005656D01*
X145783657Y-83005656D02*
X145640800Y-83053275D01*
X145640800Y-83053275D02*
X145402705Y-83053275D01*
X146878895Y-82053275D02*
X146402705Y-82053275D01*
X146402705Y-82053275D02*
X146355086Y-82529465D01*
X146355086Y-82529465D02*
X146402705Y-82481846D01*
X146402705Y-82481846D02*
X146497943Y-82434227D01*
X146497943Y-82434227D02*
X146736038Y-82434227D01*
X146736038Y-82434227D02*
X146831276Y-82481846D01*
X146831276Y-82481846D02*
X146878895Y-82529465D01*
X146878895Y-82529465D02*
X146926514Y-82624703D01*
X146926514Y-82624703D02*
X146926514Y-82862798D01*
X146926514Y-82862798D02*
X146878895Y-82958036D01*
X146878895Y-82958036D02*
X146831276Y-83005656D01*
X146831276Y-83005656D02*
X146736038Y-83053275D01*
X146736038Y-83053275D02*
X146497943Y-83053275D01*
X146497943Y-83053275D02*
X146402705Y-83005656D01*
X146402705Y-83005656D02*
X146355086Y-82958036D01*
X177373333Y-73909275D02*
X177040000Y-73433084D01*
X176801905Y-73909275D02*
X176801905Y-72909275D01*
X176801905Y-72909275D02*
X177182857Y-72909275D01*
X177182857Y-72909275D02*
X177278095Y-72956894D01*
X177278095Y-72956894D02*
X177325714Y-73004513D01*
X177325714Y-73004513D02*
X177373333Y-73099751D01*
X177373333Y-73099751D02*
X177373333Y-73242608D01*
X177373333Y-73242608D02*
X177325714Y-73337846D01*
X177325714Y-73337846D02*
X177278095Y-73385465D01*
X177278095Y-73385465D02*
X177182857Y-73433084D01*
X177182857Y-73433084D02*
X176801905Y-73433084D01*
X178230476Y-72909275D02*
X178040000Y-72909275D01*
X178040000Y-72909275D02*
X177944762Y-72956894D01*
X177944762Y-72956894D02*
X177897143Y-73004513D01*
X177897143Y-73004513D02*
X177801905Y-73147370D01*
X177801905Y-73147370D02*
X177754286Y-73337846D01*
X177754286Y-73337846D02*
X177754286Y-73718798D01*
X177754286Y-73718798D02*
X177801905Y-73814036D01*
X177801905Y-73814036D02*
X177849524Y-73861656D01*
X177849524Y-73861656D02*
X177944762Y-73909275D01*
X177944762Y-73909275D02*
X178135238Y-73909275D01*
X178135238Y-73909275D02*
X178230476Y-73861656D01*
X178230476Y-73861656D02*
X178278095Y-73814036D01*
X178278095Y-73814036D02*
X178325714Y-73718798D01*
X178325714Y-73718798D02*
X178325714Y-73480703D01*
X178325714Y-73480703D02*
X178278095Y-73385465D01*
X178278095Y-73385465D02*
X178230476Y-73337846D01*
X178230476Y-73337846D02*
X178135238Y-73290227D01*
X178135238Y-73290227D02*
X177944762Y-73290227D01*
X177944762Y-73290227D02*
X177849524Y-73337846D01*
X177849524Y-73337846D02*
X177801905Y-73385465D01*
X177801905Y-73385465D02*
X177754286Y-73480703D01*
X157385333Y-76642936D02*
X157337714Y-76690556D01*
X157337714Y-76690556D02*
X157194857Y-76738175D01*
X157194857Y-76738175D02*
X157099619Y-76738175D01*
X157099619Y-76738175D02*
X156956762Y-76690556D01*
X156956762Y-76690556D02*
X156861524Y-76595317D01*
X156861524Y-76595317D02*
X156813905Y-76500079D01*
X156813905Y-76500079D02*
X156766286Y-76309603D01*
X156766286Y-76309603D02*
X156766286Y-76166746D01*
X156766286Y-76166746D02*
X156813905Y-75976270D01*
X156813905Y-75976270D02*
X156861524Y-75881032D01*
X156861524Y-75881032D02*
X156956762Y-75785794D01*
X156956762Y-75785794D02*
X157099619Y-75738175D01*
X157099619Y-75738175D02*
X157194857Y-75738175D01*
X157194857Y-75738175D02*
X157337714Y-75785794D01*
X157337714Y-75785794D02*
X157385333Y-75833413D01*
X158242476Y-75738175D02*
X158052000Y-75738175D01*
X158052000Y-75738175D02*
X157956762Y-75785794D01*
X157956762Y-75785794D02*
X157909143Y-75833413D01*
X157909143Y-75833413D02*
X157813905Y-75976270D01*
X157813905Y-75976270D02*
X157766286Y-76166746D01*
X157766286Y-76166746D02*
X157766286Y-76547698D01*
X157766286Y-76547698D02*
X157813905Y-76642936D01*
X157813905Y-76642936D02*
X157861524Y-76690556D01*
X157861524Y-76690556D02*
X157956762Y-76738175D01*
X157956762Y-76738175D02*
X158147238Y-76738175D01*
X158147238Y-76738175D02*
X158242476Y-76690556D01*
X158242476Y-76690556D02*
X158290095Y-76642936D01*
X158290095Y-76642936D02*
X158337714Y-76547698D01*
X158337714Y-76547698D02*
X158337714Y-76309603D01*
X158337714Y-76309603D02*
X158290095Y-76214365D01*
X158290095Y-76214365D02*
X158242476Y-76166746D01*
X158242476Y-76166746D02*
X158147238Y-76119127D01*
X158147238Y-76119127D02*
X157956762Y-76119127D01*
X157956762Y-76119127D02*
X157861524Y-76166746D01*
X157861524Y-76166746D02*
X157813905Y-76214365D01*
X157813905Y-76214365D02*
X157766286Y-76309603D01*
X136626933Y-80818075D02*
X136293600Y-80341884D01*
X136055505Y-80818075D02*
X136055505Y-79818075D01*
X136055505Y-79818075D02*
X136436457Y-79818075D01*
X136436457Y-79818075D02*
X136531695Y-79865694D01*
X136531695Y-79865694D02*
X136579314Y-79913313D01*
X136579314Y-79913313D02*
X136626933Y-80008551D01*
X136626933Y-80008551D02*
X136626933Y-80151408D01*
X136626933Y-80151408D02*
X136579314Y-80246646D01*
X136579314Y-80246646D02*
X136531695Y-80294265D01*
X136531695Y-80294265D02*
X136436457Y-80341884D01*
X136436457Y-80341884D02*
X136055505Y-80341884D01*
X137103124Y-80818075D02*
X137293600Y-80818075D01*
X137293600Y-80818075D02*
X137388838Y-80770456D01*
X137388838Y-80770456D02*
X137436457Y-80722836D01*
X137436457Y-80722836D02*
X137531695Y-80579979D01*
X137531695Y-80579979D02*
X137579314Y-80389503D01*
X137579314Y-80389503D02*
X137579314Y-80008551D01*
X137579314Y-80008551D02*
X137531695Y-79913313D01*
X137531695Y-79913313D02*
X137484076Y-79865694D01*
X137484076Y-79865694D02*
X137388838Y-79818075D01*
X137388838Y-79818075D02*
X137198362Y-79818075D01*
X137198362Y-79818075D02*
X137103124Y-79865694D01*
X137103124Y-79865694D02*
X137055505Y-79913313D01*
X137055505Y-79913313D02*
X137007886Y-80008551D01*
X137007886Y-80008551D02*
X137007886Y-80246646D01*
X137007886Y-80246646D02*
X137055505Y-80341884D01*
X137055505Y-80341884D02*
X137103124Y-80389503D01*
X137103124Y-80389503D02*
X137198362Y-80437122D01*
X137198362Y-80437122D02*
X137388838Y-80437122D01*
X137388838Y-80437122D02*
X137484076Y-80389503D01*
X137484076Y-80389503D02*
X137531695Y-80341884D01*
X137531695Y-80341884D02*
X137579314Y-80246646D01*
X158813905Y-115768475D02*
X158813905Y-114768475D01*
X158813905Y-114768475D02*
X159052000Y-114768475D01*
X159052000Y-114768475D02*
X159194857Y-114816094D01*
X159194857Y-114816094D02*
X159290095Y-114911332D01*
X159290095Y-114911332D02*
X159337714Y-115006570D01*
X159337714Y-115006570D02*
X159385333Y-115197046D01*
X159385333Y-115197046D02*
X159385333Y-115339903D01*
X159385333Y-115339903D02*
X159337714Y-115530379D01*
X159337714Y-115530379D02*
X159290095Y-115625617D01*
X159290095Y-115625617D02*
X159194857Y-115720856D01*
X159194857Y-115720856D02*
X159052000Y-115768475D01*
X159052000Y-115768475D02*
X158813905Y-115768475D01*
X160337714Y-115768475D02*
X159766286Y-115768475D01*
X160052000Y-115768475D02*
X160052000Y-114768475D01*
X160052000Y-114768475D02*
X159956762Y-114911332D01*
X159956762Y-114911332D02*
X159861524Y-115006570D01*
X159861524Y-115006570D02*
X159766286Y-115054189D01*
X151989257Y-96138856D02*
X152132114Y-96186475D01*
X152132114Y-96186475D02*
X152370209Y-96186475D01*
X152370209Y-96186475D02*
X152465447Y-96138856D01*
X152465447Y-96138856D02*
X152513066Y-96091236D01*
X152513066Y-96091236D02*
X152560685Y-95995998D01*
X152560685Y-95995998D02*
X152560685Y-95900760D01*
X152560685Y-95900760D02*
X152513066Y-95805522D01*
X152513066Y-95805522D02*
X152465447Y-95757903D01*
X152465447Y-95757903D02*
X152370209Y-95710284D01*
X152370209Y-95710284D02*
X152179733Y-95662665D01*
X152179733Y-95662665D02*
X152084495Y-95615046D01*
X152084495Y-95615046D02*
X152036876Y-95567427D01*
X152036876Y-95567427D02*
X151989257Y-95472189D01*
X151989257Y-95472189D02*
X151989257Y-95376951D01*
X151989257Y-95376951D02*
X152036876Y-95281713D01*
X152036876Y-95281713D02*
X152084495Y-95234094D01*
X152084495Y-95234094D02*
X152179733Y-95186475D01*
X152179733Y-95186475D02*
X152417828Y-95186475D01*
X152417828Y-95186475D02*
X152560685Y-95234094D01*
X152894019Y-95186475D02*
X153132114Y-96186475D01*
X153132114Y-96186475D02*
X153322590Y-95472189D01*
X153322590Y-95472189D02*
X153513066Y-96186475D01*
X153513066Y-96186475D02*
X153751162Y-95186475D01*
X166365095Y-71221475D02*
X166365095Y-72030998D01*
X166365095Y-72030998D02*
X166412714Y-72126236D01*
X166412714Y-72126236D02*
X166460333Y-72173856D01*
X166460333Y-72173856D02*
X166555571Y-72221475D01*
X166555571Y-72221475D02*
X166746047Y-72221475D01*
X166746047Y-72221475D02*
X166841285Y-72173856D01*
X166841285Y-72173856D02*
X166888904Y-72126236D01*
X166888904Y-72126236D02*
X166936523Y-72030998D01*
X166936523Y-72030998D02*
X166936523Y-71221475D01*
X167317476Y-71221475D02*
X167984142Y-71221475D01*
X167984142Y-71221475D02*
X167555571Y-72221475D01*
X150145905Y-72394275D02*
X150145905Y-73203798D01*
X150145905Y-73203798D02*
X150193524Y-73299036D01*
X150193524Y-73299036D02*
X150241143Y-73346656D01*
X150241143Y-73346656D02*
X150336381Y-73394275D01*
X150336381Y-73394275D02*
X150526857Y-73394275D01*
X150526857Y-73394275D02*
X150622095Y-73346656D01*
X150622095Y-73346656D02*
X150669714Y-73299036D01*
X150669714Y-73299036D02*
X150717333Y-73203798D01*
X150717333Y-73203798D02*
X150717333Y-72394275D01*
X151717333Y-73394275D02*
X151145905Y-73394275D01*
X151431619Y-73394275D02*
X151431619Y-72394275D01*
X151431619Y-72394275D02*
X151336381Y-72537132D01*
X151336381Y-72537132D02*
X151241143Y-72632370D01*
X151241143Y-72632370D02*
X151145905Y-72679989D01*
X152098286Y-72489513D02*
X152145905Y-72441894D01*
X152145905Y-72441894D02*
X152241143Y-72394275D01*
X152241143Y-72394275D02*
X152479238Y-72394275D01*
X152479238Y-72394275D02*
X152574476Y-72441894D01*
X152574476Y-72441894D02*
X152622095Y-72489513D01*
X152622095Y-72489513D02*
X152669714Y-72584751D01*
X152669714Y-72584751D02*
X152669714Y-72679989D01*
X152669714Y-72679989D02*
X152622095Y-72822846D01*
X152622095Y-72822846D02*
X152050667Y-73394275D01*
X152050667Y-73394275D02*
X152669714Y-73394275D01*
X173812533Y-75033236D02*
X173764914Y-75080856D01*
X173764914Y-75080856D02*
X173622057Y-75128475D01*
X173622057Y-75128475D02*
X173526819Y-75128475D01*
X173526819Y-75128475D02*
X173383962Y-75080856D01*
X173383962Y-75080856D02*
X173288724Y-74985617D01*
X173288724Y-74985617D02*
X173241105Y-74890379D01*
X173241105Y-74890379D02*
X173193486Y-74699903D01*
X173193486Y-74699903D02*
X173193486Y-74557046D01*
X173193486Y-74557046D02*
X173241105Y-74366570D01*
X173241105Y-74366570D02*
X173288724Y-74271332D01*
X173288724Y-74271332D02*
X173383962Y-74176094D01*
X173383962Y-74176094D02*
X173526819Y-74128475D01*
X173526819Y-74128475D02*
X173622057Y-74128475D01*
X173622057Y-74128475D02*
X173764914Y-74176094D01*
X173764914Y-74176094D02*
X173812533Y-74223713D01*
X174193486Y-75080856D02*
X174336343Y-75128475D01*
X174336343Y-75128475D02*
X174574438Y-75128475D01*
X174574438Y-75128475D02*
X174669676Y-75080856D01*
X174669676Y-75080856D02*
X174717295Y-75033236D01*
X174717295Y-75033236D02*
X174764914Y-74937998D01*
X174764914Y-74937998D02*
X174764914Y-74842760D01*
X174764914Y-74842760D02*
X174717295Y-74747522D01*
X174717295Y-74747522D02*
X174669676Y-74699903D01*
X174669676Y-74699903D02*
X174574438Y-74652284D01*
X174574438Y-74652284D02*
X174383962Y-74604665D01*
X174383962Y-74604665D02*
X174288724Y-74557046D01*
X174288724Y-74557046D02*
X174241105Y-74509427D01*
X174241105Y-74509427D02*
X174193486Y-74414189D01*
X174193486Y-74414189D02*
X174193486Y-74318951D01*
X174193486Y-74318951D02*
X174241105Y-74223713D01*
X174241105Y-74223713D02*
X174288724Y-74176094D01*
X174288724Y-74176094D02*
X174383962Y-74128475D01*
X174383962Y-74128475D02*
X174622057Y-74128475D01*
X174622057Y-74128475D02*
X174764914Y-74176094D01*
X174142475Y-88826857D02*
X173666284Y-89160190D01*
X174142475Y-89398285D02*
X173142475Y-89398285D01*
X173142475Y-89398285D02*
X173142475Y-89017333D01*
X173142475Y-89017333D02*
X173190094Y-88922095D01*
X173190094Y-88922095D02*
X173237713Y-88874476D01*
X173237713Y-88874476D02*
X173332951Y-88826857D01*
X173332951Y-88826857D02*
X173475808Y-88826857D01*
X173475808Y-88826857D02*
X173571046Y-88874476D01*
X173571046Y-88874476D02*
X173618665Y-88922095D01*
X173618665Y-88922095D02*
X173666284Y-89017333D01*
X173666284Y-89017333D02*
X173666284Y-89398285D01*
X174142475Y-87874476D02*
X174142475Y-88445904D01*
X174142475Y-88160190D02*
X173142475Y-88160190D01*
X173142475Y-88160190D02*
X173285332Y-88255428D01*
X173285332Y-88255428D02*
X173380570Y-88350666D01*
X173380570Y-88350666D02*
X173428189Y-88445904D01*
X173142475Y-87541142D02*
X173142475Y-86874476D01*
X173142475Y-86874476D02*
X174142475Y-87303047D01*
X146111095Y-71221475D02*
X146111095Y-72030998D01*
X146111095Y-72030998D02*
X146158714Y-72126236D01*
X146158714Y-72126236D02*
X146206333Y-72173856D01*
X146206333Y-72173856D02*
X146301571Y-72221475D01*
X146301571Y-72221475D02*
X146492047Y-72221475D01*
X146492047Y-72221475D02*
X146587285Y-72173856D01*
X146587285Y-72173856D02*
X146634904Y-72126236D01*
X146634904Y-72126236D02*
X146682523Y-72030998D01*
X146682523Y-72030998D02*
X146682523Y-71221475D01*
X147301571Y-71650046D02*
X147206333Y-71602427D01*
X147206333Y-71602427D02*
X147158714Y-71554808D01*
X147158714Y-71554808D02*
X147111095Y-71459570D01*
X147111095Y-71459570D02*
X147111095Y-71411951D01*
X147111095Y-71411951D02*
X147158714Y-71316713D01*
X147158714Y-71316713D02*
X147206333Y-71269094D01*
X147206333Y-71269094D02*
X147301571Y-71221475D01*
X147301571Y-71221475D02*
X147492047Y-71221475D01*
X147492047Y-71221475D02*
X147587285Y-71269094D01*
X147587285Y-71269094D02*
X147634904Y-71316713D01*
X147634904Y-71316713D02*
X147682523Y-71411951D01*
X147682523Y-71411951D02*
X147682523Y-71459570D01*
X147682523Y-71459570D02*
X147634904Y-71554808D01*
X147634904Y-71554808D02*
X147587285Y-71602427D01*
X147587285Y-71602427D02*
X147492047Y-71650046D01*
X147492047Y-71650046D02*
X147301571Y-71650046D01*
X147301571Y-71650046D02*
X147206333Y-71697665D01*
X147206333Y-71697665D02*
X147158714Y-71745284D01*
X147158714Y-71745284D02*
X147111095Y-71840522D01*
X147111095Y-71840522D02*
X147111095Y-72030998D01*
X147111095Y-72030998D02*
X147158714Y-72126236D01*
X147158714Y-72126236D02*
X147206333Y-72173856D01*
X147206333Y-72173856D02*
X147301571Y-72221475D01*
X147301571Y-72221475D02*
X147492047Y-72221475D01*
X147492047Y-72221475D02*
X147587285Y-72173856D01*
X147587285Y-72173856D02*
X147634904Y-72126236D01*
X147634904Y-72126236D02*
X147682523Y-72030998D01*
X147682523Y-72030998D02*
X147682523Y-71840522D01*
X147682523Y-71840522D02*
X147634904Y-71745284D01*
X147634904Y-71745284D02*
X147587285Y-71697665D01*
X147587285Y-71697665D02*
X147492047Y-71650046D01*
X156032380Y-104752582D02*
X156032380Y-105780677D01*
X156032380Y-105780677D02*
X156092857Y-105901629D01*
X156092857Y-105901629D02*
X156153333Y-105962106D01*
X156153333Y-105962106D02*
X156274285Y-106022582D01*
X156274285Y-106022582D02*
X156516190Y-106022582D01*
X156516190Y-106022582D02*
X156637142Y-105962106D01*
X156637142Y-105962106D02*
X156697619Y-105901629D01*
X156697619Y-105901629D02*
X156758095Y-105780677D01*
X156758095Y-105780677D02*
X156758095Y-104752582D01*
X157907142Y-104752582D02*
X157665237Y-104752582D01*
X157665237Y-104752582D02*
X157544285Y-104813058D01*
X157544285Y-104813058D02*
X157483809Y-104873534D01*
X157483809Y-104873534D02*
X157362856Y-105054963D01*
X157362856Y-105054963D02*
X157302380Y-105296867D01*
X157302380Y-105296867D02*
X157302380Y-105780677D01*
X157302380Y-105780677D02*
X157362856Y-105901629D01*
X157362856Y-105901629D02*
X157423333Y-105962106D01*
X157423333Y-105962106D02*
X157544285Y-106022582D01*
X157544285Y-106022582D02*
X157786190Y-106022582D01*
X157786190Y-106022582D02*
X157907142Y-105962106D01*
X157907142Y-105962106D02*
X157967618Y-105901629D01*
X157967618Y-105901629D02*
X158028095Y-105780677D01*
X158028095Y-105780677D02*
X158028095Y-105478296D01*
X158028095Y-105478296D02*
X157967618Y-105357344D01*
X157967618Y-105357344D02*
X157907142Y-105296867D01*
X157907142Y-105296867D02*
X157786190Y-105236391D01*
X157786190Y-105236391D02*
X157544285Y-105236391D01*
X157544285Y-105236391D02*
X157423333Y-105296867D01*
X157423333Y-105296867D02*
X157362856Y-105357344D01*
X157362856Y-105357344D02*
X157302380Y-105478296D01*
X134807675Y-40774857D02*
X134331484Y-41108190D01*
X134807675Y-41346285D02*
X133807675Y-41346285D01*
X133807675Y-41346285D02*
X133807675Y-40965333D01*
X133807675Y-40965333D02*
X133855294Y-40870095D01*
X133855294Y-40870095D02*
X133902913Y-40822476D01*
X133902913Y-40822476D02*
X133998151Y-40774857D01*
X133998151Y-40774857D02*
X134141008Y-40774857D01*
X134141008Y-40774857D02*
X134236246Y-40822476D01*
X134236246Y-40822476D02*
X134283865Y-40870095D01*
X134283865Y-40870095D02*
X134331484Y-40965333D01*
X134331484Y-40965333D02*
X134331484Y-41346285D01*
X133902913Y-40393904D02*
X133855294Y-40346285D01*
X133855294Y-40346285D02*
X133807675Y-40251047D01*
X133807675Y-40251047D02*
X133807675Y-40012952D01*
X133807675Y-40012952D02*
X133855294Y-39917714D01*
X133855294Y-39917714D02*
X133902913Y-39870095D01*
X133902913Y-39870095D02*
X133998151Y-39822476D01*
X133998151Y-39822476D02*
X134093389Y-39822476D01*
X134093389Y-39822476D02*
X134236246Y-39870095D01*
X134236246Y-39870095D02*
X134807675Y-40441523D01*
X134807675Y-40441523D02*
X134807675Y-39822476D01*
X134807675Y-38870095D02*
X134807675Y-39441523D01*
X134807675Y-39155809D02*
X133807675Y-39155809D01*
X133807675Y-39155809D02*
X133950532Y-39251047D01*
X133950532Y-39251047D02*
X134045770Y-39346285D01*
X134045770Y-39346285D02*
X134093389Y-39441523D01*
X143200761Y-130290913D02*
X143105523Y-130243294D01*
X143105523Y-130243294D02*
X143010285Y-130148056D01*
X143010285Y-130148056D02*
X142867428Y-130005198D01*
X142867428Y-130005198D02*
X142772190Y-129957579D01*
X142772190Y-129957579D02*
X142676952Y-129957579D01*
X142724571Y-130195675D02*
X142629333Y-130148056D01*
X142629333Y-130148056D02*
X142534095Y-130052817D01*
X142534095Y-130052817D02*
X142486476Y-129862341D01*
X142486476Y-129862341D02*
X142486476Y-129529008D01*
X142486476Y-129529008D02*
X142534095Y-129338532D01*
X142534095Y-129338532D02*
X142629333Y-129243294D01*
X142629333Y-129243294D02*
X142724571Y-129195675D01*
X142724571Y-129195675D02*
X142915047Y-129195675D01*
X142915047Y-129195675D02*
X143010285Y-129243294D01*
X143010285Y-129243294D02*
X143105523Y-129338532D01*
X143105523Y-129338532D02*
X143153142Y-129529008D01*
X143153142Y-129529008D02*
X143153142Y-129862341D01*
X143153142Y-129862341D02*
X143105523Y-130052817D01*
X143105523Y-130052817D02*
X143010285Y-130148056D01*
X143010285Y-130148056D02*
X142915047Y-130195675D01*
X142915047Y-130195675D02*
X142724571Y-130195675D01*
X143534095Y-129290913D02*
X143581714Y-129243294D01*
X143581714Y-129243294D02*
X143676952Y-129195675D01*
X143676952Y-129195675D02*
X143915047Y-129195675D01*
X143915047Y-129195675D02*
X144010285Y-129243294D01*
X144010285Y-129243294D02*
X144057904Y-129290913D01*
X144057904Y-129290913D02*
X144105523Y-129386151D01*
X144105523Y-129386151D02*
X144105523Y-129481389D01*
X144105523Y-129481389D02*
X144057904Y-129624246D01*
X144057904Y-129624246D02*
X143486476Y-130195675D01*
X143486476Y-130195675D02*
X144105523Y-130195675D01*
X157337475Y-58859657D02*
X156861284Y-59192990D01*
X157337475Y-59431085D02*
X156337475Y-59431085D01*
X156337475Y-59431085D02*
X156337475Y-59050133D01*
X156337475Y-59050133D02*
X156385094Y-58954895D01*
X156385094Y-58954895D02*
X156432713Y-58907276D01*
X156432713Y-58907276D02*
X156527951Y-58859657D01*
X156527951Y-58859657D02*
X156670808Y-58859657D01*
X156670808Y-58859657D02*
X156766046Y-58907276D01*
X156766046Y-58907276D02*
X156813665Y-58954895D01*
X156813665Y-58954895D02*
X156861284Y-59050133D01*
X156861284Y-59050133D02*
X156861284Y-59431085D01*
X157337475Y-57907276D02*
X157337475Y-58478704D01*
X157337475Y-58192990D02*
X156337475Y-58192990D01*
X156337475Y-58192990D02*
X156480332Y-58288228D01*
X156480332Y-58288228D02*
X156575570Y-58383466D01*
X156575570Y-58383466D02*
X156623189Y-58478704D01*
X156766046Y-57335847D02*
X156718427Y-57431085D01*
X156718427Y-57431085D02*
X156670808Y-57478704D01*
X156670808Y-57478704D02*
X156575570Y-57526323D01*
X156575570Y-57526323D02*
X156527951Y-57526323D01*
X156527951Y-57526323D02*
X156432713Y-57478704D01*
X156432713Y-57478704D02*
X156385094Y-57431085D01*
X156385094Y-57431085D02*
X156337475Y-57335847D01*
X156337475Y-57335847D02*
X156337475Y-57145371D01*
X156337475Y-57145371D02*
X156385094Y-57050133D01*
X156385094Y-57050133D02*
X156432713Y-57002514D01*
X156432713Y-57002514D02*
X156527951Y-56954895D01*
X156527951Y-56954895D02*
X156575570Y-56954895D01*
X156575570Y-56954895D02*
X156670808Y-57002514D01*
X156670808Y-57002514D02*
X156718427Y-57050133D01*
X156718427Y-57050133D02*
X156766046Y-57145371D01*
X156766046Y-57145371D02*
X156766046Y-57335847D01*
X156766046Y-57335847D02*
X156813665Y-57431085D01*
X156813665Y-57431085D02*
X156861284Y-57478704D01*
X156861284Y-57478704D02*
X156956522Y-57526323D01*
X156956522Y-57526323D02*
X157146998Y-57526323D01*
X157146998Y-57526323D02*
X157242236Y-57478704D01*
X157242236Y-57478704D02*
X157289856Y-57431085D01*
X157289856Y-57431085D02*
X157337475Y-57335847D01*
X157337475Y-57335847D02*
X157337475Y-57145371D01*
X157337475Y-57145371D02*
X157289856Y-57050133D01*
X157289856Y-57050133D02*
X157242236Y-57002514D01*
X157242236Y-57002514D02*
X157146998Y-56954895D01*
X157146998Y-56954895D02*
X156956522Y-56954895D01*
X156956522Y-56954895D02*
X156861284Y-57002514D01*
X156861284Y-57002514D02*
X156813665Y-57050133D01*
X156813665Y-57050133D02*
X156766046Y-57145371D01*
X134102836Y-65971657D02*
X134150456Y-66019276D01*
X134150456Y-66019276D02*
X134198075Y-66162133D01*
X134198075Y-66162133D02*
X134198075Y-66257371D01*
X134198075Y-66257371D02*
X134150456Y-66400228D01*
X134150456Y-66400228D02*
X134055217Y-66495466D01*
X134055217Y-66495466D02*
X133959979Y-66543085D01*
X133959979Y-66543085D02*
X133769503Y-66590704D01*
X133769503Y-66590704D02*
X133626646Y-66590704D01*
X133626646Y-66590704D02*
X133436170Y-66543085D01*
X133436170Y-66543085D02*
X133340932Y-66495466D01*
X133340932Y-66495466D02*
X133245694Y-66400228D01*
X133245694Y-66400228D02*
X133198075Y-66257371D01*
X133198075Y-66257371D02*
X133198075Y-66162133D01*
X133198075Y-66162133D02*
X133245694Y-66019276D01*
X133245694Y-66019276D02*
X133293313Y-65971657D01*
X134198075Y-65019276D02*
X134198075Y-65590704D01*
X134198075Y-65304990D02*
X133198075Y-65304990D01*
X133198075Y-65304990D02*
X133340932Y-65400228D01*
X133340932Y-65400228D02*
X133436170Y-65495466D01*
X133436170Y-65495466D02*
X133483789Y-65590704D01*
X133531408Y-64162133D02*
X134198075Y-64162133D01*
X133150456Y-64400228D02*
X133864741Y-64638323D01*
X133864741Y-64638323D02*
X133864741Y-64019276D01*
X135744342Y-83053275D02*
X135411009Y-82577084D01*
X135172914Y-83053275D02*
X135172914Y-82053275D01*
X135172914Y-82053275D02*
X135553866Y-82053275D01*
X135553866Y-82053275D02*
X135649104Y-82100894D01*
X135649104Y-82100894D02*
X135696723Y-82148513D01*
X135696723Y-82148513D02*
X135744342Y-82243751D01*
X135744342Y-82243751D02*
X135744342Y-82386608D01*
X135744342Y-82386608D02*
X135696723Y-82481846D01*
X135696723Y-82481846D02*
X135649104Y-82529465D01*
X135649104Y-82529465D02*
X135553866Y-82577084D01*
X135553866Y-82577084D02*
X135172914Y-82577084D01*
X136696723Y-83053275D02*
X136125295Y-83053275D01*
X136411009Y-83053275D02*
X136411009Y-82053275D01*
X136411009Y-82053275D02*
X136315771Y-82196132D01*
X136315771Y-82196132D02*
X136220533Y-82291370D01*
X136220533Y-82291370D02*
X136125295Y-82338989D01*
X137315771Y-82053275D02*
X137411009Y-82053275D01*
X137411009Y-82053275D02*
X137506247Y-82100894D01*
X137506247Y-82100894D02*
X137553866Y-82148513D01*
X137553866Y-82148513D02*
X137601485Y-82243751D01*
X137601485Y-82243751D02*
X137649104Y-82434227D01*
X137649104Y-82434227D02*
X137649104Y-82672322D01*
X137649104Y-82672322D02*
X137601485Y-82862798D01*
X137601485Y-82862798D02*
X137553866Y-82958036D01*
X137553866Y-82958036D02*
X137506247Y-83005656D01*
X137506247Y-83005656D02*
X137411009Y-83053275D01*
X137411009Y-83053275D02*
X137315771Y-83053275D01*
X137315771Y-83053275D02*
X137220533Y-83005656D01*
X137220533Y-83005656D02*
X137172914Y-82958036D01*
X137172914Y-82958036D02*
X137125295Y-82862798D01*
X137125295Y-82862798D02*
X137077676Y-82672322D01*
X137077676Y-82672322D02*
X137077676Y-82434227D01*
X137077676Y-82434227D02*
X137125295Y-82243751D01*
X137125295Y-82243751D02*
X137172914Y-82148513D01*
X137172914Y-82148513D02*
X137220533Y-82100894D01*
X137220533Y-82100894D02*
X137315771Y-82053275D01*
X161565105Y-72394275D02*
X161565105Y-73203798D01*
X161565105Y-73203798D02*
X161612724Y-73299036D01*
X161612724Y-73299036D02*
X161660343Y-73346656D01*
X161660343Y-73346656D02*
X161755581Y-73394275D01*
X161755581Y-73394275D02*
X161946057Y-73394275D01*
X161946057Y-73394275D02*
X162041295Y-73346656D01*
X162041295Y-73346656D02*
X162088914Y-73299036D01*
X162088914Y-73299036D02*
X162136533Y-73203798D01*
X162136533Y-73203798D02*
X162136533Y-72394275D01*
X163136533Y-73394275D02*
X162565105Y-73394275D01*
X162850819Y-73394275D02*
X162850819Y-72394275D01*
X162850819Y-72394275D02*
X162755581Y-72537132D01*
X162755581Y-72537132D02*
X162660343Y-72632370D01*
X162660343Y-72632370D02*
X162565105Y-72679989D01*
X164088914Y-73394275D02*
X163517486Y-73394275D01*
X163803200Y-73394275D02*
X163803200Y-72394275D01*
X163803200Y-72394275D02*
X163707962Y-72537132D01*
X163707962Y-72537132D02*
X163612724Y-72632370D01*
X163612724Y-72632370D02*
X163517486Y-72679989D01*
X172117142Y-95854875D02*
X171783809Y-95378684D01*
X171545714Y-95854875D02*
X171545714Y-94854875D01*
X171545714Y-94854875D02*
X171926666Y-94854875D01*
X171926666Y-94854875D02*
X172021904Y-94902494D01*
X172021904Y-94902494D02*
X172069523Y-94950113D01*
X172069523Y-94950113D02*
X172117142Y-95045351D01*
X172117142Y-95045351D02*
X172117142Y-95188208D01*
X172117142Y-95188208D02*
X172069523Y-95283446D01*
X172069523Y-95283446D02*
X172021904Y-95331065D01*
X172021904Y-95331065D02*
X171926666Y-95378684D01*
X171926666Y-95378684D02*
X171545714Y-95378684D01*
X173069523Y-95854875D02*
X172498095Y-95854875D01*
X172783809Y-95854875D02*
X172783809Y-94854875D01*
X172783809Y-94854875D02*
X172688571Y-94997732D01*
X172688571Y-94997732D02*
X172593333Y-95092970D01*
X172593333Y-95092970D02*
X172498095Y-95140589D01*
X173926666Y-94854875D02*
X173736190Y-94854875D01*
X173736190Y-94854875D02*
X173640952Y-94902494D01*
X173640952Y-94902494D02*
X173593333Y-94950113D01*
X173593333Y-94950113D02*
X173498095Y-95092970D01*
X173498095Y-95092970D02*
X173450476Y-95283446D01*
X173450476Y-95283446D02*
X173450476Y-95664398D01*
X173450476Y-95664398D02*
X173498095Y-95759636D01*
X173498095Y-95759636D02*
X173545714Y-95807256D01*
X173545714Y-95807256D02*
X173640952Y-95854875D01*
X173640952Y-95854875D02*
X173831428Y-95854875D01*
X173831428Y-95854875D02*
X173926666Y-95807256D01*
X173926666Y-95807256D02*
X173974285Y-95759636D01*
X173974285Y-95759636D02*
X174021904Y-95664398D01*
X174021904Y-95664398D02*
X174021904Y-95426303D01*
X174021904Y-95426303D02*
X173974285Y-95331065D01*
X173974285Y-95331065D02*
X173926666Y-95283446D01*
X173926666Y-95283446D02*
X173831428Y-95235827D01*
X173831428Y-95235827D02*
X173640952Y-95235827D01*
X173640952Y-95235827D02*
X173545714Y-95283446D01*
X173545714Y-95283446D02*
X173498095Y-95331065D01*
X173498095Y-95331065D02*
X173450476Y-95426303D01*
X167873333Y-114346075D02*
X167540000Y-113869884D01*
X167301905Y-114346075D02*
X167301905Y-113346075D01*
X167301905Y-113346075D02*
X167682857Y-113346075D01*
X167682857Y-113346075D02*
X167778095Y-113393694D01*
X167778095Y-113393694D02*
X167825714Y-113441313D01*
X167825714Y-113441313D02*
X167873333Y-113536551D01*
X167873333Y-113536551D02*
X167873333Y-113679408D01*
X167873333Y-113679408D02*
X167825714Y-113774646D01*
X167825714Y-113774646D02*
X167778095Y-113822265D01*
X167778095Y-113822265D02*
X167682857Y-113869884D01*
X167682857Y-113869884D02*
X167301905Y-113869884D01*
X168206667Y-113346075D02*
X168873333Y-114346075D01*
X168873333Y-113346075D02*
X168206667Y-114346075D01*
X169254286Y-114346075D02*
X169254286Y-113346075D01*
X169254286Y-113346075D02*
X169492381Y-113346075D01*
X169492381Y-113346075D02*
X169635238Y-113393694D01*
X169635238Y-113393694D02*
X169730476Y-113488932D01*
X169730476Y-113488932D02*
X169778095Y-113584170D01*
X169778095Y-113584170D02*
X169825714Y-113774646D01*
X169825714Y-113774646D02*
X169825714Y-113917503D01*
X169825714Y-113917503D02*
X169778095Y-114107979D01*
X169778095Y-114107979D02*
X169730476Y-114203217D01*
X169730476Y-114203217D02*
X169635238Y-114298456D01*
X169635238Y-114298456D02*
X169492381Y-114346075D01*
X169492381Y-114346075D02*
X169254286Y-114346075D01*
X134198075Y-61501257D02*
X133721884Y-61834590D01*
X134198075Y-62072685D02*
X133198075Y-62072685D01*
X133198075Y-62072685D02*
X133198075Y-61691733D01*
X133198075Y-61691733D02*
X133245694Y-61596495D01*
X133245694Y-61596495D02*
X133293313Y-61548876D01*
X133293313Y-61548876D02*
X133388551Y-61501257D01*
X133388551Y-61501257D02*
X133531408Y-61501257D01*
X133531408Y-61501257D02*
X133626646Y-61548876D01*
X133626646Y-61548876D02*
X133674265Y-61596495D01*
X133674265Y-61596495D02*
X133721884Y-61691733D01*
X133721884Y-61691733D02*
X133721884Y-62072685D01*
X134198075Y-60548876D02*
X134198075Y-61120304D01*
X134198075Y-60834590D02*
X133198075Y-60834590D01*
X133198075Y-60834590D02*
X133340932Y-60929828D01*
X133340932Y-60929828D02*
X133436170Y-61025066D01*
X133436170Y-61025066D02*
X133483789Y-61120304D01*
X134198075Y-60072685D02*
X134198075Y-59882209D01*
X134198075Y-59882209D02*
X134150456Y-59786971D01*
X134150456Y-59786971D02*
X134102836Y-59739352D01*
X134102836Y-59739352D02*
X133959979Y-59644114D01*
X133959979Y-59644114D02*
X133769503Y-59596495D01*
X133769503Y-59596495D02*
X133388551Y-59596495D01*
X133388551Y-59596495D02*
X133293313Y-59644114D01*
X133293313Y-59644114D02*
X133245694Y-59691733D01*
X133245694Y-59691733D02*
X133198075Y-59786971D01*
X133198075Y-59786971D02*
X133198075Y-59977447D01*
X133198075Y-59977447D02*
X133245694Y-60072685D01*
X133245694Y-60072685D02*
X133293313Y-60120304D01*
X133293313Y-60120304D02*
X133388551Y-60167923D01*
X133388551Y-60167923D02*
X133626646Y-60167923D01*
X133626646Y-60167923D02*
X133721884Y-60120304D01*
X133721884Y-60120304D02*
X133769503Y-60072685D01*
X133769503Y-60072685D02*
X133817122Y-59977447D01*
X133817122Y-59977447D02*
X133817122Y-59786971D01*
X133817122Y-59786971D02*
X133769503Y-59691733D01*
X133769503Y-59691733D02*
X133721884Y-59644114D01*
X133721884Y-59644114D02*
X133626646Y-59596495D01*
X152654095Y-76160475D02*
X152654095Y-76969998D01*
X152654095Y-76969998D02*
X152701714Y-77065236D01*
X152701714Y-77065236D02*
X152749333Y-77112856D01*
X152749333Y-77112856D02*
X152844571Y-77160475D01*
X152844571Y-77160475D02*
X153035047Y-77160475D01*
X153035047Y-77160475D02*
X153130285Y-77112856D01*
X153130285Y-77112856D02*
X153177904Y-77065236D01*
X153177904Y-77065236D02*
X153225523Y-76969998D01*
X153225523Y-76969998D02*
X153225523Y-76160475D01*
X154177904Y-76160475D02*
X153701714Y-76160475D01*
X153701714Y-76160475D02*
X153654095Y-76636665D01*
X153654095Y-76636665D02*
X153701714Y-76589046D01*
X153701714Y-76589046D02*
X153796952Y-76541427D01*
X153796952Y-76541427D02*
X154035047Y-76541427D01*
X154035047Y-76541427D02*
X154130285Y-76589046D01*
X154130285Y-76589046D02*
X154177904Y-76636665D01*
X154177904Y-76636665D02*
X154225523Y-76731903D01*
X154225523Y-76731903D02*
X154225523Y-76969998D01*
X154225523Y-76969998D02*
X154177904Y-77065236D01*
X154177904Y-77065236D02*
X154130285Y-77112856D01*
X154130285Y-77112856D02*
X154035047Y-77160475D01*
X154035047Y-77160475D02*
X153796952Y-77160475D01*
X153796952Y-77160475D02*
X153701714Y-77112856D01*
X153701714Y-77112856D02*
X153654095Y-77065236D01*
X145142475Y-101326857D02*
X144666284Y-101660190D01*
X145142475Y-101898285D02*
X144142475Y-101898285D01*
X144142475Y-101898285D02*
X144142475Y-101517333D01*
X144142475Y-101517333D02*
X144190094Y-101422095D01*
X144190094Y-101422095D02*
X144237713Y-101374476D01*
X144237713Y-101374476D02*
X144332951Y-101326857D01*
X144332951Y-101326857D02*
X144475808Y-101326857D01*
X144475808Y-101326857D02*
X144571046Y-101374476D01*
X144571046Y-101374476D02*
X144618665Y-101422095D01*
X144618665Y-101422095D02*
X144666284Y-101517333D01*
X144666284Y-101517333D02*
X144666284Y-101898285D01*
X145142475Y-100374476D02*
X145142475Y-100945904D01*
X145142475Y-100660190D02*
X144142475Y-100660190D01*
X144142475Y-100660190D02*
X144285332Y-100755428D01*
X144285332Y-100755428D02*
X144380570Y-100850666D01*
X144380570Y-100850666D02*
X144428189Y-100945904D01*
X144237713Y-99993523D02*
X144190094Y-99945904D01*
X144190094Y-99945904D02*
X144142475Y-99850666D01*
X144142475Y-99850666D02*
X144142475Y-99612571D01*
X144142475Y-99612571D02*
X144190094Y-99517333D01*
X144190094Y-99517333D02*
X144237713Y-99469714D01*
X144237713Y-99469714D02*
X144332951Y-99422095D01*
X144332951Y-99422095D02*
X144428189Y-99422095D01*
X144428189Y-99422095D02*
X144571046Y-99469714D01*
X144571046Y-99469714D02*
X145142475Y-100041142D01*
X145142475Y-100041142D02*
X145142475Y-99422095D01*
X130544038Y-121483522D02*
X131305943Y-121483522D01*
X130924990Y-121864475D02*
X130924990Y-121102570D01*
X132258323Y-120864475D02*
X131782133Y-120864475D01*
X131782133Y-120864475D02*
X131734514Y-121340665D01*
X131734514Y-121340665D02*
X131782133Y-121293046D01*
X131782133Y-121293046D02*
X131877371Y-121245427D01*
X131877371Y-121245427D02*
X132115466Y-121245427D01*
X132115466Y-121245427D02*
X132210704Y-121293046D01*
X132210704Y-121293046D02*
X132258323Y-121340665D01*
X132258323Y-121340665D02*
X132305942Y-121435903D01*
X132305942Y-121435903D02*
X132305942Y-121673998D01*
X132305942Y-121673998D02*
X132258323Y-121769236D01*
X132258323Y-121769236D02*
X132210704Y-121816856D01*
X132210704Y-121816856D02*
X132115466Y-121864475D01*
X132115466Y-121864475D02*
X131877371Y-121864475D01*
X131877371Y-121864475D02*
X131782133Y-121816856D01*
X131782133Y-121816856D02*
X131734514Y-121769236D01*
X132591657Y-120864475D02*
X132924990Y-121864475D01*
X132924990Y-121864475D02*
X133258323Y-120864475D01*
X133591657Y-121483522D02*
X134353562Y-121483522D01*
X134829752Y-120864475D02*
X134829752Y-121673998D01*
X134829752Y-121673998D02*
X134877371Y-121769236D01*
X134877371Y-121769236D02*
X134924990Y-121816856D01*
X134924990Y-121816856D02*
X135020228Y-121864475D01*
X135020228Y-121864475D02*
X135210704Y-121864475D01*
X135210704Y-121864475D02*
X135305942Y-121816856D01*
X135305942Y-121816856D02*
X135353561Y-121769236D01*
X135353561Y-121769236D02*
X135401180Y-121673998D01*
X135401180Y-121673998D02*
X135401180Y-120864475D01*
X135829752Y-121816856D02*
X135972609Y-121864475D01*
X135972609Y-121864475D02*
X136210704Y-121864475D01*
X136210704Y-121864475D02*
X136305942Y-121816856D01*
X136305942Y-121816856D02*
X136353561Y-121769236D01*
X136353561Y-121769236D02*
X136401180Y-121673998D01*
X136401180Y-121673998D02*
X136401180Y-121578760D01*
X136401180Y-121578760D02*
X136353561Y-121483522D01*
X136353561Y-121483522D02*
X136305942Y-121435903D01*
X136305942Y-121435903D02*
X136210704Y-121388284D01*
X136210704Y-121388284D02*
X136020228Y-121340665D01*
X136020228Y-121340665D02*
X135924990Y-121293046D01*
X135924990Y-121293046D02*
X135877371Y-121245427D01*
X135877371Y-121245427D02*
X135829752Y-121150189D01*
X135829752Y-121150189D02*
X135829752Y-121054951D01*
X135829752Y-121054951D02*
X135877371Y-120959713D01*
X135877371Y-120959713D02*
X135924990Y-120912094D01*
X135924990Y-120912094D02*
X136020228Y-120864475D01*
X136020228Y-120864475D02*
X136258323Y-120864475D01*
X136258323Y-120864475D02*
X136401180Y-120912094D01*
X137163085Y-121340665D02*
X137305942Y-121388284D01*
X137305942Y-121388284D02*
X137353561Y-121435903D01*
X137353561Y-121435903D02*
X137401180Y-121531141D01*
X137401180Y-121531141D02*
X137401180Y-121673998D01*
X137401180Y-121673998D02*
X137353561Y-121769236D01*
X137353561Y-121769236D02*
X137305942Y-121816856D01*
X137305942Y-121816856D02*
X137210704Y-121864475D01*
X137210704Y-121864475D02*
X136829752Y-121864475D01*
X136829752Y-121864475D02*
X136829752Y-120864475D01*
X136829752Y-120864475D02*
X137163085Y-120864475D01*
X137163085Y-120864475D02*
X137258323Y-120912094D01*
X137258323Y-120912094D02*
X137305942Y-120959713D01*
X137305942Y-120959713D02*
X137353561Y-121054951D01*
X137353561Y-121054951D02*
X137353561Y-121150189D01*
X137353561Y-121150189D02*
X137305942Y-121245427D01*
X137305942Y-121245427D02*
X137258323Y-121293046D01*
X137258323Y-121293046D02*
X137163085Y-121340665D01*
X137163085Y-121340665D02*
X136829752Y-121340665D01*
X170381236Y-84002666D02*
X170428856Y-84050285D01*
X170428856Y-84050285D02*
X170476475Y-84193142D01*
X170476475Y-84193142D02*
X170476475Y-84288380D01*
X170476475Y-84288380D02*
X170428856Y-84431237D01*
X170428856Y-84431237D02*
X170333617Y-84526475D01*
X170333617Y-84526475D02*
X170238379Y-84574094D01*
X170238379Y-84574094D02*
X170047903Y-84621713D01*
X170047903Y-84621713D02*
X169905046Y-84621713D01*
X169905046Y-84621713D02*
X169714570Y-84574094D01*
X169714570Y-84574094D02*
X169619332Y-84526475D01*
X169619332Y-84526475D02*
X169524094Y-84431237D01*
X169524094Y-84431237D02*
X169476475Y-84288380D01*
X169476475Y-84288380D02*
X169476475Y-84193142D01*
X169476475Y-84193142D02*
X169524094Y-84050285D01*
X169524094Y-84050285D02*
X169571713Y-84002666D01*
X170476475Y-83526475D02*
X170476475Y-83335999D01*
X170476475Y-83335999D02*
X170428856Y-83240761D01*
X170428856Y-83240761D02*
X170381236Y-83193142D01*
X170381236Y-83193142D02*
X170238379Y-83097904D01*
X170238379Y-83097904D02*
X170047903Y-83050285D01*
X170047903Y-83050285D02*
X169666951Y-83050285D01*
X169666951Y-83050285D02*
X169571713Y-83097904D01*
X169571713Y-83097904D02*
X169524094Y-83145523D01*
X169524094Y-83145523D02*
X169476475Y-83240761D01*
X169476475Y-83240761D02*
X169476475Y-83431237D01*
X169476475Y-83431237D02*
X169524094Y-83526475D01*
X169524094Y-83526475D02*
X169571713Y-83574094D01*
X169571713Y-83574094D02*
X169666951Y-83621713D01*
X169666951Y-83621713D02*
X169905046Y-83621713D01*
X169905046Y-83621713D02*
X170000284Y-83574094D01*
X170000284Y-83574094D02*
X170047903Y-83526475D01*
X170047903Y-83526475D02*
X170095522Y-83431237D01*
X170095522Y-83431237D02*
X170095522Y-83240761D01*
X170095522Y-83240761D02*
X170047903Y-83145523D01*
X170047903Y-83145523D02*
X170000284Y-83097904D01*
X170000284Y-83097904D02*
X169905046Y-83050285D01*
X136055505Y-127757275D02*
X136055505Y-126757275D01*
X136055505Y-126757275D02*
X136293600Y-126757275D01*
X136293600Y-126757275D02*
X136436457Y-126804894D01*
X136436457Y-126804894D02*
X136531695Y-126900132D01*
X136531695Y-126900132D02*
X136579314Y-126995370D01*
X136579314Y-126995370D02*
X136626933Y-127185846D01*
X136626933Y-127185846D02*
X136626933Y-127328703D01*
X136626933Y-127328703D02*
X136579314Y-127519179D01*
X136579314Y-127519179D02*
X136531695Y-127614417D01*
X136531695Y-127614417D02*
X136436457Y-127709656D01*
X136436457Y-127709656D02*
X136293600Y-127757275D01*
X136293600Y-127757275D02*
X136055505Y-127757275D01*
X137007886Y-126852513D02*
X137055505Y-126804894D01*
X137055505Y-126804894D02*
X137150743Y-126757275D01*
X137150743Y-126757275D02*
X137388838Y-126757275D01*
X137388838Y-126757275D02*
X137484076Y-126804894D01*
X137484076Y-126804894D02*
X137531695Y-126852513D01*
X137531695Y-126852513D02*
X137579314Y-126947751D01*
X137579314Y-126947751D02*
X137579314Y-127042989D01*
X137579314Y-127042989D02*
X137531695Y-127185846D01*
X137531695Y-127185846D02*
X136960267Y-127757275D01*
X136960267Y-127757275D02*
X137579314Y-127757275D01*
X157566075Y-37320457D02*
X157089884Y-37653790D01*
X157566075Y-37891885D02*
X156566075Y-37891885D01*
X156566075Y-37891885D02*
X156566075Y-37510933D01*
X156566075Y-37510933D02*
X156613694Y-37415695D01*
X156613694Y-37415695D02*
X156661313Y-37368076D01*
X156661313Y-37368076D02*
X156756551Y-37320457D01*
X156756551Y-37320457D02*
X156899408Y-37320457D01*
X156899408Y-37320457D02*
X156994646Y-37368076D01*
X156994646Y-37368076D02*
X157042265Y-37415695D01*
X157042265Y-37415695D02*
X157089884Y-37510933D01*
X157089884Y-37510933D02*
X157089884Y-37891885D01*
X156661313Y-36939504D02*
X156613694Y-36891885D01*
X156613694Y-36891885D02*
X156566075Y-36796647D01*
X156566075Y-36796647D02*
X156566075Y-36558552D01*
X156566075Y-36558552D02*
X156613694Y-36463314D01*
X156613694Y-36463314D02*
X156661313Y-36415695D01*
X156661313Y-36415695D02*
X156756551Y-36368076D01*
X156756551Y-36368076D02*
X156851789Y-36368076D01*
X156851789Y-36368076D02*
X156994646Y-36415695D01*
X156994646Y-36415695D02*
X157566075Y-36987123D01*
X157566075Y-36987123D02*
X157566075Y-36368076D01*
X156566075Y-35749028D02*
X156566075Y-35653790D01*
X156566075Y-35653790D02*
X156613694Y-35558552D01*
X156613694Y-35558552D02*
X156661313Y-35510933D01*
X156661313Y-35510933D02*
X156756551Y-35463314D01*
X156756551Y-35463314D02*
X156947027Y-35415695D01*
X156947027Y-35415695D02*
X157185122Y-35415695D01*
X157185122Y-35415695D02*
X157375598Y-35463314D01*
X157375598Y-35463314D02*
X157470836Y-35510933D01*
X157470836Y-35510933D02*
X157518456Y-35558552D01*
X157518456Y-35558552D02*
X157566075Y-35653790D01*
X157566075Y-35653790D02*
X157566075Y-35749028D01*
X157566075Y-35749028D02*
X157518456Y-35844266D01*
X157518456Y-35844266D02*
X157470836Y-35891885D01*
X157470836Y-35891885D02*
X157375598Y-35939504D01*
X157375598Y-35939504D02*
X157185122Y-35987123D01*
X157185122Y-35987123D02*
X156947027Y-35987123D01*
X156947027Y-35987123D02*
X156756551Y-35939504D01*
X156756551Y-35939504D02*
X156661313Y-35891885D01*
X156661313Y-35891885D02*
X156613694Y-35844266D01*
X156613694Y-35844266D02*
X156566075Y-35749028D01*
X134509236Y-45042057D02*
X134556856Y-45089676D01*
X134556856Y-45089676D02*
X134604475Y-45232533D01*
X134604475Y-45232533D02*
X134604475Y-45327771D01*
X134604475Y-45327771D02*
X134556856Y-45470628D01*
X134556856Y-45470628D02*
X134461617Y-45565866D01*
X134461617Y-45565866D02*
X134366379Y-45613485D01*
X134366379Y-45613485D02*
X134175903Y-45661104D01*
X134175903Y-45661104D02*
X134033046Y-45661104D01*
X134033046Y-45661104D02*
X133842570Y-45613485D01*
X133842570Y-45613485D02*
X133747332Y-45565866D01*
X133747332Y-45565866D02*
X133652094Y-45470628D01*
X133652094Y-45470628D02*
X133604475Y-45327771D01*
X133604475Y-45327771D02*
X133604475Y-45232533D01*
X133604475Y-45232533D02*
X133652094Y-45089676D01*
X133652094Y-45089676D02*
X133699713Y-45042057D01*
X134604475Y-44089676D02*
X134604475Y-44661104D01*
X134604475Y-44375390D02*
X133604475Y-44375390D01*
X133604475Y-44375390D02*
X133747332Y-44470628D01*
X133747332Y-44470628D02*
X133842570Y-44565866D01*
X133842570Y-44565866D02*
X133890189Y-44661104D01*
X133604475Y-43232533D02*
X133604475Y-43423009D01*
X133604475Y-43423009D02*
X133652094Y-43518247D01*
X133652094Y-43518247D02*
X133699713Y-43565866D01*
X133699713Y-43565866D02*
X133842570Y-43661104D01*
X133842570Y-43661104D02*
X134033046Y-43708723D01*
X134033046Y-43708723D02*
X134413998Y-43708723D01*
X134413998Y-43708723D02*
X134509236Y-43661104D01*
X134509236Y-43661104D02*
X134556856Y-43613485D01*
X134556856Y-43613485D02*
X134604475Y-43518247D01*
X134604475Y-43518247D02*
X134604475Y-43327771D01*
X134604475Y-43327771D02*
X134556856Y-43232533D01*
X134556856Y-43232533D02*
X134509236Y-43184914D01*
X134509236Y-43184914D02*
X134413998Y-43137295D01*
X134413998Y-43137295D02*
X134175903Y-43137295D01*
X134175903Y-43137295D02*
X134080665Y-43184914D01*
X134080665Y-43184914D02*
X134033046Y-43232533D01*
X134033046Y-43232533D02*
X133985427Y-43327771D01*
X133985427Y-43327771D02*
X133985427Y-43518247D01*
X133985427Y-43518247D02*
X134033046Y-43613485D01*
X134033046Y-43613485D02*
X134080665Y-43661104D01*
X134080665Y-43661104D02*
X134175903Y-43708723D01*
X139481275Y-86221866D02*
X139005084Y-86555199D01*
X139481275Y-86793294D02*
X138481275Y-86793294D01*
X138481275Y-86793294D02*
X138481275Y-86412342D01*
X138481275Y-86412342D02*
X138528894Y-86317104D01*
X138528894Y-86317104D02*
X138576513Y-86269485D01*
X138576513Y-86269485D02*
X138671751Y-86221866D01*
X138671751Y-86221866D02*
X138814608Y-86221866D01*
X138814608Y-86221866D02*
X138909846Y-86269485D01*
X138909846Y-86269485D02*
X138957465Y-86317104D01*
X138957465Y-86317104D02*
X139005084Y-86412342D01*
X139005084Y-86412342D02*
X139005084Y-86793294D01*
X138909846Y-85650437D02*
X138862227Y-85745675D01*
X138862227Y-85745675D02*
X138814608Y-85793294D01*
X138814608Y-85793294D02*
X138719370Y-85840913D01*
X138719370Y-85840913D02*
X138671751Y-85840913D01*
X138671751Y-85840913D02*
X138576513Y-85793294D01*
X138576513Y-85793294D02*
X138528894Y-85745675D01*
X138528894Y-85745675D02*
X138481275Y-85650437D01*
X138481275Y-85650437D02*
X138481275Y-85459961D01*
X138481275Y-85459961D02*
X138528894Y-85364723D01*
X138528894Y-85364723D02*
X138576513Y-85317104D01*
X138576513Y-85317104D02*
X138671751Y-85269485D01*
X138671751Y-85269485D02*
X138719370Y-85269485D01*
X138719370Y-85269485D02*
X138814608Y-85317104D01*
X138814608Y-85317104D02*
X138862227Y-85364723D01*
X138862227Y-85364723D02*
X138909846Y-85459961D01*
X138909846Y-85459961D02*
X138909846Y-85650437D01*
X138909846Y-85650437D02*
X138957465Y-85745675D01*
X138957465Y-85745675D02*
X139005084Y-85793294D01*
X139005084Y-85793294D02*
X139100322Y-85840913D01*
X139100322Y-85840913D02*
X139290798Y-85840913D01*
X139290798Y-85840913D02*
X139386036Y-85793294D01*
X139386036Y-85793294D02*
X139433656Y-85745675D01*
X139433656Y-85745675D02*
X139481275Y-85650437D01*
X139481275Y-85650437D02*
X139481275Y-85459961D01*
X139481275Y-85459961D02*
X139433656Y-85364723D01*
X139433656Y-85364723D02*
X139386036Y-85317104D01*
X139386036Y-85317104D02*
X139290798Y-85269485D01*
X139290798Y-85269485D02*
X139100322Y-85269485D01*
X139100322Y-85269485D02*
X139005084Y-85317104D01*
X139005084Y-85317104D02*
X138957465Y-85364723D01*
X138957465Y-85364723D02*
X138909846Y-85459961D01*
X132278095Y-96934494D02*
X132182857Y-96886875D01*
X132182857Y-96886875D02*
X132040000Y-96886875D01*
X132040000Y-96886875D02*
X131897143Y-96934494D01*
X131897143Y-96934494D02*
X131801905Y-97029732D01*
X131801905Y-97029732D02*
X131754286Y-97124970D01*
X131754286Y-97124970D02*
X131706667Y-97315446D01*
X131706667Y-97315446D02*
X131706667Y-97458303D01*
X131706667Y-97458303D02*
X131754286Y-97648779D01*
X131754286Y-97648779D02*
X131801905Y-97744017D01*
X131801905Y-97744017D02*
X131897143Y-97839256D01*
X131897143Y-97839256D02*
X132040000Y-97886875D01*
X132040000Y-97886875D02*
X132135238Y-97886875D01*
X132135238Y-97886875D02*
X132278095Y-97839256D01*
X132278095Y-97839256D02*
X132325714Y-97791636D01*
X132325714Y-97791636D02*
X132325714Y-97458303D01*
X132325714Y-97458303D02*
X132135238Y-97458303D01*
X132754286Y-97886875D02*
X132754286Y-96886875D01*
X132754286Y-96886875D02*
X133325714Y-97886875D01*
X133325714Y-97886875D02*
X133325714Y-96886875D01*
X133801905Y-97886875D02*
X133801905Y-96886875D01*
X133801905Y-96886875D02*
X134040000Y-96886875D01*
X134040000Y-96886875D02*
X134182857Y-96934494D01*
X134182857Y-96934494D02*
X134278095Y-97029732D01*
X134278095Y-97029732D02*
X134325714Y-97124970D01*
X134325714Y-97124970D02*
X134373333Y-97315446D01*
X134373333Y-97315446D02*
X134373333Y-97458303D01*
X134373333Y-97458303D02*
X134325714Y-97648779D01*
X134325714Y-97648779D02*
X134278095Y-97744017D01*
X134278095Y-97744017D02*
X134182857Y-97839256D01*
X134182857Y-97839256D02*
X134040000Y-97886875D01*
X134040000Y-97886875D02*
X133801905Y-97886875D01*
X180682857Y-122162665D02*
X180825714Y-122210284D01*
X180825714Y-122210284D02*
X180873333Y-122257903D01*
X180873333Y-122257903D02*
X180920952Y-122353141D01*
X180920952Y-122353141D02*
X180920952Y-122495998D01*
X180920952Y-122495998D02*
X180873333Y-122591236D01*
X180873333Y-122591236D02*
X180825714Y-122638856D01*
X180825714Y-122638856D02*
X180730476Y-122686475D01*
X180730476Y-122686475D02*
X180349524Y-122686475D01*
X180349524Y-122686475D02*
X180349524Y-121686475D01*
X180349524Y-121686475D02*
X180682857Y-121686475D01*
X180682857Y-121686475D02*
X180778095Y-121734094D01*
X180778095Y-121734094D02*
X180825714Y-121781713D01*
X180825714Y-121781713D02*
X180873333Y-121876951D01*
X180873333Y-121876951D02*
X180873333Y-121972189D01*
X180873333Y-121972189D02*
X180825714Y-122067427D01*
X180825714Y-122067427D02*
X180778095Y-122115046D01*
X180778095Y-122115046D02*
X180682857Y-122162665D01*
X180682857Y-122162665D02*
X180349524Y-122162665D01*
X181301905Y-122400760D02*
X181778095Y-122400760D01*
X181206667Y-122686475D02*
X181540000Y-121686475D01*
X181540000Y-121686475D02*
X181873333Y-122686475D01*
X182063810Y-121686475D02*
X182635238Y-121686475D01*
X182349524Y-122686475D02*
X182349524Y-121686475D01*
X182968572Y-122305522D02*
X183730477Y-122305522D01*
X183349524Y-122686475D02*
X183349524Y-121924570D01*
X180546857Y-126605865D02*
X180689714Y-126653484D01*
X180689714Y-126653484D02*
X180737333Y-126701103D01*
X180737333Y-126701103D02*
X180784952Y-126796341D01*
X180784952Y-126796341D02*
X180784952Y-126939198D01*
X180784952Y-126939198D02*
X180737333Y-127034436D01*
X180737333Y-127034436D02*
X180689714Y-127082056D01*
X180689714Y-127082056D02*
X180594476Y-127129675D01*
X180594476Y-127129675D02*
X180213524Y-127129675D01*
X180213524Y-127129675D02*
X180213524Y-126129675D01*
X180213524Y-126129675D02*
X180546857Y-126129675D01*
X180546857Y-126129675D02*
X180642095Y-126177294D01*
X180642095Y-126177294D02*
X180689714Y-126224913D01*
X180689714Y-126224913D02*
X180737333Y-126320151D01*
X180737333Y-126320151D02*
X180737333Y-126415389D01*
X180737333Y-126415389D02*
X180689714Y-126510627D01*
X180689714Y-126510627D02*
X180642095Y-126558246D01*
X180642095Y-126558246D02*
X180546857Y-126605865D01*
X180546857Y-126605865D02*
X180213524Y-126605865D01*
X181165905Y-126843960D02*
X181642095Y-126843960D01*
X181070667Y-127129675D02*
X181404000Y-126129675D01*
X181404000Y-126129675D02*
X181737333Y-127129675D01*
X181927810Y-126129675D02*
X182499238Y-126129675D01*
X182213524Y-127129675D02*
X182213524Y-126129675D01*
X182832572Y-126748722D02*
X183594477Y-126748722D01*
X164871733Y-95150036D02*
X164824114Y-95197656D01*
X164824114Y-95197656D02*
X164681257Y-95245275D01*
X164681257Y-95245275D02*
X164586019Y-95245275D01*
X164586019Y-95245275D02*
X164443162Y-95197656D01*
X164443162Y-95197656D02*
X164347924Y-95102417D01*
X164347924Y-95102417D02*
X164300305Y-95007179D01*
X164300305Y-95007179D02*
X164252686Y-94816703D01*
X164252686Y-94816703D02*
X164252686Y-94673846D01*
X164252686Y-94673846D02*
X164300305Y-94483370D01*
X164300305Y-94483370D02*
X164347924Y-94388132D01*
X164347924Y-94388132D02*
X164443162Y-94292894D01*
X164443162Y-94292894D02*
X164586019Y-94245275D01*
X164586019Y-94245275D02*
X164681257Y-94245275D01*
X164681257Y-94245275D02*
X164824114Y-94292894D01*
X164824114Y-94292894D02*
X164871733Y-94340513D01*
X165205067Y-94245275D02*
X165871733Y-94245275D01*
X165871733Y-94245275D02*
X165443162Y-95245275D01*
X168953372Y-75128475D02*
X168953372Y-74128475D01*
X168953372Y-74128475D02*
X169286705Y-74842760D01*
X169286705Y-74842760D02*
X169620038Y-74128475D01*
X169620038Y-74128475D02*
X169620038Y-75128475D01*
X170286705Y-74128475D02*
X170477181Y-74128475D01*
X170477181Y-74128475D02*
X170572419Y-74176094D01*
X170572419Y-74176094D02*
X170667657Y-74271332D01*
X170667657Y-74271332D02*
X170715276Y-74461808D01*
X170715276Y-74461808D02*
X170715276Y-74795141D01*
X170715276Y-74795141D02*
X170667657Y-74985617D01*
X170667657Y-74985617D02*
X170572419Y-75080856D01*
X170572419Y-75080856D02*
X170477181Y-75128475D01*
X170477181Y-75128475D02*
X170286705Y-75128475D01*
X170286705Y-75128475D02*
X170191467Y-75080856D01*
X170191467Y-75080856D02*
X170096229Y-74985617D01*
X170096229Y-74985617D02*
X170048610Y-74795141D01*
X170048610Y-74795141D02*
X170048610Y-74461808D01*
X170048610Y-74461808D02*
X170096229Y-74271332D01*
X170096229Y-74271332D02*
X170191467Y-74176094D01*
X170191467Y-74176094D02*
X170286705Y-74128475D01*
X171096229Y-75080856D02*
X171239086Y-75128475D01*
X171239086Y-75128475D02*
X171477181Y-75128475D01*
X171477181Y-75128475D02*
X171572419Y-75080856D01*
X171572419Y-75080856D02*
X171620038Y-75033236D01*
X171620038Y-75033236D02*
X171667657Y-74937998D01*
X171667657Y-74937998D02*
X171667657Y-74842760D01*
X171667657Y-74842760D02*
X171620038Y-74747522D01*
X171620038Y-74747522D02*
X171572419Y-74699903D01*
X171572419Y-74699903D02*
X171477181Y-74652284D01*
X171477181Y-74652284D02*
X171286705Y-74604665D01*
X171286705Y-74604665D02*
X171191467Y-74557046D01*
X171191467Y-74557046D02*
X171143848Y-74509427D01*
X171143848Y-74509427D02*
X171096229Y-74414189D01*
X171096229Y-74414189D02*
X171096229Y-74318951D01*
X171096229Y-74318951D02*
X171143848Y-74223713D01*
X171143848Y-74223713D02*
X171191467Y-74176094D01*
X171191467Y-74176094D02*
X171286705Y-74128475D01*
X171286705Y-74128475D02*
X171524800Y-74128475D01*
X171524800Y-74128475D02*
X171667657Y-74176094D01*
X172096229Y-75128475D02*
X172096229Y-74128475D01*
X163778095Y-113346075D02*
X164349523Y-113346075D01*
X164063809Y-114346075D02*
X164063809Y-113346075D01*
X164587619Y-113346075D02*
X165254285Y-114346075D01*
X165254285Y-113346075D02*
X164587619Y-114346075D01*
X165635238Y-114346075D02*
X165635238Y-113346075D01*
X165635238Y-113346075D02*
X165873333Y-113346075D01*
X165873333Y-113346075D02*
X166016190Y-113393694D01*
X166016190Y-113393694D02*
X166111428Y-113488932D01*
X166111428Y-113488932D02*
X166159047Y-113584170D01*
X166159047Y-113584170D02*
X166206666Y-113774646D01*
X166206666Y-113774646D02*
X166206666Y-113917503D01*
X166206666Y-113917503D02*
X166159047Y-114107979D01*
X166159047Y-114107979D02*
X166111428Y-114203217D01*
X166111428Y-114203217D02*
X166016190Y-114298456D01*
X166016190Y-114298456D02*
X165873333Y-114346075D01*
X165873333Y-114346075D02*
X165635238Y-114346075D01*
D12*
%TO.C,C8*%
X164778748Y-86449000D02*
X165301252Y-86449000D01*
X164778748Y-87919000D02*
X165301252Y-87919000D01*
%TO.C,D3*%
X142042400Y-77395400D02*
X142042400Y-78865400D01*
X142042400Y-78865400D02*
X144502400Y-78865400D01*
X144502400Y-77395400D02*
X142042400Y-77395400D01*
%TO.C,C12*%
X166538600Y-106839652D02*
X166538600Y-106317148D01*
X168008600Y-106839652D02*
X168008600Y-106317148D01*
%TO.C,R14*%
X142342500Y-104456936D02*
X142342500Y-104911064D01*
X143812500Y-104456936D02*
X143812500Y-104911064D01*
%TO.C,C15*%
X156378600Y-43890248D02*
X156378600Y-44412752D01*
X157848600Y-43890248D02*
X157848600Y-44412752D01*
D13*
%TO.C,SW2*%
X176713000Y-90357000D02*
X176713000Y-89357000D01*
X180063000Y-88257000D02*
X177563000Y-88257000D01*
X180063000Y-91457000D02*
X177563000Y-91457000D01*
X180913000Y-90357000D02*
X180913000Y-89357000D01*
X181713000Y-91007000D02*
G75*
G02*
X181613000Y-91007000I-50000J0D01*
G01*
X181613000Y-91007000D02*
G75*
G02*
X181713000Y-91007000I50000J0D01*
G01*
X181824803Y-91007000D02*
G75*
G02*
X181601197Y-91007000I-111803J0D01*
G01*
X181601197Y-91007000D02*
G75*
G02*
X181824803Y-91007000I111803J0D01*
G01*
D12*
%TO.C,J3*%
X175890400Y-77375000D02*
X177270400Y-77375000D01*
X175890400Y-78755000D02*
X175890400Y-77375000D01*
X175890400Y-80025000D02*
X175890400Y-85215000D01*
X175890400Y-80025000D02*
X178540400Y-80025000D01*
X175890400Y-85215000D02*
X181190400Y-85215000D01*
X178540400Y-77375000D02*
X181190400Y-77375000D01*
X178540400Y-80025000D02*
X178540400Y-77375000D01*
X181190400Y-77375000D02*
X181190400Y-85215000D01*
%TO.C,U9*%
X163267000Y-35055000D02*
X163267000Y-35320000D01*
X163267000Y-50675000D02*
X163267000Y-50410000D01*
X167127000Y-35055000D02*
X163267000Y-35055000D01*
X167127000Y-35055000D02*
X170987000Y-35055000D01*
X167127000Y-50675000D02*
X163267000Y-50675000D01*
X167127000Y-50675000D02*
X170987000Y-50675000D01*
X170987000Y-35055000D02*
X170987000Y-35320000D01*
X170987000Y-50675000D02*
X170987000Y-50410000D01*
X172179500Y-50880000D02*
X171499500Y-50880000D01*
X171839500Y-50410000D01*
X172179500Y-50880000D01*
G36*
X172179500Y-50880000D02*
G01*
X171499500Y-50880000D01*
X171839500Y-50410000D01*
X172179500Y-50880000D01*
G37*
%TO.C,R13*%
X170751864Y-108760200D02*
X170297736Y-108760200D01*
X170751864Y-110230200D02*
X170297736Y-110230200D01*
D14*
%TO.C,U14*%
X137983000Y-33554000D02*
X137983000Y-53366000D01*
X137983000Y-33554000D02*
X140523000Y-33554000D01*
X140523000Y-33554000D02*
X140523000Y-53366000D01*
X140523000Y-53366000D02*
X137983000Y-53366000D01*
X152969000Y-53366000D02*
X153003000Y-33554000D01*
X153003000Y-33554000D02*
X155543000Y-33554000D01*
X155543000Y-53366000D02*
X152969000Y-53366000D01*
X155543000Y-53366000D02*
X155543000Y-33554000D01*
X156137000Y-52440000D02*
G75*
G02*
X155937000Y-52440000I-100000J0D01*
G01*
X155937000Y-52440000D02*
G75*
G02*
X156137000Y-52440000I100000J0D01*
G01*
D12*
%TO.C,TP3*%
X168270400Y-76504800D02*
G75*
G02*
X165870400Y-76504800I-1200000J0D01*
G01*
X165870400Y-76504800D02*
G75*
G02*
X168270400Y-76504800I1200000J0D01*
G01*
%TO.C,D4*%
X142042400Y-79532400D02*
X142042400Y-81002400D01*
X142042400Y-81002400D02*
X144502400Y-81002400D01*
X144502400Y-79532400D02*
X142042400Y-79532400D01*
%TO.C,C5*%
X157805000Y-89922748D02*
X157805000Y-90445252D01*
X159275000Y-89922748D02*
X159275000Y-90445252D01*
%TO.C,U10*%
X143013000Y-35055000D02*
X143013000Y-35320000D01*
X143013000Y-50675000D02*
X143013000Y-50410000D01*
X146873000Y-35055000D02*
X143013000Y-35055000D01*
X146873000Y-35055000D02*
X150733000Y-35055000D01*
X146873000Y-50675000D02*
X143013000Y-50675000D01*
X146873000Y-50675000D02*
X150733000Y-50675000D01*
X150733000Y-35055000D02*
X150733000Y-35320000D01*
X150733000Y-50675000D02*
X150733000Y-50410000D01*
X151925500Y-50880000D02*
X151245500Y-50880000D01*
X151585500Y-50410000D01*
X151925500Y-50880000D01*
G36*
X151925500Y-50880000D02*
G01*
X151245500Y-50880000D01*
X151585500Y-50410000D01*
X151925500Y-50880000D01*
G37*
%TO.C,TP10*%
X149779200Y-93370400D02*
G75*
G02*
X147379200Y-93370400I-1200000J0D01*
G01*
X147379200Y-93370400D02*
G75*
G02*
X149779200Y-93370400I1200000J0D01*
G01*
D14*
%TO.C,U13*%
X158237000Y-33554000D02*
X158237000Y-53366000D01*
X158237000Y-33554000D02*
X160777000Y-33554000D01*
X160777000Y-33554000D02*
X160777000Y-53366000D01*
X160777000Y-53366000D02*
X158237000Y-53366000D01*
X173223000Y-53366000D02*
X173257000Y-33554000D01*
X173257000Y-33554000D02*
X175797000Y-33554000D01*
X175797000Y-53366000D02*
X173223000Y-53366000D01*
X175797000Y-53366000D02*
X175797000Y-33554000D01*
X176391000Y-52440000D02*
G75*
G02*
X176191000Y-52440000I-100000J0D01*
G01*
X176191000Y-52440000D02*
G75*
G02*
X176391000Y-52440000I100000J0D01*
G01*
D12*
%TO.C,TP6*%
X166240000Y-119184000D02*
G75*
G02*
X163840000Y-119184000I-1200000J0D01*
G01*
X163840000Y-119184000D02*
G75*
G02*
X166240000Y-119184000I1200000J0D01*
G01*
%TO.C,TP12*%
X177978400Y-112471200D02*
G75*
G02*
X175578400Y-112471200I-1200000J0D01*
G01*
X175578400Y-112471200D02*
G75*
G02*
X177978400Y-112471200I1200000J0D01*
G01*
D11*
%TO.C,LS1*%
X168184290Y-102336000D02*
G75*
G02*
X168084110Y-102336000I-50090J0D01*
G01*
X168084110Y-102336000D02*
G75*
G02*
X168184290Y-102336000I50090J0D01*
G01*
X181095200Y-102108000D02*
G75*
G02*
X168895200Y-102108000I-6100000J0D01*
G01*
X168895200Y-102108000D02*
G75*
G02*
X181095200Y-102108000I6100000J0D01*
G01*
D12*
%TO.C,Y1*%
X162190000Y-89234000D02*
X161990000Y-89234000D01*
X162190000Y-91134000D02*
X161990000Y-91134000D01*
X163090000Y-88954000D02*
X163090000Y-91414000D01*
X163090000Y-89834000D02*
X162190000Y-89234000D01*
X163090000Y-90534000D02*
X162190000Y-91134000D01*
X163090000Y-91414000D02*
X169990000Y-91414000D01*
X169990000Y-88954000D02*
X163090000Y-88954000D01*
X169990000Y-91414000D02*
X169990000Y-88954000D01*
%TO.C,R1*%
X132812936Y-126449000D02*
X133267064Y-126449000D01*
X132812936Y-127919000D02*
X133267064Y-127919000D01*
%TO.C,Q1*%
X155132000Y-117348000D02*
X155132000Y-116698000D01*
X155132000Y-117348000D02*
X155132000Y-117998000D01*
X158252000Y-117348000D02*
X158252000Y-116698000D01*
X158252000Y-117348000D02*
X158252000Y-117998000D01*
X155182000Y-118510500D02*
X154852000Y-118750500D01*
X154852000Y-118270500D01*
X155182000Y-118510500D01*
G36*
X155182000Y-118510500D02*
G01*
X154852000Y-118750500D01*
X154852000Y-118270500D01*
X155182000Y-118510500D01*
G37*
%TO.C,Q3*%
X173040000Y-90624000D02*
X172390000Y-90624000D01*
X173040000Y-90624000D02*
X173690000Y-90624000D01*
X173040000Y-93744000D02*
X172390000Y-93744000D01*
X173040000Y-93744000D02*
X173690000Y-93744000D01*
X171877500Y-90674000D02*
X171637500Y-90344000D01*
X172117500Y-90344000D01*
X171877500Y-90674000D01*
G36*
X171877500Y-90674000D02*
G01*
X171637500Y-90344000D01*
X172117500Y-90344000D01*
X171877500Y-90674000D01*
G37*
%TO.C,C13*%
X156150000Y-65281248D02*
X156150000Y-65803752D01*
X157620000Y-65281248D02*
X157620000Y-65803752D01*
%TO.C,TP9*%
X147240000Y-106184000D02*
G75*
G02*
X144840000Y-106184000I-1200000J0D01*
G01*
X144840000Y-106184000D02*
G75*
G02*
X147240000Y-106184000I1200000J0D01*
G01*
%TO.C,R11*%
X156305000Y-94411064D02*
X156305000Y-93956936D01*
X157775000Y-94411064D02*
X157775000Y-93956936D01*
%TO.C,R15*%
X166538600Y-110890664D02*
X166538600Y-110436536D01*
X168008600Y-110890664D02*
X168008600Y-110436536D01*
%TO.C,TP13*%
X143073600Y-131775200D02*
G75*
G02*
X140673600Y-131775200I-1200000J0D01*
G01*
X140673600Y-131775200D02*
G75*
G02*
X143073600Y-131775200I1200000J0D01*
G01*
%TO.C,C10*%
X154805000Y-89922748D02*
X154805000Y-90445252D01*
X156275000Y-89922748D02*
X156275000Y-90445252D01*
%TO.C,TP15*%
X181478400Y-112471200D02*
G75*
G02*
X179078400Y-112471200I-1200000J0D01*
G01*
X179078400Y-112471200D02*
G75*
G02*
X181478400Y-112471200I1200000J0D01*
G01*
%TO.C,C11*%
X142342500Y-108422748D02*
X142342500Y-108945252D01*
X143812500Y-108422748D02*
X143812500Y-108945252D01*
%TO.C,R7*%
X139740464Y-77395400D02*
X139286336Y-77395400D01*
X139740464Y-78865400D02*
X139286336Y-78865400D01*
%TO.C,TP8*%
X133240000Y-40684000D02*
G75*
G02*
X130840000Y-40684000I-1200000J0D01*
G01*
X130840000Y-40684000D02*
G75*
G02*
X133240000Y-40684000I1200000J0D01*
G01*
D15*
%TO.C,U2*%
X145332800Y-121143200D02*
X171332800Y-121143200D01*
X145332800Y-125743200D02*
X149832800Y-125743200D01*
X145332800Y-138343200D02*
X145332800Y-121143200D01*
X149832800Y-125743200D02*
X149832800Y-133743200D01*
X149832800Y-133743200D02*
X145332800Y-133743200D01*
X171332800Y-121143200D02*
X171332800Y-138343200D01*
X171332800Y-138343200D02*
X145332800Y-138343200D01*
D12*
%TO.C,D5*%
X142042400Y-81895400D02*
X142042400Y-83365400D01*
X142042400Y-83365400D02*
X144502400Y-83365400D01*
X144502400Y-81895400D02*
X142042400Y-81895400D01*
%TO.C,R6*%
X177767064Y-74449000D02*
X177312936Y-74449000D01*
X177767064Y-75919000D02*
X177312936Y-75919000D01*
%TO.C,C6*%
X160278748Y-75449000D02*
X160801252Y-75449000D01*
X160278748Y-76919000D02*
X160801252Y-76919000D01*
%TO.C,R9*%
X139740464Y-79532400D02*
X139286336Y-79532400D01*
X139740464Y-81002400D02*
X139286336Y-81002400D01*
%TO.C,D1*%
X159984000Y-117348000D02*
X159984000Y-116698000D01*
X159984000Y-117348000D02*
X159984000Y-117998000D01*
X163104000Y-117348000D02*
X163104000Y-116698000D01*
X163104000Y-117348000D02*
X163104000Y-117998000D01*
X160034000Y-118510500D02*
X159704000Y-118750500D01*
X159704000Y-118270500D01*
X160034000Y-118510500D01*
G36*
X160034000Y-118510500D02*
G01*
X159704000Y-118750500D01*
X159704000Y-118270500D01*
X160034000Y-118510500D01*
G37*
%TO.C,TP11*%
X154046400Y-93684000D02*
G75*
G02*
X151646400Y-93684000I-1200000J0D01*
G01*
X151646400Y-93684000D02*
G75*
G02*
X154046400Y-93684000I1200000J0D01*
G01*
%TO.C,U7*%
X163267000Y-55309000D02*
X163267000Y-55574000D01*
X163267000Y-70929000D02*
X163267000Y-70664000D01*
X167127000Y-55309000D02*
X163267000Y-55309000D01*
X167127000Y-55309000D02*
X170987000Y-55309000D01*
X167127000Y-70929000D02*
X163267000Y-70929000D01*
X167127000Y-70929000D02*
X170987000Y-70929000D01*
X170987000Y-55309000D02*
X170987000Y-55574000D01*
X170987000Y-70929000D02*
X170987000Y-70664000D01*
X172179500Y-71134000D02*
X171499500Y-71134000D01*
X171839500Y-70664000D01*
X172179500Y-71134000D01*
G36*
X172179500Y-71134000D02*
G01*
X171499500Y-71134000D01*
X171839500Y-70664000D01*
X172179500Y-71134000D01*
G37*
D14*
%TO.C,U12*%
X137983000Y-53808000D02*
X137983000Y-73620000D01*
X137983000Y-53808000D02*
X140523000Y-53808000D01*
X140523000Y-53808000D02*
X140523000Y-73620000D01*
X140523000Y-73620000D02*
X137983000Y-73620000D01*
X152969000Y-73620000D02*
X153003000Y-53808000D01*
X153003000Y-53808000D02*
X155543000Y-53808000D01*
X155543000Y-73620000D02*
X152969000Y-73620000D01*
X155543000Y-73620000D02*
X155543000Y-53808000D01*
X156137000Y-72694000D02*
G75*
G02*
X155937000Y-72694000I-100000J0D01*
G01*
X155937000Y-72694000D02*
G75*
G02*
X156137000Y-72694000I100000J0D01*
G01*
D12*
%TO.C,TP5*%
X175179200Y-76504800D02*
G75*
G02*
X172779200Y-76504800I-1200000J0D01*
G01*
X172779200Y-76504800D02*
G75*
G02*
X175179200Y-76504800I1200000J0D01*
G01*
%TO.C,R17*%
X171305000Y-87956936D02*
X171305000Y-88411064D01*
X172775000Y-87956936D02*
X172775000Y-88411064D01*
%TO.C,U8*%
X143013000Y-55309000D02*
X143013000Y-55574000D01*
X143013000Y-70929000D02*
X143013000Y-70664000D01*
X146873000Y-55309000D02*
X143013000Y-55309000D01*
X146873000Y-55309000D02*
X150733000Y-55309000D01*
X146873000Y-70929000D02*
X143013000Y-70929000D01*
X146873000Y-70929000D02*
X150733000Y-70929000D01*
X150733000Y-55309000D02*
X150733000Y-55574000D01*
X150733000Y-70929000D02*
X150733000Y-70664000D01*
X151925500Y-71134000D02*
X151245500Y-71134000D01*
X151585500Y-70664000D01*
X151925500Y-71134000D01*
G36*
X151925500Y-71134000D02*
G01*
X151245500Y-71134000D01*
X151585500Y-70664000D01*
X151925500Y-71134000D01*
G37*
D14*
%TO.C,U6*%
X150750000Y-98495200D02*
X150750000Y-102595200D01*
X150750000Y-107795200D02*
X150750000Y-111895200D01*
X150750000Y-111895200D02*
X153600000Y-111895200D01*
X153400000Y-98495200D02*
X150750000Y-98495200D01*
D16*
X154500000Y-96795200D02*
X154500000Y-96795200D01*
X154500000Y-96895200D02*
X154500000Y-96895200D01*
D14*
X158500000Y-98495200D02*
X155500000Y-98495200D01*
X160400000Y-111895200D02*
X163250000Y-111895200D01*
X163250000Y-98495200D02*
X160500000Y-98495200D01*
X163250000Y-102595200D02*
X163250000Y-98495200D01*
X163250000Y-111895200D02*
X163250000Y-107795200D01*
D16*
X154500000Y-96795200D02*
G75*
G02*
X154500000Y-96895200I0J-50000D01*
G01*
X154500000Y-96895200D02*
G75*
G02*
X154500000Y-96795200I0J50000D01*
G01*
D12*
%TO.C,R21*%
X135195000Y-40330564D02*
X135195000Y-39876436D01*
X136665000Y-40330564D02*
X136665000Y-39876436D01*
%TO.C,Q2*%
X141602500Y-126624000D02*
X140952500Y-126624000D01*
X141602500Y-126624000D02*
X142252500Y-126624000D01*
X141602500Y-129744000D02*
X140952500Y-129744000D01*
X141602500Y-129744000D02*
X142252500Y-129744000D01*
X140440000Y-126674000D02*
X140200000Y-126344000D01*
X140680000Y-126344000D01*
X140440000Y-126674000D01*
G36*
X140440000Y-126674000D02*
G01*
X140200000Y-126344000D01*
X140680000Y-126344000D01*
X140440000Y-126674000D01*
G37*
%TO.C,R18*%
X156150000Y-61711064D02*
X156150000Y-61256936D01*
X157620000Y-61711064D02*
X157620000Y-61256936D01*
%TO.C,C14*%
X135195000Y-64784248D02*
X135195000Y-65306752D01*
X136665000Y-64784248D02*
X136665000Y-65306752D01*
%TO.C,R10*%
X139740464Y-81895400D02*
X139286336Y-81895400D01*
X139740464Y-83365400D02*
X139286336Y-83365400D01*
D14*
%TO.C,U11*%
X158237000Y-53808000D02*
X158237000Y-73620000D01*
X158237000Y-53808000D02*
X160777000Y-53808000D01*
X160777000Y-53808000D02*
X160777000Y-73620000D01*
X160777000Y-73620000D02*
X158237000Y-73620000D01*
X173223000Y-73620000D02*
X173257000Y-53808000D01*
X173257000Y-53808000D02*
X175797000Y-53808000D01*
X175797000Y-73620000D02*
X173223000Y-73620000D01*
X175797000Y-73620000D02*
X175797000Y-53808000D01*
X176391000Y-72694000D02*
G75*
G02*
X176191000Y-72694000I-100000J0D01*
G01*
X176191000Y-72694000D02*
G75*
G02*
X176391000Y-72694000I100000J0D01*
G01*
D12*
%TO.C,R16*%
X169735864Y-94870600D02*
X169281736Y-94870600D01*
X169735864Y-96340600D02*
X169281736Y-96340600D01*
%TO.C,TP4*%
X169740000Y-116184000D02*
G75*
G02*
X167340000Y-116184000I-1200000J0D01*
G01*
X167340000Y-116184000D02*
G75*
G02*
X169740000Y-116184000I1200000J0D01*
G01*
%TO.C,R19*%
X135195000Y-61214064D02*
X135195000Y-60759936D01*
X136665000Y-61214064D02*
X136665000Y-60759936D01*
D15*
%TO.C,U5*%
X153915000Y-79070200D02*
X153915000Y-79395200D01*
X153915000Y-79070200D02*
X154240000Y-79070200D01*
X153915000Y-86320200D02*
X153915000Y-85995200D01*
X153915000Y-86320200D02*
X154140000Y-86320200D01*
X161165000Y-79070200D02*
X160840000Y-79070200D01*
X161165000Y-79070200D02*
X161165000Y-79395200D01*
X161165000Y-86320200D02*
X160840000Y-86320200D01*
X161165000Y-86320200D02*
X161165000Y-85995200D01*
D12*
X154200000Y-87085200D02*
X153730000Y-87425200D01*
X153730000Y-86745200D01*
X154200000Y-87085200D01*
G36*
X154200000Y-87085200D02*
G01*
X153730000Y-87425200D01*
X153730000Y-86745200D01*
X154200000Y-87085200D01*
G37*
%TO.C,R12*%
X142305000Y-100456936D02*
X142305000Y-100911064D01*
X143775000Y-100456936D02*
X143775000Y-100911064D01*
%TO.C,TP7*%
X135240000Y-123684000D02*
G75*
G02*
X132840000Y-123684000I-1200000J0D01*
G01*
X132840000Y-123684000D02*
G75*
G02*
X135240000Y-123684000I1200000J0D01*
G01*
%TO.C,C9*%
X173224452Y-83085000D02*
X172701948Y-83085000D01*
X173224452Y-84555000D02*
X172701948Y-84555000D01*
%TO.C,D2*%
X138250000Y-128334000D02*
X135590000Y-128334000D01*
X138250000Y-130034000D02*
X135590000Y-130034000D01*
X138250000Y-130034000D02*
X138250000Y-128334000D01*
%TO.C,R20*%
X156378600Y-40330564D02*
X156378600Y-39876436D01*
X157848600Y-40330564D02*
X157848600Y-39876436D01*
%TO.C,C16*%
X135195000Y-43890248D02*
X135195000Y-44412752D01*
X136665000Y-43890248D02*
X136665000Y-44412752D01*
%TO.C,R8*%
X139805000Y-86411064D02*
X139805000Y-85956936D01*
X141275000Y-86411064D02*
X141275000Y-85956936D01*
%TO.C,TP14*%
X134240000Y-99684000D02*
G75*
G02*
X131840000Y-99684000I-1200000J0D01*
G01*
X131840000Y-99684000D02*
G75*
G02*
X134240000Y-99684000I1200000J0D01*
G01*
%TO.C,TP16*%
X183240000Y-124284000D02*
G75*
G02*
X180840000Y-124284000I-1200000J0D01*
G01*
X180840000Y-124284000D02*
G75*
G02*
X183240000Y-124284000I1200000J0D01*
G01*
%TO.C,TP17*%
X183104000Y-128727200D02*
G75*
G02*
X180704000Y-128727200I-1200000J0D01*
G01*
X180704000Y-128727200D02*
G75*
G02*
X183104000Y-128727200I1200000J0D01*
G01*
%TO.C,C7*%
X164778748Y-92449000D02*
X165301252Y-92449000D01*
X164778748Y-93919000D02*
X165301252Y-93919000D01*
%TO.C,TP1*%
X171724800Y-76504800D02*
G75*
G02*
X169324800Y-76504800I-1200000J0D01*
G01*
X169324800Y-76504800D02*
G75*
G02*
X171724800Y-76504800I1200000J0D01*
G01*
%TO.C,TP2*%
X166240000Y-116184000D02*
G75*
G02*
X163840000Y-116184000I-1200000J0D01*
G01*
X163840000Y-116184000D02*
G75*
G02*
X166240000Y-116184000I1200000J0D01*
G01*
%TD*%
M02*
