M48
; DRILL file {KiCad 9.0.0} date 2025-05-13T23:13:47+0200
; FORMAT={-:-/ absolute / metric / decimal}
; #@! TF.CreationDate,2025-05-13T23:13:47+02:00
; #@! TF.GenerationSoftware,Kicad,Pcbnew,9.0.0
; #@! TF.FileFunction,MixedPlating,1,2
FMAT,2
METRIC
; #@! TA.AperFunction,Plated,PTH,ViaDrill
T1C0.300
; #@! TA.AperFunction,Plated,PTH,ComponentDrill
T2C0.500
; #@! TA.AperFunction,Plated,PTH,ComponentDrill
T3C0.660
; #@! TA.AperFunction,Plated,PTH,ComponentDrill
T4C0.850
; #@! TA.AperFunction,Plated,PTH,ComponentDrill
T5C1.000
; #@! TA.AperFunction,Plated,PTH,ComponentDrill
T6C3.160
; #@! TA.AperFunction,NonPlated,NPTH,ComponentDrill
T7C2.200
; #@! TA.AperFunction,NonPlated,NPTH,ComponentDrill
T8C3.200
%
G90
G05
T1
X132.04Y-40.684
X132.04Y-125.684
X133.04Y-99.684
X135.981Y-46.634
X135.981Y-67.564
X137.077Y-78.13
X137.077Y-80.267
X137.077Y-82.63
X137.54Y-103.184
X137.54Y-117.184
X137.588Y-37.972
X137.588Y-46.863
X137.588Y-58.94
X139.323Y-75.082
X140.451Y-36.339
X140.54Y-97.231
X140.554Y-57.708
X140.56Y-99.184
X140.591Y-37.829
X141.54Y-97.231
X141.56Y-99.184
X143.077Y-111.184
X143.702Y-37.287
X143.72Y-56.814
X143.924Y-55.39
X144.025Y-41.045
X144.133Y-61.299
X144.477Y-58.172
X145.188Y-56.639
X145.199Y-37.287
X145.199Y-38.42
X146.152Y-44.572
X146.54Y-97.184
X146.54Y-99.184
X147.343Y-63.211
X148.04Y-99.184
X148.051Y-97.171
X148.233Y-46.491
X148.338Y-59.94
X148.579Y-136.652
X149.798Y-39.726
X149.798Y-46.025
X149.798Y-66.345
X149.798Y-68.377
X150.002Y-60.046
X151.344Y-71.222
X151.424Y-54.627
X152.643Y-72.757
X153.09Y-121.609
X153.307Y-50.902
X154.604Y-58.623
X154.749Y-56.185
X155.525Y-92.423
X155.63Y-121.609
X155.733Y-43.071
X156.34Y-85.684
X156.704Y-53.746
X156.707Y-50.902
X156.707Y-56.185
X156.91Y-70.409
X157.114Y-46.431
X157.114Y-73.634
X157.14Y-79.684
X157.94Y-85.684
X158.17Y-121.609
X158.53Y-92.492
X158.739Y-83.82
X160.71Y-121.609
X160.889Y-58.488
X160.974Y-38.1
X161.482Y-86.563
X162.6Y-53.019
X162.863Y-76.184
X164.04Y-37.15
X164.146Y-61.313
X164.226Y-57.404
X164.945Y-41.445
X165.026Y-55.957
X165.062Y-79.995
X165.351Y-81.495
X165.54Y-84.173
X165.695Y-57.404
X165.87Y-37.49
X165.948Y-38.506
X166.365Y-79.232
X166.54Y-63.684
X166.602Y-43.665
X167.274Y-103.937
X167.54Y-87.184
X167.54Y-93.184
X170.118Y-39.726
X170.118Y-46.025
X170.118Y-60.046
X170.118Y-66.345
X170.54Y-93.184
X170.728Y-78.419
X170.728Y-80.695
X173.979Y-78.419
X173.979Y-81.382
X175.402Y-90.94
X180.278Y-114.503
X180.685Y-95.809
X180.888Y-92.151
X182.514Y-97.638
T2
X161.29Y-89.234
X161.29Y-91.134
T3
X139.253Y-34.57
X139.253Y-37.11
X139.253Y-39.65
X139.253Y-42.19
X139.253Y-44.73
X139.253Y-47.27
X139.253Y-49.81
X139.253Y-52.35
X139.253Y-54.824
X139.253Y-57.364
X139.253Y-59.904
X139.253Y-62.444
X139.253Y-64.984
X139.253Y-67.524
X139.253Y-70.064
X139.253Y-72.604
X154.273Y-34.57
X154.273Y-37.11
X154.273Y-39.65
X154.273Y-42.19
X154.273Y-44.73
X154.273Y-47.27
X154.273Y-49.81
X154.273Y-52.35
X154.273Y-54.824
X154.273Y-57.364
X154.273Y-59.904
X154.273Y-62.444
X154.273Y-64.984
X154.273Y-67.524
X154.273Y-70.064
X154.273Y-72.604
X159.507Y-34.57
X159.507Y-37.11
X159.507Y-39.65
X159.507Y-42.19
X159.507Y-44.73
X159.507Y-47.27
X159.507Y-49.81
X159.507Y-52.35
X159.507Y-54.824
X159.507Y-57.364
X159.507Y-59.904
X159.507Y-62.444
X159.507Y-64.984
X159.507Y-67.524
X159.507Y-70.064
X159.507Y-72.604
X174.527Y-34.57
X174.527Y-37.11
X174.527Y-39.65
X174.527Y-42.19
X174.527Y-44.73
X174.527Y-47.27
X174.527Y-49.81
X174.527Y-52.35
X174.527Y-54.824
X174.527Y-57.364
X174.527Y-59.904
X174.527Y-62.444
X174.527Y-64.984
X174.527Y-67.524
X174.527Y-70.064
X174.527Y-72.604
T4
X172.495Y-102.108
X177.495Y-102.108
T5
X139.545Y-134.149
X142.085Y-134.149
X154.5Y-98.195
X154.5Y-112.695
X157.0Y-112.695
X159.5Y-98.195
X159.5Y-112.695
X176.353Y-126.28
X176.353Y-128.82
X177.27Y-78.755
X177.27Y-81.295
X177.27Y-83.835
X179.81Y-78.755
X179.81Y-81.295
X179.81Y-83.835
T6
X151.3Y-105.195
X162.7Y-105.195
T7
X132.873Y-56.237
X174.04Y-116.184
X181.127Y-56.237
T8
X132.0Y-32.94
X132.0Y-133.714
X182.0Y-32.94
X182.0Y-133.714
M30
