%TF.GenerationSoftware,KiCad,Pcbnew,9.0.0*%
%TF.CreationDate,2025-05-13T23:13:56+02:00*%
%TF.ProjectId,kitchen_timer-hardware,6b697463-6865-46e5-9f74-696d65722d68,rev?*%
%TF.SameCoordinates,Original*%
%TF.FileFunction,Copper,L1,Top*%
%TF.FilePolarity,Positive*%
%FSLAX46Y46*%
G04 Gerber Fmt 4.6, Leading zero omitted, Abs format (unit mm)*
G04 Created by KiCad (PCBNEW 9.0.0) date 2025-05-13 23:13:56*
%MOMM*%
%LPD*%
G01*
G04 APERTURE LIST*
G04 Aperture macros list*
%AMRoundRect*
0 Rectangle with rounded corners*
0 $1 Rounding radius*
0 $2 $3 $4 $5 $6 $7 $8 $9 X,Y pos of 4 corners*
0 Add a 4 corners polygon primitive as box body*
4,1,4,$2,$3,$4,$5,$6,$7,$8,$9,$2,$3,0*
0 Add four circle primitives for the rounded corners*
1,1,$1+$1,$2,$3*
1,1,$1+$1,$4,$5*
1,1,$1+$1,$6,$7*
1,1,$1+$1,$8,$9*
0 Add four rect primitives between the rounded corners*
20,1,$1+$1,$2,$3,$4,$5,0*
20,1,$1+$1,$4,$5,$6,$7,0*
20,1,$1+$1,$6,$7,$8,$9,0*
20,1,$1+$1,$8,$9,$2,$3,0*%
G04 Aperture macros list end*
%TA.AperFunction,SMDPad,CuDef*%
%ADD10RoundRect,0.250000X-0.337500X-0.475000X0.337500X-0.475000X0.337500X0.475000X-0.337500X0.475000X0*%
%TD*%
%TA.AperFunction,SMDPad,CuDef*%
%ADD11RoundRect,0.237500X-0.287500X-0.237500X0.287500X-0.237500X0.287500X0.237500X-0.287500X0.237500X0*%
%TD*%
%TA.AperFunction,SMDPad,CuDef*%
%ADD12RoundRect,0.250000X0.475000X-0.337500X0.475000X0.337500X-0.475000X0.337500X-0.475000X-0.337500X0*%
%TD*%
%TA.AperFunction,SMDPad,CuDef*%
%ADD13RoundRect,0.250000X-0.450000X0.350000X-0.450000X-0.350000X0.450000X-0.350000X0.450000X0.350000X0*%
%TD*%
%TA.AperFunction,SMDPad,CuDef*%
%ADD14RoundRect,0.250000X-0.475000X0.337500X-0.475000X-0.337500X0.475000X-0.337500X0.475000X0.337500X0*%
%TD*%
%TA.AperFunction,SMDPad,CuDef*%
%ADD15R,1.050000X0.650000*%
%TD*%
%TA.AperFunction,ComponentPad*%
%ADD16R,1.700000X1.700000*%
%TD*%
%TA.AperFunction,ComponentPad*%
%ADD17C,1.700000*%
%TD*%
%TA.AperFunction,SMDPad,CuDef*%
%ADD18RoundRect,0.150000X0.875000X0.150000X-0.875000X0.150000X-0.875000X-0.150000X0.875000X-0.150000X0*%
%TD*%
%TA.AperFunction,SMDPad,CuDef*%
%ADD19RoundRect,0.250000X0.350000X0.450000X-0.350000X0.450000X-0.350000X-0.450000X0.350000X-0.450000X0*%
%TD*%
%TA.AperFunction,ComponentPad*%
%ADD20R,1.320000X1.320000*%
%TD*%
%TA.AperFunction,ComponentPad*%
%ADD21C,1.320000*%
%TD*%
%TA.AperFunction,SMDPad,CuDef*%
%ADD22C,2.000000*%
%TD*%
%TA.AperFunction,ComponentPad*%
%ADD23C,1.350000*%
%TD*%
%TA.AperFunction,ComponentPad*%
%ADD24C,1.000000*%
%TD*%
%TA.AperFunction,SMDPad,CuDef*%
%ADD25RoundRect,0.250000X-0.350000X-0.450000X0.350000X-0.450000X0.350000X0.450000X-0.350000X0.450000X0*%
%TD*%
%TA.AperFunction,SMDPad,CuDef*%
%ADD26RoundRect,0.150000X0.150000X-0.587500X0.150000X0.587500X-0.150000X0.587500X-0.150000X-0.587500X0*%
%TD*%
%TA.AperFunction,SMDPad,CuDef*%
%ADD27RoundRect,0.150000X-0.587500X-0.150000X0.587500X-0.150000X0.587500X0.150000X-0.587500X0.150000X0*%
%TD*%
%TA.AperFunction,SMDPad,CuDef*%
%ADD28RoundRect,0.250000X0.450000X-0.350000X0.450000X0.350000X-0.450000X0.350000X-0.450000X-0.350000X0*%
%TD*%
%TA.AperFunction,SMDPad,CuDef*%
%ADD29R,2.000000X2.000000*%
%TD*%
%TA.AperFunction,ComponentPad*%
%ADD30R,1.500000X1.500000*%
%TD*%
%TA.AperFunction,ComponentPad*%
%ADD31C,1.500000*%
%TD*%
%TA.AperFunction,ComponentPad*%
%ADD32C,4.740000*%
%TD*%
%TA.AperFunction,SMDPad,CuDef*%
%ADD33R,0.550000X1.600000*%
%TD*%
%TA.AperFunction,SMDPad,CuDef*%
%ADD34R,1.600000X0.550000*%
%TD*%
%TA.AperFunction,SMDPad,CuDef*%
%ADD35RoundRect,0.250000X0.337500X0.475000X-0.337500X0.475000X-0.337500X-0.475000X0.337500X-0.475000X0*%
%TD*%
%TA.AperFunction,SMDPad,CuDef*%
%ADD36RoundRect,0.125000X0.125000X0.125000X-0.125000X0.125000X-0.125000X-0.125000X0.125000X-0.125000X0*%
%TD*%
%TA.AperFunction,ViaPad*%
%ADD37C,0.800000*%
%TD*%
%TA.AperFunction,Conductor*%
%ADD38C,0.635000*%
%TD*%
%TA.AperFunction,Conductor*%
%ADD39C,0.200000*%
%TD*%
%TA.AperFunction,Conductor*%
%ADD40C,0.254000*%
%TD*%
G04 APERTURE END LIST*
D10*
%TO.P,C8,1*%
%TO.N,/Microcontroller/XTAL2*%
X164002500Y-87184000D03*
%TO.P,C8,2*%
%TO.N,GND*%
X166077500Y-87184000D03*
%TD*%
D11*
%TO.P,D3,1,K*%
%TO.N,Net-(D3-K)*%
X142827400Y-78130400D03*
%TO.P,D3,2,A*%
%TO.N,/Microcontroller/TEST_LED1*%
X144577400Y-78130400D03*
%TD*%
D12*
%TO.P,C12,1*%
%TO.N,/Microcontroller/ENCODER_CH_B*%
X167273600Y-107615900D03*
%TO.P,C12,2*%
%TO.N,GND*%
X167273600Y-105540900D03*
%TD*%
D13*
%TO.P,R14,1*%
%TO.N,Net-(U6-CHANNEL_A)*%
X143077500Y-103684000D03*
%TO.P,R14,2*%
%TO.N,/Microcontroller/ENCODER_CH_A*%
X143077500Y-105684000D03*
%TD*%
D14*
%TO.P,C15,1*%
%TO.N,+5V*%
X157113600Y-43114000D03*
%TO.P,C15,2*%
%TO.N,GND*%
X157113600Y-45189000D03*
%TD*%
D15*
%TO.P,SW2,1,1*%
%TO.N,GND*%
X180888000Y-90932000D03*
%TO.P,SW2,2,2*%
X176738000Y-90932000D03*
%TO.P,SW2,3,3*%
%TO.N,/Microcontroller/RESET*%
X180888000Y-88782000D03*
%TO.P,SW2,4,4*%
X176738000Y-88782000D03*
%TD*%
D16*
%TO.P,J3,1,MISO*%
%TO.N,/Microcontroller/MISO*%
X177270400Y-78755000D03*
D17*
%TO.P,J3,2,VCC*%
%TO.N,+5V*%
X179810400Y-78755000D03*
%TO.P,J3,3,SCK*%
%TO.N,/LED Matrices Drivers/SCK*%
X177270400Y-81295000D03*
%TO.P,J3,4,MOSI*%
%TO.N,/LED Matrices Drivers/MOSI*%
X179810400Y-81295000D03*
%TO.P,J3,5,~{RST}*%
%TO.N,/Microcontroller/RESET*%
X177270400Y-83835000D03*
%TO.P,J3,6,GND*%
%TO.N,GND*%
X179810400Y-83835000D03*
%TD*%
D18*
%TO.P,U9,1,DIN*%
%TO.N,Net-(U8-DOUT)*%
X171777000Y-49850000D03*
%TO.P,U9,2,DIG_0*%
%TO.N,/LED Matrices Drivers/Mat2A.DIG_0*%
X171777000Y-48580000D03*
%TO.P,U9,3,DIG_4*%
%TO.N,/LED Matrices Drivers/Mat2A.DIG_4*%
X171777000Y-47310000D03*
%TO.P,U9,4,GND*%
%TO.N,GND*%
X171777000Y-46040000D03*
%TO.P,U9,5,DIG_6*%
%TO.N,/LED Matrices Drivers/Mat2A.DIG_6*%
X171777000Y-44770000D03*
%TO.P,U9,6,DIG_2*%
%TO.N,/LED Matrices Drivers/Mat2A.DIG_2*%
X171777000Y-43500000D03*
%TO.P,U9,7,DIG_3*%
%TO.N,/LED Matrices Drivers/Mat2A.DIG_3*%
X171777000Y-42230000D03*
%TO.P,U9,8,DIG_7*%
%TO.N,/LED Matrices Drivers/Mat2A.DIG_7*%
X171777000Y-40960000D03*
%TO.P,U9,9,GND*%
%TO.N,GND*%
X171777000Y-39690000D03*
%TO.P,U9,10,DIG_5*%
%TO.N,/LED Matrices Drivers/Mat2A.DIG_5*%
X171777000Y-38420000D03*
%TO.P,U9,11,DIG_1*%
%TO.N,/LED Matrices Drivers/Mat2A.DIG_1*%
X171777000Y-37150000D03*
%TO.P,U9,12,LOAD*%
%TO.N,/LED Matrices Drivers/CS*%
X171777000Y-35880000D03*
%TO.P,U9,13,CLK*%
%TO.N,/LED Matrices Drivers/SCK*%
X162477000Y-35880000D03*
%TO.P,U9,14,SEG_A*%
%TO.N,/LED Matrices Drivers/Mat2A.SEG_A*%
X162477000Y-37150000D03*
%TO.P,U9,15,SEG_F*%
%TO.N,/LED Matrices Drivers/Mat2A.SEG_F*%
X162477000Y-38420000D03*
%TO.P,U9,16,SEG_B*%
%TO.N,/LED Matrices Drivers/Mat2A.SEG_B*%
X162477000Y-39690000D03*
%TO.P,U9,17,SEG_G*%
%TO.N,/LED Matrices Drivers/Mat2A.SEG_G*%
X162477000Y-40960000D03*
%TO.P,U9,18,ISET*%
%TO.N,Net-(U9-ISET)*%
X162477000Y-42230000D03*
%TO.P,U9,19,V+*%
%TO.N,+5V*%
X162477000Y-43500000D03*
%TO.P,U9,20,SEG_C*%
%TO.N,/LED Matrices Drivers/Mat2A.SEG_C*%
X162477000Y-44770000D03*
%TO.P,U9,21,SEG_E*%
%TO.N,/LED Matrices Drivers/Mat2A.SEG_E*%
X162477000Y-46040000D03*
%TO.P,U9,22,SEG_DP*%
%TO.N,/LED Matrices Drivers/Mat2A.SEG_DP*%
X162477000Y-47310000D03*
%TO.P,U9,23,SEG_D*%
%TO.N,/LED Matrices Drivers/Mat2A.SEG_D*%
X162477000Y-48580000D03*
%TO.P,U9,24,DOUT*%
%TO.N,Net-(U10-DIN)*%
X162477000Y-49850000D03*
%TD*%
D19*
%TO.P,R13,1*%
%TO.N,+5V*%
X171524800Y-109495200D03*
%TO.P,R13,2*%
%TO.N,Net-(U6-CHANNEL_B)*%
X169524800Y-109495200D03*
%TD*%
D20*
%TO.P,U14,01,R1*%
%TO.N,/LED Matrices Drivers/Mat2B.DIG_0*%
X154273000Y-52350000D03*
D21*
%TO.P,U14,02,R2*%
%TO.N,/LED Matrices Drivers/Mat2B.DIG_1*%
X154273000Y-49810000D03*
%TO.P,U14,03,R3*%
%TO.N,/LED Matrices Drivers/Mat2B.DIG_2*%
X154273000Y-47270000D03*
%TO.P,U14,04,R4*%
%TO.N,/LED Matrices Drivers/Mat2B.DIG_3*%
X154273000Y-44730000D03*
%TO.P,U14,05,C1*%
%TO.N,/LED Matrices Drivers/Mat2B.SEG_DP*%
X154273000Y-42190000D03*
%TO.P,U14,06,C2*%
%TO.N,/LED Matrices Drivers/Mat2B.SEG_A*%
X154273000Y-39650000D03*
%TO.P,U14,07,C3*%
%TO.N,/LED Matrices Drivers/Mat2B.SEG_B*%
X154273000Y-37110000D03*
%TO.P,U14,08,C4*%
%TO.N,/LED Matrices Drivers/Mat2B.SEG_C*%
X154273000Y-34570000D03*
%TO.P,U14,09,R8*%
%TO.N,/LED Matrices Drivers/Mat2B.DIG_7*%
X139253000Y-34570000D03*
%TO.P,U14,10,R7*%
%TO.N,/LED Matrices Drivers/Mat2B.DIG_6*%
X139253000Y-37110000D03*
%TO.P,U14,11,R6*%
%TO.N,/LED Matrices Drivers/Mat2B.DIG_5*%
X139253000Y-39650000D03*
%TO.P,U14,12,R5*%
%TO.N,/LED Matrices Drivers/Mat2B.DIG_4*%
X139253000Y-42190000D03*
%TO.P,U14,13,C8*%
%TO.N,/LED Matrices Drivers/Mat2B.SEG_G*%
X139253000Y-44730000D03*
%TO.P,U14,14,C7*%
%TO.N,/LED Matrices Drivers/Mat2B.SEG_F*%
X139253000Y-47270000D03*
%TO.P,U14,15,C6*%
%TO.N,/LED Matrices Drivers/Mat2B.SEG_E*%
X139253000Y-49810000D03*
%TO.P,U14,16,C5*%
%TO.N,/LED Matrices Drivers/Mat2B.SEG_D*%
X139253000Y-52350000D03*
%TD*%
D22*
%TO.P,TP3,1,1*%
%TO.N,/LED Matrices Drivers/SCK*%
X167070400Y-76504800D03*
%TD*%
D11*
%TO.P,D4,1,K*%
%TO.N,Net-(D4-K)*%
X142827400Y-80267400D03*
%TO.P,D4,2,A*%
%TO.N,/Microcontroller/TEST_LED2*%
X144577400Y-80267400D03*
%TD*%
D14*
%TO.P,C5,1*%
%TO.N,+5V*%
X158540000Y-89146500D03*
%TO.P,C5,2*%
%TO.N,GND*%
X158540000Y-91221500D03*
%TD*%
D18*
%TO.P,U10,1,DIN*%
%TO.N,Net-(U10-DIN)*%
X151523000Y-49850000D03*
%TO.P,U10,2,DIG_0*%
%TO.N,/LED Matrices Drivers/Mat2B.DIG_0*%
X151523000Y-48580000D03*
%TO.P,U10,3,DIG_4*%
%TO.N,/LED Matrices Drivers/Mat2B.DIG_4*%
X151523000Y-47310000D03*
%TO.P,U10,4,GND*%
%TO.N,GND*%
X151523000Y-46040000D03*
%TO.P,U10,5,DIG_6*%
%TO.N,/LED Matrices Drivers/Mat2B.DIG_6*%
X151523000Y-44770000D03*
%TO.P,U10,6,DIG_2*%
%TO.N,/LED Matrices Drivers/Mat2B.DIG_2*%
X151523000Y-43500000D03*
%TO.P,U10,7,DIG_3*%
%TO.N,/LED Matrices Drivers/Mat2B.DIG_3*%
X151523000Y-42230000D03*
%TO.P,U10,8,DIG_7*%
%TO.N,/LED Matrices Drivers/Mat2B.DIG_7*%
X151523000Y-40960000D03*
%TO.P,U10,9,GND*%
%TO.N,GND*%
X151523000Y-39690000D03*
%TO.P,U10,10,DIG_5*%
%TO.N,/LED Matrices Drivers/Mat2B.DIG_5*%
X151523000Y-38420000D03*
%TO.P,U10,11,DIG_1*%
%TO.N,/LED Matrices Drivers/Mat2B.DIG_1*%
X151523000Y-37150000D03*
%TO.P,U10,12,LOAD*%
%TO.N,/LED Matrices Drivers/CS*%
X151523000Y-35880000D03*
%TO.P,U10,13,CLK*%
%TO.N,/LED Matrices Drivers/SCK*%
X142223000Y-35880000D03*
%TO.P,U10,14,SEG_A*%
%TO.N,/LED Matrices Drivers/Mat2B.SEG_A*%
X142223000Y-37150000D03*
%TO.P,U10,15,SEG_F*%
%TO.N,/LED Matrices Drivers/Mat2B.SEG_F*%
X142223000Y-38420000D03*
%TO.P,U10,16,SEG_B*%
%TO.N,/LED Matrices Drivers/Mat2B.SEG_B*%
X142223000Y-39690000D03*
%TO.P,U10,17,SEG_G*%
%TO.N,/LED Matrices Drivers/Mat2B.SEG_G*%
X142223000Y-40960000D03*
%TO.P,U10,18,ISET*%
%TO.N,Net-(U10-ISET)*%
X142223000Y-42230000D03*
%TO.P,U10,19,V+*%
%TO.N,+5V*%
X142223000Y-43500000D03*
%TO.P,U10,20,SEG_C*%
%TO.N,/LED Matrices Drivers/Mat2B.SEG_C*%
X142223000Y-44770000D03*
%TO.P,U10,21,SEG_E*%
%TO.N,/LED Matrices Drivers/Mat2B.SEG_E*%
X142223000Y-46040000D03*
%TO.P,U10,22,SEG_DP*%
%TO.N,/LED Matrices Drivers/Mat2B.SEG_DP*%
X142223000Y-47310000D03*
%TO.P,U10,23,SEG_D*%
%TO.N,/LED Matrices Drivers/Mat2B.SEG_D*%
X142223000Y-48580000D03*
%TO.P,U10,24,DOUT*%
%TO.N,unconnected-(U10-DOUT-Pad24)*%
X142223000Y-49850000D03*
%TD*%
D22*
%TO.P,TP10,1,1*%
%TO.N,/Microcontroller/ENCODER_CH_B*%
X148579200Y-93370400D03*
%TD*%
D20*
%TO.P,U13,01,R1*%
%TO.N,/LED Matrices Drivers/Mat2A.DIG_0*%
X174527000Y-52350000D03*
D21*
%TO.P,U13,02,R2*%
%TO.N,/LED Matrices Drivers/Mat2A.DIG_1*%
X174527000Y-49810000D03*
%TO.P,U13,03,R3*%
%TO.N,/LED Matrices Drivers/Mat2A.DIG_2*%
X174527000Y-47270000D03*
%TO.P,U13,04,R4*%
%TO.N,/LED Matrices Drivers/Mat2A.DIG_3*%
X174527000Y-44730000D03*
%TO.P,U13,05,C1*%
%TO.N,/LED Matrices Drivers/Mat2A.SEG_DP*%
X174527000Y-42190000D03*
%TO.P,U13,06,C2*%
%TO.N,/LED Matrices Drivers/Mat2A.SEG_A*%
X174527000Y-39650000D03*
%TO.P,U13,07,C3*%
%TO.N,/LED Matrices Drivers/Mat2A.SEG_B*%
X174527000Y-37110000D03*
%TO.P,U13,08,C4*%
%TO.N,/LED Matrices Drivers/Mat2A.SEG_C*%
X174527000Y-34570000D03*
%TO.P,U13,09,R8*%
%TO.N,/LED Matrices Drivers/Mat2A.DIG_7*%
X159507000Y-34570000D03*
%TO.P,U13,10,R7*%
%TO.N,/LED Matrices Drivers/Mat2A.DIG_6*%
X159507000Y-37110000D03*
%TO.P,U13,11,R6*%
%TO.N,/LED Matrices Drivers/Mat2A.DIG_5*%
X159507000Y-39650000D03*
%TO.P,U13,12,R5*%
%TO.N,/LED Matrices Drivers/Mat2A.DIG_4*%
X159507000Y-42190000D03*
%TO.P,U13,13,C8*%
%TO.N,/LED Matrices Drivers/Mat2A.SEG_G*%
X159507000Y-44730000D03*
%TO.P,U13,14,C7*%
%TO.N,/LED Matrices Drivers/Mat2A.SEG_F*%
X159507000Y-47270000D03*
%TO.P,U13,15,C6*%
%TO.N,/LED Matrices Drivers/Mat2A.SEG_E*%
X159507000Y-49810000D03*
%TO.P,U13,16,C5*%
%TO.N,/LED Matrices Drivers/Mat2A.SEG_D*%
X159507000Y-52350000D03*
%TD*%
D22*
%TO.P,TP6,1,1*%
%TO.N,/Microcontroller/DTR*%
X165040000Y-119184000D03*
%TD*%
%TO.P,TP12,1,1*%
%TO.N,+5V*%
X176778400Y-112471200D03*
%TD*%
D23*
%TO.P,LS1,1,1*%
%TO.N,Net-(Q3-C)*%
X172495200Y-102108000D03*
%TO.P,LS1,2,2*%
%TO.N,+5V*%
X177495200Y-102108000D03*
%TD*%
D24*
%TO.P,Y1,1*%
%TO.N,/Microcontroller/XTAL1*%
X161290000Y-91134000D03*
%TO.P,Y1,2,CRYSTAL_2*%
%TO.N,/Microcontroller/XTAL2*%
X161290000Y-89234000D03*
%TD*%
D25*
%TO.P,R1,1*%
%TO.N,GND*%
X132040000Y-127184000D03*
%TO.P,R1,2*%
%TO.N,/BMS & Power Path/+5V-USB*%
X134040000Y-127184000D03*
%TD*%
D26*
%TO.P,Q1,1,G*%
%TO.N,/BMS & Power Path/+5V-USB*%
X155742000Y-118285500D03*
%TO.P,Q1,2,S*%
%TO.N,Net-(Q1-S)*%
X157642000Y-118285500D03*
%TO.P,Q1,3,D*%
%TO.N,/Microcontroller/MCU_TXD*%
X156692000Y-116410500D03*
%TD*%
D27*
%TO.P,Q3,1,B*%
%TO.N,Net-(Q3-B)*%
X172102500Y-91234000D03*
%TO.P,Q3,2,E*%
%TO.N,GND*%
X172102500Y-93134000D03*
%TO.P,Q3,3,C*%
%TO.N,Net-(Q3-C)*%
X173977500Y-92184000D03*
%TD*%
D14*
%TO.P,C13,1*%
%TO.N,+5V*%
X156885000Y-64505000D03*
%TO.P,C13,2*%
%TO.N,GND*%
X156885000Y-66580000D03*
%TD*%
D22*
%TO.P,TP9,1,1*%
%TO.N,/Microcontroller/ENCODER_CH_A*%
X146040000Y-106184000D03*
%TD*%
D28*
%TO.P,R11,1*%
%TO.N,Net-(U6-NO)*%
X157040000Y-95184000D03*
%TO.P,R11,2*%
%TO.N,/Microcontroller/SW*%
X157040000Y-93184000D03*
%TD*%
%TO.P,R15,1*%
%TO.N,Net-(U6-CHANNEL_B)*%
X167273600Y-111663600D03*
%TO.P,R15,2*%
%TO.N,/Microcontroller/ENCODER_CH_B*%
X167273600Y-109663600D03*
%TD*%
D22*
%TO.P,TP13,1,1*%
%TO.N,/+5V Boost Converter/PP_VCC*%
X141873600Y-131775200D03*
%TD*%
D14*
%TO.P,C10,1*%
%TO.N,/Microcontroller/SW*%
X155540000Y-89146500D03*
%TO.P,C10,2*%
%TO.N,GND*%
X155540000Y-91221500D03*
%TD*%
D22*
%TO.P,TP15,1,1*%
%TO.N,GND*%
X180278400Y-112471200D03*
%TD*%
D14*
%TO.P,C11,1*%
%TO.N,/Microcontroller/ENCODER_CH_A*%
X143077500Y-107646500D03*
%TO.P,C11,2*%
%TO.N,GND*%
X143077500Y-109721500D03*
%TD*%
D19*
%TO.P,R7,1*%
%TO.N,Net-(D3-K)*%
X140513400Y-78130400D03*
%TO.P,R7,2*%
%TO.N,GND*%
X138513400Y-78130400D03*
%TD*%
D22*
%TO.P,TP8,1,1*%
%TO.N,GND*%
X132040000Y-40684000D03*
%TD*%
D29*
%TO.P,U2,1,IN+*%
%TO.N,/BMS & Power Path/+5V-USB*%
X146648800Y-122843200D03*
%TO.P,U2,2,IN-*%
%TO.N,GND*%
X146648800Y-136643200D03*
%TO.P,U2,3,OUT+*%
%TO.N,unconnected-(U2-OUT+-Pad3)*%
X169508800Y-122843200D03*
%TO.P,U2,4,B+*%
%TO.N,/BMS & Power Path/BAT+*%
X169508800Y-125843200D03*
%TO.P,U2,5,B-*%
%TO.N,/BMS & Power Path/BAT-*%
X169508800Y-133643200D03*
%TO.P,U2,6,OUT-*%
%TO.N,unconnected-(U2-OUT--Pad6)*%
X169508800Y-136643200D03*
%TD*%
D11*
%TO.P,D5,1,K*%
%TO.N,Net-(D5-K)*%
X142827400Y-82630400D03*
%TO.P,D5,2,A*%
%TO.N,/Microcontroller/TEST_LED3*%
X144577400Y-82630400D03*
%TD*%
D19*
%TO.P,R6,1*%
%TO.N,+5V*%
X178540000Y-75184000D03*
%TO.P,R6,2*%
%TO.N,/LED Matrices Drivers/CS*%
X176540000Y-75184000D03*
%TD*%
D10*
%TO.P,C6,1*%
%TO.N,+5V*%
X159502500Y-76184000D03*
%TO.P,C6,2*%
%TO.N,GND*%
X161577500Y-76184000D03*
%TD*%
D19*
%TO.P,R9,1*%
%TO.N,Net-(D4-K)*%
X140513400Y-80267400D03*
%TO.P,R9,2*%
%TO.N,GND*%
X138513400Y-80267400D03*
%TD*%
D26*
%TO.P,D1,1,A*%
%TO.N,Net-(D1-A)*%
X160594000Y-118285500D03*
%TO.P,D1,2*%
%TO.N,N/C*%
X162494000Y-118285500D03*
%TO.P,D1,3,K*%
%TO.N,/Microcontroller/MCU_RXD*%
X161544000Y-116410500D03*
%TD*%
D22*
%TO.P,TP11,1,1*%
%TO.N,/Microcontroller/SW*%
X152846400Y-93684000D03*
%TD*%
D18*
%TO.P,U7,1,DIN*%
%TO.N,/LED Matrices Drivers/MOSI*%
X171777000Y-70104000D03*
%TO.P,U7,2,DIG_0*%
%TO.N,/LED Matrices Drivers/Mat1A.DIG_0*%
X171777000Y-68834000D03*
%TO.P,U7,3,DIG_4*%
%TO.N,/LED Matrices Drivers/Mat1A.DIG_4*%
X171777000Y-67564000D03*
%TO.P,U7,4,GND*%
%TO.N,GND*%
X171777000Y-66294000D03*
%TO.P,U7,5,DIG_6*%
%TO.N,/LED Matrices Drivers/Mat1A.DIG_6*%
X171777000Y-65024000D03*
%TO.P,U7,6,DIG_2*%
%TO.N,/LED Matrices Drivers/Mat1A.DIG_2*%
X171777000Y-63754000D03*
%TO.P,U7,7,DIG_3*%
%TO.N,/LED Matrices Drivers/Mat1A.DIG_3*%
X171777000Y-62484000D03*
%TO.P,U7,8,DIG_7*%
%TO.N,/LED Matrices Drivers/Mat1A.DIG_7*%
X171777000Y-61214000D03*
%TO.P,U7,9,GND*%
%TO.N,GND*%
X171777000Y-59944000D03*
%TO.P,U7,10,DIG_5*%
%TO.N,/LED Matrices Drivers/Mat1A.DIG_5*%
X171777000Y-58674000D03*
%TO.P,U7,11,DIG_1*%
%TO.N,/LED Matrices Drivers/Mat1A.DIG_1*%
X171777000Y-57404000D03*
%TO.P,U7,12,LOAD*%
%TO.N,/LED Matrices Drivers/CS*%
X171777000Y-56134000D03*
%TO.P,U7,13,CLK*%
%TO.N,/LED Matrices Drivers/SCK*%
X162477000Y-56134000D03*
%TO.P,U7,14,SEG_A*%
%TO.N,/LED Matrices Drivers/Mat1A.SEG_A*%
X162477000Y-57404000D03*
%TO.P,U7,15,SEG_F*%
%TO.N,/LED Matrices Drivers/Mat1A.SEG_F*%
X162477000Y-58674000D03*
%TO.P,U7,16,SEG_B*%
%TO.N,/LED Matrices Drivers/Mat1A.SEG_B*%
X162477000Y-59944000D03*
%TO.P,U7,17,SEG_G*%
%TO.N,/LED Matrices Drivers/Mat1A.SEG_G*%
X162477000Y-61214000D03*
%TO.P,U7,18,ISET*%
%TO.N,Net-(U7-ISET)*%
X162477000Y-62484000D03*
%TO.P,U7,19,V+*%
%TO.N,+5V*%
X162477000Y-63754000D03*
%TO.P,U7,20,SEG_C*%
%TO.N,/LED Matrices Drivers/Mat1A.SEG_C*%
X162477000Y-65024000D03*
%TO.P,U7,21,SEG_E*%
%TO.N,/LED Matrices Drivers/Mat1A.SEG_E*%
X162477000Y-66294000D03*
%TO.P,U7,22,SEG_DP*%
%TO.N,/LED Matrices Drivers/Mat1A.SEG_DP*%
X162477000Y-67564000D03*
%TO.P,U7,23,SEG_D*%
%TO.N,/LED Matrices Drivers/Mat1A.SEG_D*%
X162477000Y-68834000D03*
%TO.P,U7,24,DOUT*%
%TO.N,Net-(U7-DOUT)*%
X162477000Y-70104000D03*
%TD*%
D20*
%TO.P,U12,01,R1*%
%TO.N,/LED Matrices Drivers/Mat1B.DIG_0*%
X154273000Y-72604000D03*
D21*
%TO.P,U12,02,R2*%
%TO.N,/LED Matrices Drivers/Mat1B.DIG_1*%
X154273000Y-70064000D03*
%TO.P,U12,03,R3*%
%TO.N,/LED Matrices Drivers/Mat1B.DIG_2*%
X154273000Y-67524000D03*
%TO.P,U12,04,R4*%
%TO.N,/LED Matrices Drivers/Mat1B.DIG_3*%
X154273000Y-64984000D03*
%TO.P,U12,05,C1*%
%TO.N,/LED Matrices Drivers/Mat1B.SEG_DP*%
X154273000Y-62444000D03*
%TO.P,U12,06,C2*%
%TO.N,/LED Matrices Drivers/Mat1B.SEG_A*%
X154273000Y-59904000D03*
%TO.P,U12,07,C3*%
%TO.N,/LED Matrices Drivers/Mat1B.SEG_B*%
X154273000Y-57364000D03*
%TO.P,U12,08,C4*%
%TO.N,/LED Matrices Drivers/Mat1B.SEG_C*%
X154273000Y-54824000D03*
%TO.P,U12,09,R8*%
%TO.N,/LED Matrices Drivers/Mat1B.DIG_7*%
X139253000Y-54824000D03*
%TO.P,U12,10,R7*%
%TO.N,/LED Matrices Drivers/Mat1B.DIG_6*%
X139253000Y-57364000D03*
%TO.P,U12,11,R6*%
%TO.N,/LED Matrices Drivers/Mat1B.DIG_5*%
X139253000Y-59904000D03*
%TO.P,U12,12,R5*%
%TO.N,/LED Matrices Drivers/Mat1B.DIG_4*%
X139253000Y-62444000D03*
%TO.P,U12,13,C8*%
%TO.N,/LED Matrices Drivers/Mat1B.SEG_G*%
X139253000Y-64984000D03*
%TO.P,U12,14,C7*%
%TO.N,/LED Matrices Drivers/Mat1B.SEG_F*%
X139253000Y-67524000D03*
%TO.P,U12,15,C6*%
%TO.N,/LED Matrices Drivers/Mat1B.SEG_E*%
X139253000Y-70064000D03*
%TO.P,U12,16,C5*%
%TO.N,/LED Matrices Drivers/Mat1B.SEG_D*%
X139253000Y-72604000D03*
%TD*%
D22*
%TO.P,TP5,1,1*%
%TO.N,/LED Matrices Drivers/CS*%
X173979200Y-76504800D03*
%TD*%
D13*
%TO.P,R17,1*%
%TO.N,/Microcontroller/SPEAKER*%
X172040000Y-87184000D03*
%TO.P,R17,2*%
%TO.N,Net-(Q3-B)*%
X172040000Y-89184000D03*
%TD*%
D18*
%TO.P,U8,1,DIN*%
%TO.N,Net-(U7-DOUT)*%
X151523000Y-70104000D03*
%TO.P,U8,2,DIG_0*%
%TO.N,/LED Matrices Drivers/Mat1B.DIG_0*%
X151523000Y-68834000D03*
%TO.P,U8,3,DIG_4*%
%TO.N,/LED Matrices Drivers/Mat1B.DIG_4*%
X151523000Y-67564000D03*
%TO.P,U8,4,GND*%
%TO.N,GND*%
X151523000Y-66294000D03*
%TO.P,U8,5,DIG_6*%
%TO.N,/LED Matrices Drivers/Mat1B.DIG_6*%
X151523000Y-65024000D03*
%TO.P,U8,6,DIG_2*%
%TO.N,/LED Matrices Drivers/Mat1B.DIG_2*%
X151523000Y-63754000D03*
%TO.P,U8,7,DIG_3*%
%TO.N,/LED Matrices Drivers/Mat1B.DIG_3*%
X151523000Y-62484000D03*
%TO.P,U8,8,DIG_7*%
%TO.N,/LED Matrices Drivers/Mat1B.DIG_7*%
X151523000Y-61214000D03*
%TO.P,U8,9,GND*%
%TO.N,GND*%
X151523000Y-59944000D03*
%TO.P,U8,10,DIG_5*%
%TO.N,/LED Matrices Drivers/Mat1B.DIG_5*%
X151523000Y-58674000D03*
%TO.P,U8,11,DIG_1*%
%TO.N,/LED Matrices Drivers/Mat1B.DIG_1*%
X151523000Y-57404000D03*
%TO.P,U8,12,LOAD*%
%TO.N,/LED Matrices Drivers/CS*%
X151523000Y-56134000D03*
%TO.P,U8,13,CLK*%
%TO.N,/LED Matrices Drivers/SCK*%
X142223000Y-56134000D03*
%TO.P,U8,14,SEG_A*%
%TO.N,/LED Matrices Drivers/Mat1B.SEG_A*%
X142223000Y-57404000D03*
%TO.P,U8,15,SEG_F*%
%TO.N,/LED Matrices Drivers/Mat1B.SEG_F*%
X142223000Y-58674000D03*
%TO.P,U8,16,SEG_B*%
%TO.N,/LED Matrices Drivers/Mat1B.SEG_B*%
X142223000Y-59944000D03*
%TO.P,U8,17,SEG_G*%
%TO.N,/LED Matrices Drivers/Mat1B.SEG_G*%
X142223000Y-61214000D03*
%TO.P,U8,18,ISET*%
%TO.N,Net-(U8-ISET)*%
X142223000Y-62484000D03*
%TO.P,U8,19,V+*%
%TO.N,+5V*%
X142223000Y-63754000D03*
%TO.P,U8,20,SEG_C*%
%TO.N,/LED Matrices Drivers/Mat1B.SEG_C*%
X142223000Y-65024000D03*
%TO.P,U8,21,SEG_E*%
%TO.N,/LED Matrices Drivers/Mat1B.SEG_E*%
X142223000Y-66294000D03*
%TO.P,U8,22,SEG_DP*%
%TO.N,/LED Matrices Drivers/Mat1B.SEG_DP*%
X142223000Y-67564000D03*
%TO.P,U8,23,SEG_D*%
%TO.N,/LED Matrices Drivers/Mat1B.SEG_D*%
X142223000Y-68834000D03*
%TO.P,U8,24,DOUT*%
%TO.N,Net-(U8-DOUT)*%
X142223000Y-70104000D03*
%TD*%
D30*
%TO.P,U6,1,COM*%
%TO.N,GND*%
X154500000Y-98195200D03*
D31*
%TO.P,U6,2,NO*%
%TO.N,Net-(U6-NO)*%
X159500000Y-98195200D03*
%TO.P,U6,A1,CHANNEL_A*%
%TO.N,Net-(U6-CHANNEL_A)*%
X154500000Y-112695200D03*
%TO.P,U6,B1,CHANNEL_B*%
%TO.N,Net-(U6-CHANNEL_B)*%
X159500000Y-112695200D03*
%TO.P,U6,C1,COMMON*%
%TO.N,GND*%
X157000000Y-112695200D03*
D32*
%TO.P,U6,MH1,MH1*%
%TO.N,unconnected-(U6-PadMH1)*%
X151300000Y-105195200D03*
%TO.P,U6,MH2,MH2*%
%TO.N,unconnected-(U6-PadMH2)*%
X162700000Y-105195200D03*
%TD*%
D28*
%TO.P,R21,1*%
%TO.N,+5V*%
X135930000Y-41103500D03*
%TO.P,R21,2*%
%TO.N,Net-(U10-ISET)*%
X135930000Y-39103500D03*
%TD*%
D27*
%TO.P,Q2,1,G*%
%TO.N,/BMS & Power Path/+5V-USB*%
X140665000Y-127234000D03*
%TO.P,Q2,2,S*%
%TO.N,/+5V Boost Converter/PP_VCC*%
X140665000Y-129134000D03*
%TO.P,Q2,3,D*%
%TO.N,/BMS & Power Path/BAT+*%
X142540000Y-128184000D03*
%TD*%
D28*
%TO.P,R18,1*%
%TO.N,+5V*%
X156885000Y-62484000D03*
%TO.P,R18,2*%
%TO.N,Net-(U7-ISET)*%
X156885000Y-60484000D03*
%TD*%
D14*
%TO.P,C14,1*%
%TO.N,+5V*%
X135930000Y-64008000D03*
%TO.P,C14,2*%
%TO.N,GND*%
X135930000Y-66083000D03*
%TD*%
D19*
%TO.P,R10,1*%
%TO.N,Net-(D5-K)*%
X140513400Y-82630400D03*
%TO.P,R10,2*%
%TO.N,GND*%
X138513400Y-82630400D03*
%TD*%
D20*
%TO.P,U11,01,R1*%
%TO.N,/LED Matrices Drivers/Mat1A.DIG_0*%
X174527000Y-72604000D03*
D21*
%TO.P,U11,02,R2*%
%TO.N,/LED Matrices Drivers/Mat1A.DIG_1*%
X174527000Y-70064000D03*
%TO.P,U11,03,R3*%
%TO.N,/LED Matrices Drivers/Mat1A.DIG_2*%
X174527000Y-67524000D03*
%TO.P,U11,04,R4*%
%TO.N,/LED Matrices Drivers/Mat1A.DIG_3*%
X174527000Y-64984000D03*
%TO.P,U11,05,C1*%
%TO.N,/LED Matrices Drivers/Mat1A.SEG_DP*%
X174527000Y-62444000D03*
%TO.P,U11,06,C2*%
%TO.N,/LED Matrices Drivers/Mat1A.SEG_A*%
X174527000Y-59904000D03*
%TO.P,U11,07,C3*%
%TO.N,/LED Matrices Drivers/Mat1A.SEG_B*%
X174527000Y-57364000D03*
%TO.P,U11,08,C4*%
%TO.N,/LED Matrices Drivers/Mat1A.SEG_C*%
X174527000Y-54824000D03*
%TO.P,U11,09,R8*%
%TO.N,/LED Matrices Drivers/Mat1A.DIG_7*%
X159507000Y-54824000D03*
%TO.P,U11,10,R7*%
%TO.N,/LED Matrices Drivers/Mat1A.DIG_6*%
X159507000Y-57364000D03*
%TO.P,U11,11,R6*%
%TO.N,/LED Matrices Drivers/Mat1A.DIG_5*%
X159507000Y-59904000D03*
%TO.P,U11,12,R5*%
%TO.N,/LED Matrices Drivers/Mat1A.DIG_4*%
X159507000Y-62444000D03*
%TO.P,U11,13,C8*%
%TO.N,/LED Matrices Drivers/Mat1A.SEG_G*%
X159507000Y-64984000D03*
%TO.P,U11,14,C7*%
%TO.N,/LED Matrices Drivers/Mat1A.SEG_F*%
X159507000Y-67524000D03*
%TO.P,U11,15,C6*%
%TO.N,/LED Matrices Drivers/Mat1A.SEG_E*%
X159507000Y-70064000D03*
%TO.P,U11,16,C5*%
%TO.N,/LED Matrices Drivers/Mat1A.SEG_D*%
X159507000Y-72604000D03*
%TD*%
D19*
%TO.P,R16,1*%
%TO.N,Net-(Q3-C)*%
X170508800Y-95605600D03*
%TO.P,R16,2*%
%TO.N,+5V*%
X168508800Y-95605600D03*
%TD*%
D22*
%TO.P,TP4,1,1*%
%TO.N,/Microcontroller/MCU_TXD*%
X168540000Y-116184000D03*
%TD*%
D28*
%TO.P,R19,1*%
%TO.N,+5V*%
X135930000Y-61987000D03*
%TO.P,R19,2*%
%TO.N,Net-(U8-ISET)*%
X135930000Y-59987000D03*
%TD*%
D33*
%TO.P,U5,1,PD3*%
%TO.N,/Microcontroller/ENCODER_CH_B*%
X154740000Y-86945200D03*
%TO.P,U5,2,PD4*%
%TO.N,/Microcontroller/SW*%
X155540000Y-86945200D03*
%TO.P,U5,3,GND*%
%TO.N,GND*%
X156340000Y-86945200D03*
%TO.P,U5,4,VCC*%
%TO.N,+5V*%
X157140000Y-86945200D03*
%TO.P,U5,5,GND*%
%TO.N,GND*%
X157940000Y-86945200D03*
%TO.P,U5,6,VCC*%
%TO.N,+5V*%
X158740000Y-86945200D03*
%TO.P,U5,7,XTAL1/PB6*%
%TO.N,/Microcontroller/XTAL1*%
X159540000Y-86945200D03*
%TO.P,U5,8,XTAL2/PB7*%
%TO.N,/Microcontroller/XTAL2*%
X160340000Y-86945200D03*
D34*
%TO.P,U5,9,PD5*%
%TO.N,unconnected-(U5-PD5-Pad9)*%
X161790000Y-85495200D03*
%TO.P,U5,10,PD6*%
%TO.N,unconnected-(U5-PD6-Pad10)*%
X161790000Y-84695200D03*
%TO.P,U5,11,PD7*%
%TO.N,unconnected-(U5-PD7-Pad11)*%
X161790000Y-83895200D03*
%TO.P,U5,12,PB0*%
%TO.N,/LED Matrices Drivers/CS*%
X161790000Y-83095200D03*
%TO.P,U5,13,PB1*%
%TO.N,unconnected-(U5-PB1-Pad13)*%
X161790000Y-82295200D03*
%TO.P,U5,14,PB2*%
%TO.N,/Microcontroller/SPEAKER*%
X161790000Y-81495200D03*
%TO.P,U5,15,PB3*%
%TO.N,/LED Matrices Drivers/MOSI*%
X161790000Y-80695200D03*
%TO.P,U5,16,PB4*%
%TO.N,/Microcontroller/MISO*%
X161790000Y-79895200D03*
D33*
%TO.P,U5,17,PB5*%
%TO.N,/LED Matrices Drivers/SCK*%
X160340000Y-78445200D03*
%TO.P,U5,18,AVCC*%
%TO.N,+5V*%
X159540000Y-78445200D03*
%TO.P,U5,19,ADC6*%
%TO.N,unconnected-(U5-ADC6-Pad19)*%
X158740000Y-78445200D03*
%TO.P,U5,20,AREF*%
%TO.N,unconnected-(U5-AREF-Pad20)*%
X157940000Y-78445200D03*
%TO.P,U5,21,GND*%
%TO.N,GND*%
X157140000Y-78445200D03*
%TO.P,U5,22,ADC7*%
%TO.N,unconnected-(U5-ADC7-Pad22)*%
X156340000Y-78445200D03*
%TO.P,U5,23,PC0*%
%TO.N,/Microcontroller/TEST_LED1*%
X155540000Y-78445200D03*
%TO.P,U5,24,PC1*%
%TO.N,/Microcontroller/TEST_LED2*%
X154740000Y-78445200D03*
D34*
%TO.P,U5,25,PC2*%
%TO.N,/Microcontroller/TEST_LED3*%
X153290000Y-79895200D03*
%TO.P,U5,26,PC3*%
%TO.N,unconnected-(U5-PC3-Pad26)*%
X153290000Y-80695200D03*
%TO.P,U5,27,PC4*%
%TO.N,unconnected-(U5-PC4-Pad27)*%
X153290000Y-81495200D03*
%TO.P,U5,28,PC5*%
%TO.N,unconnected-(U5-PC5-Pad28)*%
X153290000Y-82295200D03*
%TO.P,U5,29,~{RESET}/PC6*%
%TO.N,/Microcontroller/RESET*%
X153290000Y-83095200D03*
%TO.P,U5,30,PD0*%
%TO.N,/Microcontroller/MCU_RXD*%
X153290000Y-83895200D03*
%TO.P,U5,31,PD1*%
%TO.N,/Microcontroller/MCU_TXD*%
X153290000Y-84695200D03*
%TO.P,U5,32,PD2*%
%TO.N,/Microcontroller/ENCODER_CH_A*%
X153290000Y-85495200D03*
%TD*%
D13*
%TO.P,R12,1*%
%TO.N,+5V*%
X143040000Y-99684000D03*
%TO.P,R12,2*%
%TO.N,Net-(U6-CHANNEL_A)*%
X143040000Y-101684000D03*
%TD*%
D22*
%TO.P,TP7,1,1*%
%TO.N,/BMS & Power Path/+5V-USB*%
X134040000Y-123684000D03*
%TD*%
D35*
%TO.P,C9,1*%
%TO.N,/Microcontroller/DTR*%
X174000700Y-83820000D03*
%TO.P,C9,2*%
%TO.N,/Microcontroller/RESET*%
X171925700Y-83820000D03*
%TD*%
D36*
%TO.P,D2,1,K*%
%TO.N,/+5V Boost Converter/PP_VCC*%
X137740000Y-129184000D03*
%TO.P,D2,2,A*%
%TO.N,/BMS & Power Path/+5V-USB*%
X135540000Y-129184000D03*
%TD*%
D28*
%TO.P,R20,1*%
%TO.N,+5V*%
X157113600Y-41103500D03*
%TO.P,R20,2*%
%TO.N,Net-(U9-ISET)*%
X157113600Y-39103500D03*
%TD*%
D14*
%TO.P,C16,1*%
%TO.N,+5V*%
X135930000Y-43114000D03*
%TO.P,C16,2*%
%TO.N,GND*%
X135930000Y-45189000D03*
%TD*%
D28*
%TO.P,R8,1*%
%TO.N,+5V*%
X140540000Y-87184000D03*
%TO.P,R8,2*%
%TO.N,/Microcontroller/RESET*%
X140540000Y-85184000D03*
%TD*%
D22*
%TO.P,TP14,1,1*%
%TO.N,GND*%
X133040000Y-99684000D03*
%TD*%
%TO.P,TP16,1,1*%
%TO.N,/BMS & Power Path/BAT+*%
X182040000Y-124284000D03*
%TD*%
%TO.P,TP17,1,1*%
%TO.N,/BMS & Power Path/BAT-*%
X181904000Y-128727200D03*
%TD*%
D10*
%TO.P,C7,1*%
%TO.N,/Microcontroller/XTAL1*%
X164002500Y-93184000D03*
%TO.P,C7,2*%
%TO.N,GND*%
X166077500Y-93184000D03*
%TD*%
D22*
%TO.P,TP1,1,1*%
%TO.N,/LED Matrices Drivers/MOSI*%
X170524800Y-76504800D03*
%TD*%
%TO.P,TP2,1,1*%
%TO.N,/Microcontroller/MCU_RXD*%
X165040000Y-116184000D03*
%TD*%
D17*
%TO.P,J2,1,Pin_1*%
%TO.N,/+5V Boost Converter/PP_VCC*%
X142085200Y-134148800D03*
%TO.P,J2,2,Pin_2*%
%TO.N,/+5V Boost Converter/PP_VCC_after_switch*%
X139545200Y-134148800D03*
%TD*%
%TO.P,J1,1,Pin_1*%
%TO.N,/BMS & Power Path/BAT+*%
X176352800Y-126280400D03*
%TO.P,J1,2,Pin_2*%
%TO.N,/BMS & Power Path/BAT-*%
X176352800Y-128820400D03*
%TD*%
D37*
%TO.N,GND*%
X148579200Y-136652000D03*
X167540000Y-87184000D03*
X170540000Y-93184000D03*
X170118400Y-66344800D03*
X149798400Y-66344800D03*
X156910400Y-70408800D03*
X149798400Y-39725600D03*
X150001600Y-60045600D03*
X133040000Y-99684000D03*
X157113600Y-46431200D03*
X135980800Y-46634400D03*
X157940000Y-85684000D03*
X167540000Y-93184000D03*
X175401600Y-90940184D03*
X137077400Y-82630400D03*
X137077400Y-78130400D03*
X149798400Y-46024800D03*
X132040000Y-40684000D03*
X180278400Y-114503200D03*
X167273600Y-103936800D03*
X170118400Y-60045600D03*
X132040000Y-125684000D03*
X156340000Y-85684000D03*
X155524827Y-92422999D03*
X143077500Y-111184000D03*
X180888000Y-92151200D03*
X170118400Y-39725600D03*
X157140000Y-79684000D03*
X137077400Y-80267400D03*
X135980800Y-67564000D03*
X162863000Y-76184000D03*
X158529504Y-92492175D03*
X170118400Y-46024800D03*
%TO.N,+5V*%
X137540000Y-103184000D03*
%TO.N,/Microcontroller/RESET*%
X161482400Y-86563200D03*
X158739200Y-83820000D03*
%TO.N,/Microcontroller/DTR*%
X180684800Y-95808800D03*
X182513600Y-97637600D03*
X160710125Y-121609400D03*
%TO.N,/Microcontroller/ENCODER_CH_A*%
X146540000Y-99184000D03*
X146540000Y-97184000D03*
%TO.N,/Microcontroller/ENCODER_CH_B*%
X148051315Y-97170655D03*
X148040000Y-99184000D03*
%TO.N,/Microcontroller/MCU_RXD*%
X140540000Y-97231203D03*
X140559943Y-99184001D03*
%TO.N,Net-(D1-A)*%
X155630125Y-121609400D03*
%TO.N,/BMS & Power Path/+5V-USB*%
X153090125Y-121609400D03*
%TO.N,/+5V Boost Converter/PP_VCC_after_switch*%
X137540000Y-117184000D03*
%TO.N,/LED Matrices Drivers/MOSI*%
X170728000Y-78419400D03*
X170728000Y-80695200D03*
%TO.N,/LED Matrices Drivers/SCK*%
X154749000Y-56184800D03*
X139322900Y-75082400D03*
X137588000Y-46862787D03*
X137588000Y-37971615D03*
X156707200Y-56184800D03*
X137588000Y-58940284D03*
%TO.N,/Microcontroller/MISO*%
X165062268Y-79995200D03*
X166365267Y-79232200D03*
%TO.N,Net-(Q1-S)*%
X158170125Y-121609400D03*
%TO.N,/Microcontroller/MCU_TXD*%
X141540003Y-97231203D03*
X141559945Y-99184000D03*
%TO.N,/LED Matrices Drivers/CS*%
X173979200Y-81381600D03*
X173979200Y-78419400D03*
X151424000Y-54626600D03*
X156704402Y-53746400D03*
%TO.N,/Microcontroller/SPEAKER*%
X165351200Y-81495200D03*
X165540000Y-84173200D03*
%TO.N,/LED Matrices Drivers/Mat1A.DIG_4*%
X164145997Y-61313000D03*
%TO.N,/LED Matrices Drivers/Mat1A.SEG_C*%
X166540000Y-63684000D03*
%TO.N,/LED Matrices Drivers/Mat1A.SEG_F*%
X160889327Y-58488107D03*
%TO.N,/LED Matrices Drivers/Mat1A.DIG_5*%
X165695044Y-57404000D03*
%TO.N,/LED Matrices Drivers/Mat1A.SEG_A*%
X164225600Y-57404000D03*
X165026209Y-55957275D03*
%TO.N,Net-(U7-DOUT)*%
X157113600Y-73633885D03*
X152643200Y-72757039D03*
%TO.N,/LED Matrices Drivers/Mat1B.SEG_F*%
X140554012Y-57707588D03*
%TO.N,/LED Matrices Drivers/Mat1B.DIG_5*%
X144477450Y-58172360D03*
%TO.N,/LED Matrices Drivers/Mat1B.DIG_4*%
X144132914Y-61299000D03*
%TO.N,/LED Matrices Drivers/Mat1B.SEG_C*%
X147342950Y-63211000D03*
%TO.N,/LED Matrices Drivers/Mat1B.DIG_7*%
X143924012Y-55390412D03*
%TO.N,/LED Matrices Drivers/Mat1B.SEG_A*%
X143720312Y-56814288D03*
X145187804Y-56639127D03*
%TO.N,Net-(U8-DOUT)*%
X151343977Y-71221600D03*
X162600000Y-53019400D03*
%TO.N,/LED Matrices Drivers/Mat1B.DIG_1*%
X154604339Y-58623200D03*
%TO.N,/LED Matrices Drivers/Mat1B.SEG_B*%
X148338337Y-59939761D03*
%TO.N,/LED Matrices Drivers/Mat1B.SEG_DP*%
X149798400Y-68376800D03*
%TO.N,/LED Matrices Drivers/Mat2A.DIG_5*%
X165948500Y-38506400D03*
%TO.N,/LED Matrices Drivers/Mat2A.SEG_F*%
X160974400Y-38100000D03*
%TO.N,/LED Matrices Drivers/Mat2A.SEG_C*%
X166601668Y-43664908D03*
%TO.N,/LED Matrices Drivers/Mat2A.DIG_4*%
X164944511Y-41445089D03*
%TO.N,Net-(U10-DIN)*%
X153306758Y-50901600D03*
X156707200Y-50901600D03*
%TO.N,/LED Matrices Drivers/Mat2A.SEG_A*%
X164040000Y-37150000D03*
X165870072Y-37490400D03*
%TO.N,/LED Matrices Drivers/Mat2B.DIG_5*%
X145199199Y-38420000D03*
%TO.N,/LED Matrices Drivers/Mat2B.DIG_7*%
X140451200Y-36338600D03*
%TO.N,/LED Matrices Drivers/Mat2B.SEG_DP*%
X148232800Y-46491200D03*
%TO.N,/LED Matrices Drivers/Mat2B.DIG_4*%
X144024895Y-41045000D03*
%TO.N,/LED Matrices Drivers/Mat2B.DIG_1*%
X155733445Y-43071328D03*
%TO.N,/LED Matrices Drivers/Mat2B.SEG_A*%
X143702400Y-37287200D03*
X145199199Y-37287200D03*
%TO.N,/LED Matrices Drivers/Mat2B.SEG_F*%
X140591252Y-37829400D03*
%TO.N,/LED Matrices Drivers/Mat2B.SEG_C*%
X146151647Y-44572354D03*
%TD*%
D38*
%TO.N,GND*%
X151523000Y-59944000D02*
X150103200Y-59944000D01*
X156885000Y-67945000D02*
X156885000Y-66580000D01*
X170133600Y-46040000D02*
X170118400Y-46024800D01*
D39*
X157940000Y-86945200D02*
X157940000Y-85684000D01*
D38*
X170220000Y-59944000D02*
X170118400Y-60045600D01*
X146648800Y-136643200D02*
X148570400Y-136643200D01*
X135930000Y-46583600D02*
X135980800Y-46634400D01*
D39*
X157140000Y-78445200D02*
X157140000Y-79684000D01*
X137077400Y-82630400D02*
X138513400Y-82630400D01*
X156340000Y-86945200D02*
X156340000Y-85684000D01*
X167273600Y-105540900D02*
X167273600Y-103936800D01*
D38*
X150103200Y-59944000D02*
X150001600Y-60045600D01*
D39*
X155540000Y-91221500D02*
X155540000Y-92407826D01*
D38*
X149834000Y-39690000D02*
X149798400Y-39725600D01*
X149813600Y-46040000D02*
X151523000Y-46040000D01*
D39*
X155540000Y-92407826D02*
X155524827Y-92422999D01*
D40*
X175401600Y-90940184D02*
X176729816Y-90940184D01*
D39*
X170540000Y-93184000D02*
X172052500Y-93184000D01*
X166077500Y-87184000D02*
X167540000Y-87184000D01*
X180278400Y-114503200D02*
X180278400Y-112471200D01*
D38*
X151523000Y-66294000D02*
X149849200Y-66294000D01*
D39*
X143077500Y-109721500D02*
X143077500Y-111184000D01*
X138513400Y-78130400D02*
X137077400Y-78130400D01*
D38*
X157113600Y-46431200D02*
X157113600Y-45189000D01*
X171777000Y-59944000D02*
X170220000Y-59944000D01*
X132040000Y-127184000D02*
X132040000Y-125684000D01*
X156910400Y-67970400D02*
X156885000Y-67945000D01*
D39*
X166077500Y-93184000D02*
X167540000Y-93184000D01*
D38*
X170169200Y-66294000D02*
X170118400Y-66344800D01*
X135930000Y-67513200D02*
X135980800Y-67564000D01*
X148570400Y-136643200D02*
X148579200Y-136652000D01*
X171777000Y-66294000D02*
X170169200Y-66294000D01*
X135930000Y-45189000D02*
X135930000Y-46583600D01*
D39*
X162863000Y-76184000D02*
X161577500Y-76184000D01*
D38*
X149849200Y-66294000D02*
X149798400Y-66344800D01*
D39*
X180888000Y-92151200D02*
X180888000Y-90932000D01*
X172052500Y-93184000D02*
X172102500Y-93134000D01*
D40*
X176729816Y-90940184D02*
X176738000Y-90932000D01*
D39*
X158540000Y-91221500D02*
X158540000Y-92481679D01*
D38*
X149798400Y-46024800D02*
X149813600Y-46040000D01*
X156910400Y-70408800D02*
X156910400Y-67970400D01*
X171777000Y-46040000D02*
X170133600Y-46040000D01*
D39*
X158540000Y-92481679D02*
X158529504Y-92492175D01*
D38*
X171777000Y-39690000D02*
X170154000Y-39690000D01*
X170154000Y-39690000D02*
X170118400Y-39725600D01*
D39*
X138513400Y-80267400D02*
X137077400Y-80267400D01*
D38*
X135930000Y-66083000D02*
X135930000Y-67513200D01*
X151523000Y-39690000D02*
X149834000Y-39690000D01*
%TO.N,+5V*%
X155666500Y-44561100D02*
X157113600Y-43114000D01*
X179810400Y-76454400D02*
X178540000Y-75184000D01*
X136184000Y-63754000D02*
X142223000Y-63754000D01*
X167040000Y-100184000D02*
X167040000Y-99700000D01*
X160040000Y-100184000D02*
X160868123Y-99355877D01*
X135930000Y-43114000D02*
X136316000Y-43500000D01*
X171524800Y-104699200D02*
X171524800Y-109495200D01*
X160040000Y-100184000D02*
X167040000Y-100184000D01*
X160868123Y-99355877D02*
X160868123Y-92152500D01*
X143040000Y-99184000D02*
X143040000Y-99684000D01*
X136009600Y-98653600D02*
X137540000Y-100184000D01*
X155641500Y-64719200D02*
X155666500Y-64694200D01*
D39*
X159540000Y-84011200D02*
X158740000Y-84811200D01*
D38*
X134685400Y-77184000D02*
X134685400Y-74879200D01*
D39*
X176778400Y-112471200D02*
X173802400Y-109495200D01*
D38*
X134685400Y-97358200D02*
X134685400Y-77184000D01*
X178040000Y-101684000D02*
X178040000Y-100184000D01*
X134685400Y-74879200D02*
X134685400Y-64109600D01*
X136316000Y-43500000D02*
X142223000Y-43500000D01*
X158540000Y-89258692D02*
X158540000Y-89146500D01*
X134685400Y-64109600D02*
X134685400Y-58624300D01*
X157113600Y-41103500D02*
X157113600Y-43114000D01*
X179810400Y-78755000D02*
X179810400Y-76454400D01*
X155370800Y-73863200D02*
X135777600Y-73863200D01*
D39*
X159540000Y-78445200D02*
X159540000Y-76221500D01*
D38*
X156885000Y-64505000D02*
X157636000Y-63754000D01*
X134685400Y-58624300D02*
X135777600Y-57532100D01*
X159783500Y-90502192D02*
X158540000Y-89258692D01*
X137540000Y-89184000D02*
X139540000Y-87184000D01*
X137540000Y-100184000D02*
X137540000Y-103184000D01*
X157636000Y-63754000D02*
X162477000Y-63754000D01*
X142040000Y-98184000D02*
X150040000Y-98184000D01*
X171540000Y-104684000D02*
X171524800Y-104699200D01*
D39*
X159540000Y-78445200D02*
X159540000Y-84011200D01*
D38*
X134686500Y-44357500D02*
X135930000Y-43114000D01*
X178040000Y-100184000D02*
X182540000Y-95684000D01*
X134787000Y-64008000D02*
X135930000Y-64008000D01*
X156885000Y-62484000D02*
X156885000Y-64505000D01*
X139540000Y-87184000D02*
X140540000Y-87184000D01*
X135777600Y-73863200D02*
X134761600Y-74879200D01*
D39*
X158740000Y-84811200D02*
X158740000Y-86945200D01*
D38*
X177616000Y-102108000D02*
X178040000Y-101684000D01*
X135777600Y-53340000D02*
X134686500Y-52248900D01*
X171540000Y-104684000D02*
X174919200Y-104684000D01*
X135980800Y-98653600D02*
X136009600Y-98653600D01*
X135685400Y-76184000D02*
X134685400Y-77184000D01*
X134685400Y-64109600D02*
X134787000Y-64008000D01*
X137540000Y-100184000D02*
X137540000Y-98184000D01*
X134761600Y-74879200D02*
X134685400Y-74879200D01*
X150040000Y-98184000D02*
X152040000Y-100184000D01*
X177495200Y-102108000D02*
X177616000Y-102108000D01*
X155641500Y-64719200D02*
X155641500Y-73592500D01*
X135777600Y-57532100D02*
X135777600Y-53340000D01*
X134686500Y-52248900D02*
X134686500Y-44357500D01*
X135980800Y-98653600D02*
X134685400Y-97358200D01*
X160868123Y-92152500D02*
X159783500Y-91067877D01*
X152040000Y-100184000D02*
X160040000Y-100184000D01*
X182540000Y-81484600D02*
X179810400Y-78755000D01*
X137540000Y-98184000D02*
X142040000Y-98184000D01*
X135930000Y-41103500D02*
X135930000Y-43114000D01*
X167040000Y-99700000D02*
X168508800Y-98231200D01*
D39*
X158002500Y-89146500D02*
X158540000Y-89146500D01*
D38*
X156885000Y-64505000D02*
X156670800Y-64719200D01*
X155666500Y-64694200D02*
X155666500Y-44561100D01*
D39*
X158740000Y-86945200D02*
X158740000Y-88946500D01*
X157140000Y-86945200D02*
X157140000Y-88284000D01*
D38*
X155641500Y-73592500D02*
X155370800Y-73863200D01*
D39*
X159540000Y-76221500D02*
X159502500Y-76184000D01*
D38*
X168508800Y-98231200D02*
X168508800Y-95605600D01*
D39*
X157140000Y-88284000D02*
X158002500Y-89146500D01*
D38*
X174919200Y-104684000D02*
X177495200Y-102108000D01*
X142040000Y-98184000D02*
X143040000Y-99184000D01*
X156670800Y-64719200D02*
X155641500Y-64719200D01*
X167040000Y-100184000D02*
X171540000Y-104684000D01*
X159783500Y-91067877D02*
X159783500Y-90502192D01*
X159502500Y-76184000D02*
X135685400Y-76184000D01*
D39*
X173802400Y-109495200D02*
X171524800Y-109495200D01*
D38*
X157499600Y-43500000D02*
X162477000Y-43500000D01*
X135930000Y-61987000D02*
X135930000Y-64008000D01*
X137540000Y-98184000D02*
X137540000Y-89184000D01*
X135930000Y-64008000D02*
X136184000Y-63754000D01*
D39*
X158740000Y-88946500D02*
X158540000Y-89146500D01*
D38*
X157113600Y-43114000D02*
X157499600Y-43500000D01*
X182540000Y-95684000D02*
X182540000Y-81484600D01*
D39*
%TO.N,/Microcontroller/XTAL1*%
X161290000Y-91134000D02*
X161290000Y-90841200D01*
X161290000Y-90841200D02*
X159755200Y-89306400D01*
X162002500Y-93184000D02*
X162002500Y-91846500D01*
X159755200Y-87160400D02*
X159540000Y-86945200D01*
X162002500Y-91846500D02*
X161290000Y-91134000D01*
X159755200Y-89306400D02*
X159755200Y-87160400D01*
X164002500Y-93184000D02*
X162002500Y-93184000D01*
%TO.N,/Microcontroller/XTAL2*%
X160340000Y-87984000D02*
X160340000Y-86945200D01*
X163340000Y-87184000D02*
X161290000Y-89234000D01*
X160540000Y-88184000D02*
X160340000Y-87984000D01*
X161290000Y-89234000D02*
X160540000Y-88484000D01*
X160540000Y-88484000D02*
X160540000Y-88184000D01*
X164002500Y-87184000D02*
X163340000Y-87184000D01*
%TO.N,/Microcontroller/RESET*%
X177270400Y-83835000D02*
X180888000Y-87452600D01*
X174792000Y-82194400D02*
X167696026Y-82194400D01*
X176738000Y-84367400D02*
X177270400Y-83835000D01*
X141077500Y-85146500D02*
X144577500Y-85146500D01*
X161482400Y-86563200D02*
X161787200Y-86868000D01*
X176432600Y-83835000D02*
X174792000Y-82194400D01*
X165881364Y-83523200D02*
X166367226Y-83523200D01*
X171925700Y-83820000D02*
X166664026Y-83820000D01*
X144577500Y-85146500D02*
X146628800Y-83095200D01*
X158014400Y-83095200D02*
X153290000Y-83095200D01*
X158739200Y-83820000D02*
X158014400Y-83095200D01*
X165198636Y-83523200D02*
X165249636Y-83472200D01*
X176738000Y-88782000D02*
X176738000Y-84367400D01*
X140540000Y-85184000D02*
X141040000Y-85184000D01*
X164200800Y-83523200D02*
X165198636Y-83523200D01*
X141040000Y-85184000D02*
X141077500Y-85146500D01*
X165249636Y-83472200D02*
X165830364Y-83472200D01*
X146628800Y-83095200D02*
X153290000Y-83095200D01*
X161787200Y-86868000D02*
X162356000Y-86868000D01*
X180888000Y-87452600D02*
X180888000Y-88782000D01*
X163389000Y-85835000D02*
X163389000Y-84335000D01*
X177270400Y-83835000D02*
X176432600Y-83835000D01*
X166664026Y-83820000D02*
X166367226Y-83523200D01*
X167696026Y-82194400D02*
X166367226Y-83523200D01*
X163389000Y-84335000D02*
X164200800Y-83523200D01*
X165830364Y-83472200D02*
X165881364Y-83523200D01*
X162356000Y-86868000D02*
X163389000Y-85835000D01*
%TO.N,/Microcontroller/DTR*%
X180684800Y-94996000D02*
X178449600Y-92760800D01*
X173077882Y-119184000D02*
X165040000Y-119184000D01*
X178449600Y-113812282D02*
X173077882Y-119184000D01*
X163135525Y-119184000D02*
X160710125Y-121609400D01*
X165040000Y-119184000D02*
X163135525Y-119184000D01*
X180684800Y-95808800D02*
X180684800Y-94996000D01*
X176214400Y-92760800D02*
X174000700Y-90547100D01*
X174000700Y-90547100D02*
X174000700Y-83820000D01*
X182513600Y-104343200D02*
X178449600Y-108407200D01*
X178449600Y-92760800D02*
X176214400Y-92760800D01*
X182513600Y-97637600D02*
X182513600Y-104343200D01*
X178449600Y-108407200D02*
X178449600Y-113812282D01*
%TO.N,/Microcontroller/SW*%
X156540000Y-93684000D02*
X152846400Y-93684000D01*
X157040000Y-93184000D02*
X156540000Y-93684000D01*
X157040000Y-93184000D02*
X157040000Y-90646500D01*
X155540000Y-86945200D02*
X155540000Y-89146500D01*
X157040000Y-90646500D02*
X155540000Y-89146500D01*
%TO.N,/Microcontroller/ENCODER_CH_A*%
X146540000Y-90184000D02*
X151228800Y-85495200D01*
X151228800Y-85495200D02*
X153290000Y-85495200D01*
X143577500Y-106184000D02*
X143077500Y-105684000D01*
X146540000Y-97184000D02*
X146540000Y-90184000D01*
X146540000Y-99184000D02*
X146540000Y-102221500D01*
X143077500Y-107646500D02*
X143077500Y-105684000D01*
X146040000Y-106184000D02*
X143577500Y-106184000D01*
X146540000Y-102221500D02*
X143077500Y-105684000D01*
%TO.N,/Microcontroller/ENCODER_CH_B*%
X148040000Y-107684000D02*
X148040000Y-99184000D01*
X148051315Y-93898285D02*
X148579200Y-93370400D01*
X148579200Y-93106000D02*
X154740000Y-86945200D01*
X167273600Y-109663600D02*
X167273600Y-107615900D01*
X148579200Y-93370400D02*
X148579200Y-93106000D01*
X148040000Y-107684000D02*
X150019600Y-109663600D01*
X148051315Y-97170655D02*
X148051315Y-93898285D01*
X167273600Y-109663600D02*
X150019600Y-109663600D01*
%TO.N,/Microcontroller/MCU_RXD*%
X140540000Y-113779200D02*
X143702400Y-116941600D01*
X155843632Y-116941600D02*
X156351032Y-117449000D01*
X150795250Y-83895200D02*
X153290000Y-83895200D01*
X161544000Y-116410500D02*
X161813500Y-116410500D01*
X143702400Y-116941600D02*
X155843632Y-116941600D01*
X140540000Y-94150450D02*
X150795250Y-83895200D01*
X162040000Y-116184000D02*
X165040000Y-116184000D01*
X140540000Y-99104908D02*
X140540000Y-113779200D01*
X158137532Y-116410500D02*
X161544000Y-116410500D01*
X140540000Y-97266500D02*
X140540000Y-94150450D01*
X156351032Y-117449000D02*
X157099032Y-117449000D01*
X157099032Y-117449000D02*
X158137532Y-116410500D01*
X161813500Y-116410500D02*
X162040000Y-116184000D01*
%TO.N,Net-(D1-A)*%
X159348800Y-119530700D02*
X159348800Y-122224800D01*
X158536000Y-123037600D02*
X157058325Y-123037600D01*
X157058325Y-123037600D02*
X155630125Y-121609400D01*
X160594000Y-118285500D02*
X159348800Y-119530700D01*
X159348800Y-122224800D02*
X158536000Y-123037600D01*
D38*
%TO.N,/+5V Boost Converter/PP_VCC*%
X141873600Y-133937200D02*
X142085200Y-134148800D01*
X141873600Y-130342600D02*
X140665000Y-129134000D01*
X141873600Y-131775200D02*
X141873600Y-130342600D01*
X137790000Y-129134000D02*
X137740000Y-129184000D01*
X141873600Y-131775200D02*
X141873600Y-133937200D01*
X140665000Y-129134000D02*
X137790000Y-129134000D01*
%TO.N,/BMS & Power Path/+5V-USB*%
X140665000Y-127234000D02*
X144861400Y-123037600D01*
X151856325Y-122843200D02*
X153090125Y-121609400D01*
X146648800Y-122843200D02*
X151856325Y-122843200D01*
X153090125Y-121609400D02*
X153090125Y-120937375D01*
X153090125Y-120937375D02*
X155742000Y-118285500D01*
X135540000Y-129184000D02*
X135540000Y-128684000D01*
X144861400Y-123037600D02*
X146454400Y-123037600D01*
X140665000Y-127234000D02*
X137490000Y-127234000D01*
X146454400Y-123037600D02*
X146648800Y-122843200D01*
X135540000Y-128684000D02*
X134040000Y-127184000D01*
X137490000Y-127234000D02*
X135540000Y-129184000D01*
X134040000Y-127184000D02*
X134040000Y-123684000D01*
D39*
%TO.N,Net-(D3-K)*%
X140513400Y-78130400D02*
X142827400Y-78130400D01*
D40*
%TO.N,/Microcontroller/TEST_LED1*%
X155330200Y-77317200D02*
X155540000Y-77527000D01*
X144577400Y-78130400D02*
X145390600Y-77317200D01*
X145390600Y-77317200D02*
X155330200Y-77317200D01*
X155540000Y-77527000D02*
X155540000Y-78445200D01*
D39*
%TO.N,Net-(D4-K)*%
X140513400Y-80267400D02*
X142827400Y-80267400D01*
D40*
%TO.N,/Microcontroller/TEST_LED2*%
X154740000Y-78445200D02*
X146399600Y-78445200D01*
X146399600Y-78445200D02*
X144577400Y-80267400D01*
D39*
%TO.N,Net-(D5-K)*%
X140513400Y-82630400D02*
X142827400Y-82630400D01*
D40*
%TO.N,/Microcontroller/TEST_LED3*%
X144577400Y-82630400D02*
X147312600Y-79895200D01*
X147312600Y-79895200D02*
X153290000Y-79895200D01*
D38*
%TO.N,/BMS & Power Path/BAT-*%
X181096800Y-128727200D02*
X181904000Y-128727200D01*
X181003600Y-128820400D02*
X181096800Y-128727200D01*
X176352800Y-128820400D02*
X181003600Y-128820400D01*
X169508800Y-133643200D02*
X171530000Y-133643200D01*
X171530000Y-133643200D02*
X176352800Y-128820400D01*
%TO.N,/BMS & Power Path/BAT+*%
X178349200Y-124284000D02*
X182040000Y-124284000D01*
X167168000Y-128184000D02*
X142540000Y-128184000D01*
X175915600Y-125843200D02*
X176352800Y-126280400D01*
X169508800Y-125843200D02*
X175915600Y-125843200D01*
X176352800Y-126280400D02*
X178349200Y-124284000D01*
X169508800Y-125843200D02*
X167168000Y-128184000D01*
%TO.N,/+5V Boost Converter/PP_VCC_after_switch*%
X129681600Y-124460000D02*
X136957600Y-117184000D01*
X136957600Y-117184000D02*
X137540000Y-117184000D01*
X139545200Y-134148800D02*
X136474400Y-134148800D01*
X136474400Y-134148800D02*
X129681600Y-127356000D01*
X129681600Y-127356000D02*
X129681600Y-124460000D01*
D39*
%TO.N,/LED Matrices Drivers/MOSI*%
X174939716Y-80592076D02*
X170831124Y-80592076D01*
D40*
X170728000Y-76098400D02*
X170728000Y-76301600D01*
D39*
X178659400Y-82446000D02*
X179810400Y-81295000D01*
D40*
X170728000Y-76708000D02*
X170524800Y-76504800D01*
D39*
X176793640Y-82446000D02*
X178659400Y-82446000D01*
X174939716Y-80592076D02*
X176793640Y-82446000D01*
D40*
X170728000Y-76301600D02*
X170524800Y-76504800D01*
X170728000Y-78419400D02*
X170728000Y-76708000D01*
D39*
X170728000Y-80695200D02*
X161790000Y-80695200D01*
D40*
X171777000Y-75049400D02*
X170728000Y-76098400D01*
D39*
X170831124Y-80592076D02*
X170728000Y-80695200D01*
D40*
X171777000Y-70104000D02*
X171777000Y-75049400D01*
%TO.N,/LED Matrices Drivers/SCK*%
X142223000Y-35880000D02*
X141923001Y-35580001D01*
X153446550Y-35661600D02*
X152600150Y-36508000D01*
X151772671Y-53769353D02*
X144092444Y-53769353D01*
X154188118Y-56184800D02*
X151772671Y-53769353D01*
X142172200Y-56184800D02*
X142223000Y-56134000D01*
X165130000Y-78445200D02*
X164428800Y-78445200D01*
X160340000Y-78445200D02*
X162278800Y-78445200D01*
X138825600Y-56184800D02*
X142172200Y-56184800D01*
X147596800Y-36508000D02*
X146968800Y-35880000D01*
X154749000Y-56184800D02*
X154188118Y-56184800D01*
X166054400Y-79959200D02*
X175934600Y-79959200D01*
X152600150Y-36508000D02*
X147596800Y-36508000D01*
X163438400Y-75082400D02*
X163904898Y-75548898D01*
X137588000Y-37377757D02*
X137588000Y-37971615D01*
X139322900Y-75082400D02*
X163438400Y-75082400D01*
X137588000Y-57422400D02*
X137588000Y-46862787D01*
X141923001Y-35580001D02*
X139385756Y-35580001D01*
X162258600Y-35661600D02*
X153446550Y-35661600D01*
X163904898Y-75548898D02*
X163904898Y-76819102D01*
X164428800Y-78445200D02*
X164540400Y-78445200D01*
X156758000Y-56134000D02*
X156707200Y-56184800D01*
X139385756Y-35580001D02*
X137588000Y-37377757D01*
X162477000Y-56134000D02*
X156758000Y-56134000D01*
X162477000Y-35880000D02*
X162258600Y-35661600D01*
X137588000Y-58940284D02*
X137588000Y-57422400D01*
X167070400Y-76504800D02*
X165130000Y-78445200D01*
X144092444Y-53769353D02*
X142223000Y-55638797D01*
X142223000Y-55638797D02*
X142223000Y-56134000D01*
X146968800Y-35880000D02*
X142223000Y-35880000D01*
X163904898Y-76819102D02*
X162278800Y-78445200D01*
X175934600Y-79959200D02*
X177270400Y-81295000D01*
X162278800Y-78445200D02*
X164428800Y-78445200D01*
X137588000Y-57422400D02*
X138825600Y-56184800D01*
X164540400Y-78445200D02*
X166054400Y-79959200D01*
%TO.N,/Microcontroller/MISO*%
X166451067Y-79146400D02*
X176879000Y-79146400D01*
X166365267Y-79232200D02*
X166451067Y-79146400D01*
X164962268Y-79895200D02*
X161790000Y-79895200D01*
X165062268Y-79995200D02*
X164962268Y-79895200D01*
X176879000Y-79146400D02*
X177270400Y-78755000D01*
D39*
%TO.N,Net-(Q3-C)*%
X172556800Y-95605600D02*
X173979200Y-94183200D01*
X170508800Y-95605600D02*
X170508800Y-100121600D01*
X173977500Y-94181500D02*
X173977500Y-92184000D01*
X173979200Y-94183200D02*
X173977500Y-94181500D01*
X170508800Y-95605600D02*
X172556800Y-95605600D01*
X170508800Y-100121600D02*
X172495200Y-102108000D01*
%TO.N,Net-(Q1-S)*%
X157642000Y-120888000D02*
X157642000Y-118285500D01*
X158040000Y-121479275D02*
X158040000Y-121286000D01*
X158040000Y-121286000D02*
X157642000Y-120888000D01*
X158170125Y-121609400D02*
X158040000Y-121479275D01*
%TO.N,/Microcontroller/MCU_TXD*%
X158219500Y-114883000D02*
X156692000Y-116410500D01*
X141540000Y-94184000D02*
X151028800Y-84695200D01*
X168540000Y-116184000D02*
X167239000Y-114883000D01*
X141540000Y-97266497D02*
X141540000Y-94184000D01*
X144266500Y-116410500D02*
X156692000Y-116410500D01*
X167239000Y-114883000D02*
X158219500Y-114883000D01*
X151028800Y-84695200D02*
X153290000Y-84695200D01*
X141540000Y-113684000D02*
X144266500Y-116410500D01*
X141540000Y-99104905D02*
X141540000Y-113684000D01*
%TO.N,Net-(Q3-B)*%
X172102500Y-89246500D02*
X172040000Y-89184000D01*
X172102500Y-91234000D02*
X172102500Y-89246500D01*
%TO.N,/LED Matrices Drivers/CS*%
X174385600Y-76098400D02*
X175625600Y-76098400D01*
D40*
X166664000Y-81584800D02*
X173776000Y-81584800D01*
X172760000Y-33426400D02*
X153049600Y-33426400D01*
X176824000Y-34645600D02*
X176824000Y-55778400D01*
X171777000Y-56134000D02*
X172760000Y-55151000D01*
X176540000Y-68968000D02*
X176824000Y-68684000D01*
X171777000Y-34409400D02*
X171777000Y-35880000D01*
X169389400Y-53746400D02*
X171777000Y-56134000D01*
X161790000Y-83095200D02*
X161841000Y-83044200D01*
X156704402Y-53746400D02*
X169389400Y-53746400D01*
X151523000Y-34953000D02*
X151523000Y-35880000D01*
X165204600Y-83044200D02*
X166664000Y-81584800D01*
X151523000Y-54725600D02*
X151523000Y-56134000D01*
X176824000Y-55168800D02*
X176824000Y-55778400D01*
X172760000Y-55151000D02*
X172760000Y-54356000D01*
X175198400Y-53543200D02*
X176824000Y-55168800D01*
X151424000Y-54626600D02*
X151523000Y-54725600D01*
D39*
X175625600Y-76098400D02*
X176540000Y-75184000D01*
D40*
X153049600Y-33426400D02*
X151523000Y-34953000D01*
X161841000Y-83044200D02*
X165204600Y-83044200D01*
X175604800Y-33426400D02*
X176824000Y-34645600D01*
X173979200Y-78419400D02*
X173979200Y-76504800D01*
X176540000Y-75184000D02*
X176540000Y-68968000D01*
D39*
X173979200Y-76504800D02*
X174385600Y-76098400D01*
D40*
X176824000Y-55778400D02*
X176824000Y-68684000D01*
X172760000Y-54356000D02*
X173572800Y-53543200D01*
X173776000Y-81584800D02*
X173979200Y-81381600D01*
X172760000Y-33426400D02*
X175604800Y-33426400D01*
X172760000Y-33426400D02*
X171777000Y-34409400D01*
X173572800Y-53543200D02*
X175198400Y-53543200D01*
D39*
%TO.N,Net-(U6-NO)*%
X159500000Y-98195200D02*
X159500000Y-96148000D01*
X157040000Y-95184000D02*
X158536000Y-95184000D01*
X159500000Y-96148000D02*
X158536000Y-95184000D01*
%TO.N,Net-(U6-CHANNEL_A)*%
X142040000Y-111684000D02*
X143051200Y-112695200D01*
X143077500Y-103684000D02*
X142040000Y-104721500D01*
X142040000Y-104721500D02*
X142040000Y-111684000D01*
X143051200Y-112695200D02*
X154500000Y-112695200D01*
X143040000Y-103146500D02*
X143040000Y-101684000D01*
X143077500Y-103184000D02*
X143040000Y-103146500D01*
X143077500Y-103684000D02*
X143077500Y-103184000D01*
%TO.N,Net-(U6-CHANNEL_B)*%
X159500000Y-112695200D02*
X166242000Y-112695200D01*
X166242000Y-112695200D02*
X167273600Y-111663600D01*
X167273600Y-111663600D02*
X167356400Y-111663600D01*
X167356400Y-111663600D02*
X169524800Y-109495200D01*
%TO.N,/Microcontroller/SPEAKER*%
X172040000Y-87184000D02*
X170040000Y-85184000D01*
X165540000Y-84684000D02*
X166040000Y-85184000D01*
X165351200Y-81495200D02*
X161790000Y-81495200D01*
X165540000Y-84173200D02*
X165540000Y-84684000D01*
X166040000Y-85184000D02*
X170040000Y-85184000D01*
D38*
%TO.N,Net-(U7-ISET)*%
X156885000Y-60484000D02*
X157666500Y-61265500D01*
X160233501Y-61265500D02*
X161452001Y-62484000D01*
X161452001Y-62484000D02*
X162477000Y-62484000D01*
X157666500Y-61265500D02*
X160233501Y-61265500D01*
%TO.N,Net-(U8-ISET)*%
X141060800Y-62484000D02*
X142223000Y-62484000D01*
X137025500Y-61082500D02*
X139659300Y-61082500D01*
X135930000Y-59987000D02*
X137025500Y-61082500D01*
X139659300Y-61082500D02*
X141060800Y-62484000D01*
%TO.N,Net-(U9-ISET)*%
X159021600Y-41011500D02*
X159995151Y-41011500D01*
X157113600Y-39103500D02*
X159021600Y-41011500D01*
X161213651Y-42230000D02*
X162477000Y-42230000D01*
X159995151Y-41011500D02*
X161213651Y-42230000D01*
%TO.N,Net-(U10-ISET)*%
X141142651Y-42230000D02*
X142223000Y-42230000D01*
X135930000Y-39103500D02*
X137655000Y-40828500D01*
X139741151Y-40828500D02*
X141142651Y-42230000D01*
X137655000Y-40828500D02*
X139741151Y-40828500D01*
D40*
%TO.N,/LED Matrices Drivers/Mat1A.DIG_0*%
X173540000Y-69572001D02*
X173540000Y-71184000D01*
X171777000Y-68834000D02*
X172801999Y-68834000D01*
X174527000Y-72171000D02*
X174527000Y-72604000D01*
X172801999Y-68834000D02*
X173540000Y-69572001D01*
X173540000Y-71184000D02*
X174527000Y-72171000D01*
%TO.N,/LED Matrices Drivers/Mat1A.SEG_E*%
X160974400Y-66771601D02*
X160974400Y-68596600D01*
X162477000Y-66294000D02*
X161452001Y-66294000D01*
X161452001Y-66294000D02*
X160974400Y-66771601D01*
X160974400Y-68596600D02*
X159507000Y-70064000D01*
%TO.N,/LED Matrices Drivers/Mat1A.SEG_D*%
X162041850Y-68834000D02*
X160974400Y-69901450D01*
X162477000Y-68834000D02*
X162041850Y-68834000D01*
X160974400Y-69901450D02*
X160974400Y-71136600D01*
X160974400Y-71136600D02*
X159507000Y-72604000D01*
%TO.N,/LED Matrices Drivers/Mat1A.DIG_6*%
X169525734Y-62094534D02*
X168017200Y-60586000D01*
X171777000Y-65024000D02*
X170790800Y-65024000D01*
X161413850Y-60586000D02*
X160495000Y-59667150D01*
X169508800Y-62094534D02*
X169525734Y-62094534D01*
X168017200Y-60586000D02*
X161413850Y-60586000D01*
X160495000Y-59667150D02*
X160495000Y-59494757D01*
X159507000Y-57364000D02*
X159507000Y-58506757D01*
X169508800Y-63742000D02*
X169508800Y-62094534D01*
X170790800Y-65024000D02*
X169508800Y-63742000D01*
X160495000Y-59494757D02*
X159507000Y-58506757D01*
%TO.N,/LED Matrices Drivers/Mat1A.SEG_B*%
X168188000Y-59944000D02*
X170086000Y-61842000D01*
X175198400Y-61264800D02*
X175808000Y-60655200D01*
X173605200Y-61842000D02*
X174182400Y-61264800D01*
X162477000Y-59944000D02*
X168188000Y-59944000D01*
X170086000Y-61842000D02*
X173605200Y-61842000D01*
X174182400Y-61264800D02*
X175198400Y-61264800D01*
X175808000Y-60655200D02*
X175808000Y-58645000D01*
X175808000Y-58645000D02*
X174527000Y-57364000D01*
%TO.N,/LED Matrices Drivers/Mat1A.SEG_DP*%
X164022400Y-67564000D02*
X164650400Y-68192000D01*
X162477000Y-67564000D02*
X164022400Y-67564000D01*
X173554401Y-68192000D02*
X173874401Y-68512000D01*
X175515000Y-67933243D02*
X175515000Y-63432000D01*
X174936243Y-68512000D02*
X175515000Y-67933243D01*
X175515000Y-63432000D02*
X174527000Y-62444000D01*
X173874401Y-68512000D02*
X174936243Y-68512000D01*
X164650400Y-68192000D02*
X173554401Y-68192000D01*
%TO.N,/LED Matrices Drivers/Mat1A.DIG_1*%
X172353600Y-57404000D02*
X173776000Y-55981600D01*
X171777000Y-57404000D02*
X172353600Y-57404000D01*
X176263000Y-68328000D02*
X174527000Y-70064000D01*
X176263000Y-57046200D02*
X176263000Y-68328000D01*
X175198400Y-55981600D02*
X176263000Y-57046200D01*
X173776000Y-55981600D02*
X175198400Y-55981600D01*
%TO.N,/LED Matrices Drivers/Mat1A.SEG_G*%
X163017449Y-61214000D02*
X164084249Y-62280800D01*
X167540000Y-63817135D02*
X165705135Y-65652000D01*
X165705135Y-65652000D02*
X160175000Y-65652000D01*
X167136800Y-62280800D02*
X167540000Y-62684000D01*
X167540000Y-62684000D02*
X167540000Y-63817135D01*
X162477000Y-61214000D02*
X163017449Y-61214000D01*
X164084249Y-62280800D02*
X167136800Y-62280800D01*
X160175000Y-65652000D02*
X159507000Y-64984000D01*
X163018865Y-61214000D02*
X162477000Y-61214000D01*
%TO.N,/LED Matrices Drivers/Mat1A.DIG_4*%
X168100732Y-61313000D02*
X169053800Y-62266068D01*
X164145997Y-61313000D02*
X168100732Y-61313000D01*
X169053800Y-62266068D02*
X169053800Y-66318418D01*
X169053800Y-66318418D02*
X170299382Y-67564000D01*
X170299382Y-67564000D02*
X171777000Y-67564000D01*
%TO.N,/LED Matrices Drivers/Mat1A.SEG_C*%
X165200000Y-65024000D02*
X162477000Y-65024000D01*
X166540000Y-63684000D02*
X165200000Y-65024000D01*
%TO.N,/LED Matrices Drivers/Mat1A.SEG_F*%
X161264607Y-58674000D02*
X162477000Y-58674000D01*
X160889327Y-58488107D02*
X160890034Y-58487400D01*
X160890034Y-58487400D02*
X161078007Y-58487400D01*
X161078007Y-58487400D02*
X161264607Y-58674000D01*
%TO.N,/LED Matrices Drivers/Mat1A.DIG_7*%
X164968044Y-58612044D02*
X164968044Y-56927244D01*
X168376468Y-59489000D02*
X165845000Y-59489000D01*
X171777000Y-61214000D02*
X170101468Y-61214000D01*
X162864800Y-54824000D02*
X159507000Y-54824000D01*
X163830000Y-55781850D02*
X163554150Y-55506000D01*
X163546800Y-55506000D02*
X162864800Y-54824000D01*
X164968044Y-56927244D02*
X163830000Y-55789200D01*
X165845000Y-59489000D02*
X164968044Y-58612044D01*
X163554150Y-55506000D02*
X163546800Y-55506000D01*
X170101468Y-61214000D02*
X168376468Y-59489000D01*
X163830000Y-55789200D02*
X163830000Y-55781850D01*
%TO.N,/LED Matrices Drivers/Mat1A.DIG_3*%
X172801999Y-62484000D02*
X174527000Y-64209001D01*
X171777000Y-62484000D02*
X172801999Y-62484000D01*
X174527000Y-64209001D02*
X174527000Y-64984000D01*
%TO.N,/LED Matrices Drivers/Mat1A.DIG_5*%
X165972156Y-58501000D02*
X171604000Y-58501000D01*
X165695044Y-57404000D02*
X165871178Y-57580134D01*
X165871178Y-57580134D02*
X165871178Y-58400022D01*
X165871178Y-58400022D02*
X165972156Y-58501000D01*
X171604000Y-58501000D02*
X171777000Y-58674000D01*
%TO.N,/LED Matrices Drivers/Mat1A.DIG_2*%
X173539000Y-66536000D02*
X174527000Y-67524000D01*
X172718243Y-63754000D02*
X173539000Y-64574757D01*
X171777000Y-63754000D02*
X172718243Y-63754000D01*
X173539000Y-64574757D02*
X173539000Y-66536000D01*
%TO.N,/LED Matrices Drivers/Mat1A.SEG_A*%
X165026209Y-55957275D02*
X166436475Y-55957275D01*
X166436475Y-55957275D02*
X168525200Y-58046000D01*
X173602380Y-58046000D02*
X174527000Y-58970620D01*
X162477000Y-57404000D02*
X164225600Y-57404000D01*
X168525200Y-58046000D02*
X173602380Y-58046000D01*
X174527000Y-58970620D02*
X174527000Y-59904000D01*
%TO.N,Net-(U7-DOUT)*%
X162477000Y-70535404D02*
X162477000Y-70104000D01*
X159564700Y-74053700D02*
X162600000Y-71018400D01*
X152643200Y-72757039D02*
X152643200Y-71224200D01*
X157220527Y-73633885D02*
X157640342Y-74053700D01*
X157640342Y-74053700D02*
X159564700Y-74053700D01*
X157113600Y-73633885D02*
X157220527Y-73633885D01*
X162600000Y-71018400D02*
X162600000Y-70658404D01*
X162600000Y-70658404D02*
X162477000Y-70535404D01*
X152643200Y-71224200D02*
X151523000Y-70104000D01*
%TO.N,/LED Matrices Drivers/Mat1B.DIG_3*%
X154273000Y-64209001D02*
X154273000Y-64984000D01*
X152547999Y-62484000D02*
X154273000Y-64209001D01*
X151523000Y-62484000D02*
X152547999Y-62484000D01*
%TO.N,/LED Matrices Drivers/Mat1B.SEG_F*%
X142223000Y-58674000D02*
X141520424Y-58674000D01*
X141520424Y-58674000D02*
X140554012Y-57707588D01*
%TO.N,/LED Matrices Drivers/Mat1B.DIG_5*%
X144477450Y-58172360D02*
X145376446Y-58172360D01*
X145420886Y-58216800D02*
X148376000Y-58216800D01*
X145376446Y-58172360D02*
X145420886Y-58216800D01*
X148833200Y-58674000D02*
X151523000Y-58674000D01*
X148376000Y-58216800D02*
X148833200Y-58674000D01*
%TO.N,/LED Matrices Drivers/Mat1B.SEG_D*%
X140857600Y-69174401D02*
X140857600Y-70999400D01*
X142223000Y-68834000D02*
X141198001Y-68834000D01*
X141198001Y-68834000D02*
X140857600Y-69174401D01*
X140857600Y-70999400D02*
X139253000Y-72604000D01*
%TO.N,/LED Matrices Drivers/Mat1B.DIG_4*%
X144132914Y-61299000D02*
X145175582Y-61299000D01*
X149865800Y-67564000D02*
X151523000Y-67564000D01*
X148163751Y-61662151D02*
X148985600Y-62484000D01*
X148985600Y-62484000D02*
X148985600Y-66683800D01*
X145175582Y-61299000D02*
X145538733Y-61662151D01*
X148985600Y-66683800D02*
X149865800Y-67564000D01*
X145538733Y-61662151D02*
X148163751Y-61662151D01*
%TO.N,/LED Matrices Drivers/Mat1B.SEG_C*%
X145564950Y-64989000D02*
X143229400Y-64989000D01*
X143194400Y-65024000D02*
X142223000Y-65024000D01*
X147322900Y-63231050D02*
X145564950Y-64989000D01*
X147342950Y-63211000D02*
X147363000Y-63231050D01*
X143229400Y-64989000D02*
X143194400Y-65024000D01*
X147363000Y-63231050D02*
X147322900Y-63231050D01*
%TO.N,/LED Matrices Drivers/Mat1B.SEG_G*%
X143019782Y-61214000D02*
X144289782Y-62484000D01*
X146108400Y-65666000D02*
X139935000Y-65666000D01*
X147766400Y-62484000D02*
X148376000Y-63093600D01*
X148376000Y-63398400D02*
X146108400Y-65666000D01*
X139935000Y-65666000D02*
X139253000Y-64984000D01*
X144289782Y-62484000D02*
X147766400Y-62484000D01*
X148376000Y-63093600D02*
X148376000Y-63398400D01*
X142223000Y-61214000D02*
X143019782Y-61214000D01*
%TO.N,/LED Matrices Drivers/Mat1B.DIG_6*%
X150001600Y-62664570D02*
X147909030Y-60572000D01*
X150001600Y-64312800D02*
X150001600Y-62664570D01*
X147909030Y-60572000D02*
X141145850Y-60572000D01*
X139253000Y-57831400D02*
X139253000Y-57364000D01*
X141145850Y-60572000D02*
X140451200Y-59877350D01*
X150712800Y-65024000D02*
X150001600Y-64312800D01*
X140451200Y-59029600D02*
X139253000Y-57831400D01*
X151523000Y-65024000D02*
X150712800Y-65024000D01*
X140451200Y-59877350D02*
X140451200Y-59029600D01*
%TO.N,/LED Matrices Drivers/Mat1B.DIG_7*%
X150508400Y-61152400D02*
X151591250Y-61152400D01*
X149188800Y-59546710D02*
X149188800Y-60332800D01*
X144459804Y-55926204D02*
X144459804Y-57160458D01*
X143749450Y-57870812D02*
X143749450Y-58517240D01*
X144365182Y-59132972D02*
X148775062Y-59132972D01*
X149188800Y-60332800D02*
X150040000Y-61184000D01*
X143924012Y-55390412D02*
X144459804Y-55926204D01*
X150040000Y-61184000D02*
X150476800Y-61184000D01*
X148775062Y-59132972D02*
X149188800Y-59546710D01*
X150476800Y-61184000D02*
X150508400Y-61152400D01*
X143749450Y-58517240D02*
X144365182Y-59132972D01*
X144459804Y-57160458D02*
X143749450Y-57870812D01*
%TO.N,/LED Matrices Drivers/Mat1B.SEG_A*%
X142971352Y-57404000D02*
X142223000Y-57404000D01*
X149034600Y-58046000D02*
X152600150Y-58046000D01*
X148260000Y-57404000D02*
X148392600Y-57404000D01*
X154273000Y-59718850D02*
X154273000Y-59904000D01*
X148392600Y-57404000D02*
X149034600Y-58046000D01*
X143561064Y-56814288D02*
X142971352Y-57404000D01*
X152600150Y-58046000D02*
X154273000Y-59718850D01*
X145187804Y-56639127D02*
X145232677Y-56684000D01*
X145232677Y-56684000D02*
X147540000Y-56684000D01*
X147540000Y-56684000D02*
X148260000Y-57404000D01*
X143720312Y-56814288D02*
X143561064Y-56814288D01*
%TO.N,Net-(U8-DOUT)*%
X144921600Y-71221600D02*
X143804000Y-70104000D01*
X162650000Y-53019400D02*
X165819400Y-49850000D01*
X162600000Y-53019400D02*
X162650000Y-53019400D01*
X143804000Y-70104000D02*
X142223000Y-70104000D01*
X165819400Y-49850000D02*
X171777000Y-49850000D01*
X151343977Y-71221600D02*
X144921600Y-71221600D01*
%TO.N,/LED Matrices Drivers/Mat1B.DIG_0*%
X151523000Y-68834000D02*
X152547999Y-68834000D01*
X153252800Y-71583800D02*
X154273000Y-72604000D01*
X153252800Y-69538801D02*
X153252800Y-71583800D01*
X152547999Y-68834000D02*
X153252800Y-69538801D01*
%TO.N,/LED Matrices Drivers/Mat1B.DIG_1*%
X154134774Y-58623200D02*
X152915574Y-57404000D01*
X152915574Y-57404000D02*
X151523000Y-57404000D01*
X154604339Y-58623200D02*
X154134774Y-58623200D01*
%TO.N,/LED Matrices Drivers/Mat1B.SEG_E*%
X141198001Y-66294000D02*
X140857600Y-66634401D01*
X140857600Y-66634401D02*
X140857600Y-68173600D01*
X139253000Y-69778200D02*
X139253000Y-70064000D01*
X142223000Y-66294000D02*
X141198001Y-66294000D01*
X140857600Y-68173600D02*
X139253000Y-69778200D01*
%TO.N,/LED Matrices Drivers/Mat1B.DIG_2*%
X152464243Y-63754000D02*
X153285000Y-64574757D01*
X153285000Y-64574757D02*
X153285000Y-66536000D01*
X151523000Y-63754000D02*
X152464243Y-63754000D01*
X153285000Y-66536000D02*
X154273000Y-67524000D01*
%TO.N,/LED Matrices Drivers/Mat1B.SEG_B*%
X148240976Y-59842400D02*
X142324600Y-59842400D01*
X148338337Y-59939761D02*
X148240976Y-59842400D01*
X142324600Y-59842400D02*
X142223000Y-59944000D01*
%TO.N,/LED Matrices Drivers/Mat1B.SEG_DP*%
X148985600Y-67564000D02*
X142223000Y-67564000D01*
X149798400Y-68376800D02*
X148985600Y-67564000D01*
%TO.N,/LED Matrices Drivers/Mat2A.DIG_0*%
X173539000Y-49400757D02*
X173539000Y-51362000D01*
X172718243Y-48580000D02*
X173539000Y-49400757D01*
X171777000Y-48580000D02*
X172718243Y-48580000D01*
X173539000Y-51362000D02*
X174527000Y-52350000D01*
%TO.N,/LED Matrices Drivers/Mat2A.DIG_6*%
X159507000Y-37662148D02*
X159507000Y-37110000D01*
X171777000Y-44770000D02*
X170116668Y-44770000D01*
X161124000Y-39279148D02*
X159507000Y-37662148D01*
X161399850Y-40318000D02*
X161124000Y-40042150D01*
X170116668Y-44770000D02*
X165664668Y-40318000D01*
X165664668Y-40318000D02*
X161399850Y-40318000D01*
X161124000Y-40042150D02*
X161124000Y-39279148D01*
%TO.N,/LED Matrices Drivers/Mat2A.DIG_5*%
X166034900Y-38420000D02*
X165948500Y-38506400D01*
X171777000Y-38420000D02*
X166034900Y-38420000D01*
%TO.N,/LED Matrices Drivers/Mat2A.SEG_F*%
X161294400Y-38420000D02*
X162477000Y-38420000D01*
X160974400Y-38100000D02*
X161294400Y-38420000D01*
%TO.N,/LED Matrices Drivers/Mat2A.SEG_C*%
X165496576Y-44770000D02*
X162477000Y-44770000D01*
X166601668Y-43664908D02*
X165496576Y-44770000D01*
%TO.N,/LED Matrices Drivers/Mat2A.DIG_1*%
X175198400Y-35864800D02*
X176214400Y-36880800D01*
X173859200Y-35864800D02*
X175198400Y-35864800D01*
X172574000Y-37150000D02*
X173859200Y-35864800D01*
X176214400Y-36880800D02*
X176214400Y-48122600D01*
X176214400Y-48122600D02*
X174527000Y-49810000D01*
X171777000Y-37150000D02*
X172574000Y-37150000D01*
%TO.N,/LED Matrices Drivers/Mat2A.DIG_4*%
X168289600Y-43586400D02*
X168289600Y-45415200D01*
X164944511Y-41445089D02*
X166148289Y-41445089D01*
X171711000Y-47244000D02*
X171777000Y-47310000D01*
X168289600Y-45415200D02*
X170118400Y-47244000D01*
X166148289Y-41445089D02*
X168289600Y-43586400D01*
X170118400Y-47244000D02*
X171711000Y-47244000D01*
%TO.N,/LED Matrices Drivers/Mat2A.SEG_DP*%
X174117757Y-48258000D02*
X174936243Y-48258000D01*
X174936243Y-48258000D02*
X175515000Y-47679243D01*
X175515000Y-47679243D02*
X175515000Y-43178000D01*
X162477000Y-47310000D02*
X163885200Y-47310000D01*
X163885200Y-47310000D02*
X164513200Y-47938000D01*
X175515000Y-43178000D02*
X174527000Y-42190000D01*
X164513200Y-47938000D02*
X173797757Y-47938000D01*
X173797757Y-47938000D02*
X174117757Y-48258000D01*
%TO.N,/LED Matrices Drivers/Mat2A.DIG_7*%
X165040000Y-36737850D02*
X162872150Y-34570000D01*
X169262150Y-40960000D02*
X167536007Y-39233857D01*
X171777000Y-40960000D02*
X169262150Y-40960000D01*
X165040000Y-39233857D02*
X165040000Y-36737850D01*
X162872150Y-34570000D02*
X159507000Y-34570000D01*
X167536007Y-39233857D02*
X165040000Y-39233857D01*
%TO.N,/LED Matrices Drivers/Mat2A.SEG_E*%
X162477000Y-46040000D02*
X161452001Y-46040000D01*
X161452001Y-46040000D02*
X160771200Y-46720801D01*
X160771200Y-48545800D02*
X159507000Y-49810000D01*
X160771200Y-46720801D02*
X160771200Y-48545800D01*
%TO.N,Net-(U10-DIN)*%
X156810800Y-50798000D02*
X161529000Y-50798000D01*
X161529000Y-50798000D02*
X162477000Y-49850000D01*
X156707200Y-50901600D02*
X156810800Y-50798000D01*
X153306758Y-50901600D02*
X152574600Y-50901600D01*
X152574600Y-50901600D02*
X151523000Y-49850000D01*
%TO.N,/LED Matrices Drivers/Mat2A.SEG_D*%
X162167600Y-52350000D02*
X159507000Y-52350000D01*
X164022400Y-50495200D02*
X162167600Y-52350000D01*
X164022400Y-49072800D02*
X164022400Y-50495200D01*
X162477000Y-48580000D02*
X163529600Y-48580000D01*
X163529600Y-48580000D02*
X164022400Y-49072800D01*
%TO.N,/LED Matrices Drivers/Mat2A.SEG_B*%
X162477000Y-39690000D02*
X167348682Y-39690000D01*
X175515000Y-40425000D02*
X175515000Y-38098000D01*
X173497350Y-40944800D02*
X174995200Y-40944800D01*
X174995200Y-40944800D02*
X175515000Y-40425000D01*
X175515000Y-38098000D02*
X174527000Y-37110000D01*
X167348682Y-39690000D02*
X169246682Y-41588000D01*
X169246682Y-41588000D02*
X172854150Y-41588000D01*
X172854150Y-41588000D02*
X173497350Y-40944800D01*
%TO.N,/LED Matrices Drivers/Mat2A.SEG_A*%
X173588380Y-37778000D02*
X174527000Y-38716620D01*
X164040000Y-37150000D02*
X162477000Y-37150000D01*
X167070400Y-37490400D02*
X167358000Y-37778000D01*
X167358000Y-37778000D02*
X173588380Y-37778000D01*
X165870072Y-37490400D02*
X167070400Y-37490400D01*
X174527000Y-38716620D02*
X174527000Y-39650000D01*
%TO.N,/LED Matrices Drivers/Mat2A.DIG_3*%
X172216400Y-42230000D02*
X174527000Y-44540600D01*
X174527000Y-44540600D02*
X174527000Y-44730000D01*
X171777000Y-42230000D02*
X172216400Y-42230000D01*
D39*
%TO.N,/LED Matrices Drivers/Mat2A.SEG_G*%
X167680000Y-43657051D02*
X167680000Y-44399200D01*
X160189000Y-45412000D02*
X159507000Y-44730000D01*
X167680000Y-44399200D02*
X166664000Y-45415200D01*
X164437146Y-42223312D02*
X166246261Y-42223312D01*
X166660800Y-45412000D02*
X160189000Y-45412000D01*
X162477000Y-40960000D02*
X163173834Y-40960000D01*
X163173834Y-40960000D02*
X164437146Y-42223312D01*
X166664000Y-45415200D02*
X166660800Y-45412000D01*
X166246261Y-42223312D02*
X167680000Y-43657051D01*
D40*
%TO.N,/LED Matrices Drivers/Mat2A.DIG_2*%
X173539000Y-44320757D02*
X173539000Y-46282000D01*
X172718243Y-43500000D02*
X173539000Y-44320757D01*
X173539000Y-46282000D02*
X174527000Y-47270000D01*
X171777000Y-43500000D02*
X172718243Y-43500000D01*
%TO.N,/LED Matrices Drivers/Mat2B.DIG_2*%
X152547999Y-43500000D02*
X153285000Y-44237001D01*
X153285000Y-44237001D02*
X153285000Y-46282000D01*
X153285000Y-46282000D02*
X154273000Y-47270000D01*
X151523000Y-43500000D02*
X152547999Y-43500000D01*
%TO.N,/LED Matrices Drivers/Mat2B.SEG_E*%
X142223000Y-46040000D02*
X141198001Y-46040000D01*
X140654400Y-46583601D02*
X140654400Y-48408600D01*
X140654400Y-48408600D02*
X139253000Y-49810000D01*
X141198001Y-46040000D02*
X140654400Y-46583601D01*
%TO.N,/LED Matrices Drivers/Mat2B.SEG_G*%
X142911763Y-40960000D02*
X143911296Y-41959533D01*
X142223000Y-40960000D02*
X142911763Y-40960000D01*
X145815533Y-41959533D02*
X147040000Y-43184000D01*
X143911296Y-41959533D02*
X145815533Y-41959533D01*
X139935000Y-45412000D02*
X139253000Y-44730000D01*
X146812000Y-45412000D02*
X147040000Y-45184000D01*
X146812000Y-45412000D02*
X139935000Y-45412000D01*
X147040000Y-45184000D02*
X147040000Y-43184000D01*
%TO.N,/LED Matrices Drivers/Mat2B.SEG_D*%
X140654400Y-50948600D02*
X139253000Y-52350000D01*
X141198001Y-48580000D02*
X140654400Y-49123601D01*
X142223000Y-48580000D02*
X141198001Y-48580000D01*
X140654400Y-49123601D02*
X140654400Y-50948600D01*
%TO.N,/LED Matrices Drivers/Mat2B.DIG_5*%
X145199199Y-38420000D02*
X151523000Y-38420000D01*
%TO.N,/LED Matrices Drivers/Mat2B.DIG_0*%
X151523000Y-48580000D02*
X151087850Y-48580000D01*
X151087850Y-48580000D02*
X150170000Y-49497850D01*
X150170000Y-49497850D02*
X150170000Y-50257200D01*
X150170000Y-50257200D02*
X152262800Y-52350000D01*
X152262800Y-52350000D02*
X154273000Y-52350000D01*
%TO.N,/LED Matrices Drivers/Mat2B.DIG_7*%
X144472199Y-38866199D02*
X144841000Y-39235000D01*
X140838541Y-36522000D02*
X143258163Y-36522000D01*
X140451200Y-36338600D02*
X140655141Y-36338600D01*
X143259163Y-36521000D02*
X144155400Y-36521000D01*
X144472199Y-36837799D02*
X144472199Y-38866199D01*
X144155400Y-36521000D02*
X144472199Y-36837799D01*
X147738150Y-40960000D02*
X151523000Y-40960000D01*
X146013150Y-39235000D02*
X147738150Y-40960000D01*
X140655141Y-36338600D02*
X140838541Y-36522000D01*
X144841000Y-39235000D02*
X146013150Y-39235000D01*
X143258163Y-36522000D02*
X143259163Y-36521000D01*
%TO.N,/LED Matrices Drivers/Mat2B.SEG_DP*%
X147540000Y-47184000D02*
X146540000Y-47184000D01*
X146414000Y-47310000D02*
X142223000Y-47310000D01*
X148232800Y-46491200D02*
X147540000Y-47184000D01*
X146540000Y-47184000D02*
X146414000Y-47310000D01*
%TO.N,/LED Matrices Drivers/Mat2B.DIG_4*%
X148985600Y-46228000D02*
X149070400Y-46312800D01*
X148985600Y-44196000D02*
X148985600Y-46228000D01*
X144058333Y-41078438D02*
X145868038Y-41078438D01*
X149070400Y-46312800D02*
X149070400Y-46326348D01*
X150067600Y-47310000D02*
X151523000Y-47310000D01*
X149496852Y-46752800D02*
X149510400Y-46752800D01*
X149510400Y-46752800D02*
X150067600Y-47310000D01*
X144024895Y-41045000D02*
X144058333Y-41078438D01*
X145868038Y-41078438D02*
X148985600Y-44196000D01*
X149070400Y-46326348D02*
X149496852Y-46752800D01*
%TO.N,/LED Matrices Drivers/Mat2B.DIG_1*%
X155733445Y-43071328D02*
X155733445Y-37173202D01*
X153863757Y-36122000D02*
X152835757Y-37150000D01*
X152835757Y-37150000D02*
X151523000Y-37150000D01*
X155733445Y-37173202D02*
X154682243Y-36122000D01*
X154682243Y-36122000D02*
X153863757Y-36122000D01*
D39*
%TO.N,/LED Matrices Drivers/Mat2B.SEG_A*%
X143702400Y-37287200D02*
X143628200Y-37287200D01*
X143491000Y-37150000D02*
X142223000Y-37150000D01*
X143628200Y-37287200D02*
X143491000Y-37150000D01*
D40*
X153348380Y-37792000D02*
X154273000Y-38716620D01*
X145199199Y-37287200D02*
X149955050Y-37287200D01*
X154273000Y-38716620D02*
X154273000Y-39650000D01*
X149955050Y-37287200D02*
X150459850Y-37792000D01*
X150459850Y-37792000D02*
X153348380Y-37792000D01*
%TO.N,/LED Matrices Drivers/Mat2B.SEG_F*%
X140993400Y-37829400D02*
X141584000Y-38420000D01*
X140591252Y-37829400D02*
X140993400Y-37829400D01*
X141584000Y-38420000D02*
X142223000Y-38420000D01*
%TO.N,/LED Matrices Drivers/Mat2B.DIG_6*%
X139841600Y-38709600D02*
X139841600Y-37698600D01*
X150001600Y-44602400D02*
X150001600Y-42773600D01*
X150001600Y-42773600D02*
X149392000Y-42164000D01*
X140870000Y-40042150D02*
X140870000Y-39738000D01*
X140870000Y-39738000D02*
X139841600Y-38709600D01*
X139841600Y-37698600D02*
X139253000Y-37110000D01*
X145809214Y-40318000D02*
X147655215Y-42164000D01*
X149392000Y-42164000D02*
X147655215Y-42164000D01*
X141145850Y-40318000D02*
X140870000Y-40042150D01*
X145809214Y-40318000D02*
X141145850Y-40318000D01*
X151523000Y-44770000D02*
X150169200Y-44770000D01*
X150169200Y-44770000D02*
X150001600Y-44602400D01*
%TO.N,/LED Matrices Drivers/Mat2B.SEG_B*%
X155261000Y-40562200D02*
X155261000Y-38098000D01*
X155261000Y-38098000D02*
X154273000Y-37110000D01*
X154878400Y-40944800D02*
X155261000Y-40562200D01*
X145824682Y-39690000D02*
X147722682Y-41588000D01*
X152913757Y-41588000D02*
X153556957Y-40944800D01*
X142223000Y-39690000D02*
X145824682Y-39690000D01*
X147722682Y-41588000D02*
X152913757Y-41588000D01*
X153556957Y-40944800D02*
X154878400Y-40944800D01*
%TO.N,/LED Matrices Drivers/Mat2B.SEG_C*%
X146151647Y-44572354D02*
X145954000Y-44770000D01*
X145954000Y-44770000D02*
X142223000Y-44770000D01*
%TO.N,/LED Matrices Drivers/Mat2B.DIG_3*%
X151523000Y-42230000D02*
X152547999Y-42230000D01*
X152547999Y-42230000D02*
X154273000Y-43955001D01*
X154273000Y-43955001D02*
X154273000Y-44730000D01*
%TD*%
M02*
