%TF.GenerationSoftware,KiCad,Pcbnew,9.0.0*%
%TF.CreationDate,2025-05-13T23:13:56+02:00*%
%TF.ProjectId,kitchen_timer-hardware,6b697463-6865-46e5-9f74-696d65722d68,rev?*%
%TF.SameCoordinates,Original*%
%TF.FileFunction,Paste,Top*%
%TF.FilePolarity,Positive*%
%FSLAX46Y46*%
G04 Gerber Fmt 4.6, Leading zero omitted, Abs format (unit mm)*
G04 Created by KiCad (PCBNEW 9.0.0) date 2025-05-13 23:13:56*
%MOMM*%
%LPD*%
G01*
G04 APERTURE LIST*
G04 Aperture macros list*
%AMRoundRect*
0 Rectangle with rounded corners*
0 $1 Rounding radius*
0 $2 $3 $4 $5 $6 $7 $8 $9 X,Y pos of 4 corners*
0 Add a 4 corners polygon primitive as box body*
4,1,4,$2,$3,$4,$5,$6,$7,$8,$9,$2,$3,0*
0 Add four circle primitives for the rounded corners*
1,1,$1+$1,$2,$3*
1,1,$1+$1,$4,$5*
1,1,$1+$1,$6,$7*
1,1,$1+$1,$8,$9*
0 Add four rect primitives between the rounded corners*
20,1,$1+$1,$2,$3,$4,$5,0*
20,1,$1+$1,$4,$5,$6,$7,0*
20,1,$1+$1,$6,$7,$8,$9,0*
20,1,$1+$1,$8,$9,$2,$3,0*%
G04 Aperture macros list end*
%ADD10RoundRect,0.250000X-0.337500X-0.475000X0.337500X-0.475000X0.337500X0.475000X-0.337500X0.475000X0*%
%ADD11RoundRect,0.237500X-0.287500X-0.237500X0.287500X-0.237500X0.287500X0.237500X-0.287500X0.237500X0*%
%ADD12RoundRect,0.250000X0.475000X-0.337500X0.475000X0.337500X-0.475000X0.337500X-0.475000X-0.337500X0*%
%ADD13RoundRect,0.250000X-0.450000X0.350000X-0.450000X-0.350000X0.450000X-0.350000X0.450000X0.350000X0*%
%ADD14RoundRect,0.250000X-0.475000X0.337500X-0.475000X-0.337500X0.475000X-0.337500X0.475000X0.337500X0*%
%ADD15R,1.050000X0.650000*%
%ADD16RoundRect,0.150000X0.875000X0.150000X-0.875000X0.150000X-0.875000X-0.150000X0.875000X-0.150000X0*%
%ADD17RoundRect,0.250000X0.350000X0.450000X-0.350000X0.450000X-0.350000X-0.450000X0.350000X-0.450000X0*%
%ADD18RoundRect,0.250000X-0.350000X-0.450000X0.350000X-0.450000X0.350000X0.450000X-0.350000X0.450000X0*%
%ADD19RoundRect,0.150000X0.150000X-0.587500X0.150000X0.587500X-0.150000X0.587500X-0.150000X-0.587500X0*%
%ADD20RoundRect,0.150000X-0.587500X-0.150000X0.587500X-0.150000X0.587500X0.150000X-0.587500X0.150000X0*%
%ADD21RoundRect,0.250000X0.450000X-0.350000X0.450000X0.350000X-0.450000X0.350000X-0.450000X-0.350000X0*%
%ADD22R,2.000000X2.000000*%
%ADD23R,0.550000X1.600000*%
%ADD24R,1.600000X0.550000*%
%ADD25RoundRect,0.250000X0.337500X0.475000X-0.337500X0.475000X-0.337500X-0.475000X0.337500X-0.475000X0*%
%ADD26RoundRect,0.125000X0.125000X0.125000X-0.125000X0.125000X-0.125000X-0.125000X0.125000X-0.125000X0*%
G04 APERTURE END LIST*
D10*
%TO.C,C8*%
X164002500Y-87184000D03*
X166077500Y-87184000D03*
%TD*%
D11*
%TO.C,D3*%
X142827400Y-78130400D03*
X144577400Y-78130400D03*
%TD*%
D12*
%TO.C,C12*%
X167273600Y-107615900D03*
X167273600Y-105540900D03*
%TD*%
D13*
%TO.C,R14*%
X143077500Y-103684000D03*
X143077500Y-105684000D03*
%TD*%
D14*
%TO.C,C15*%
X157113600Y-43114000D03*
X157113600Y-45189000D03*
%TD*%
D15*
%TO.C,SW2*%
X180888000Y-90932000D03*
X176738000Y-90932000D03*
X180888000Y-88782000D03*
X176738000Y-88782000D03*
%TD*%
D16*
%TO.C,U9*%
X171777000Y-49850000D03*
X171777000Y-48580000D03*
X171777000Y-47310000D03*
X171777000Y-46040000D03*
X171777000Y-44770000D03*
X171777000Y-43500000D03*
X171777000Y-42230000D03*
X171777000Y-40960000D03*
X171777000Y-39690000D03*
X171777000Y-38420000D03*
X171777000Y-37150000D03*
X171777000Y-35880000D03*
X162477000Y-35880000D03*
X162477000Y-37150000D03*
X162477000Y-38420000D03*
X162477000Y-39690000D03*
X162477000Y-40960000D03*
X162477000Y-42230000D03*
X162477000Y-43500000D03*
X162477000Y-44770000D03*
X162477000Y-46040000D03*
X162477000Y-47310000D03*
X162477000Y-48580000D03*
X162477000Y-49850000D03*
%TD*%
D17*
%TO.C,R13*%
X171524800Y-109495200D03*
X169524800Y-109495200D03*
%TD*%
D11*
%TO.C,D4*%
X142827400Y-80267400D03*
X144577400Y-80267400D03*
%TD*%
D14*
%TO.C,C5*%
X158540000Y-89146500D03*
X158540000Y-91221500D03*
%TD*%
D16*
%TO.C,U10*%
X151523000Y-49850000D03*
X151523000Y-48580000D03*
X151523000Y-47310000D03*
X151523000Y-46040000D03*
X151523000Y-44770000D03*
X151523000Y-43500000D03*
X151523000Y-42230000D03*
X151523000Y-40960000D03*
X151523000Y-39690000D03*
X151523000Y-38420000D03*
X151523000Y-37150000D03*
X151523000Y-35880000D03*
X142223000Y-35880000D03*
X142223000Y-37150000D03*
X142223000Y-38420000D03*
X142223000Y-39690000D03*
X142223000Y-40960000D03*
X142223000Y-42230000D03*
X142223000Y-43500000D03*
X142223000Y-44770000D03*
X142223000Y-46040000D03*
X142223000Y-47310000D03*
X142223000Y-48580000D03*
X142223000Y-49850000D03*
%TD*%
D18*
%TO.C,R1*%
X132040000Y-127184000D03*
X134040000Y-127184000D03*
%TD*%
D19*
%TO.C,Q1*%
X155742000Y-118285500D03*
X157642000Y-118285500D03*
X156692000Y-116410500D03*
%TD*%
D20*
%TO.C,Q3*%
X172102500Y-91234000D03*
X172102500Y-93134000D03*
X173977500Y-92184000D03*
%TD*%
D14*
%TO.C,C13*%
X156885000Y-64505000D03*
X156885000Y-66580000D03*
%TD*%
D21*
%TO.C,R11*%
X157040000Y-95184000D03*
X157040000Y-93184000D03*
%TD*%
%TO.C,R15*%
X167273600Y-111663600D03*
X167273600Y-109663600D03*
%TD*%
D14*
%TO.C,C10*%
X155540000Y-89146500D03*
X155540000Y-91221500D03*
%TD*%
%TO.C,C11*%
X143077500Y-107646500D03*
X143077500Y-109721500D03*
%TD*%
D17*
%TO.C,R7*%
X140513400Y-78130400D03*
X138513400Y-78130400D03*
%TD*%
D22*
%TO.C,U2*%
X146648800Y-122843200D03*
X146648800Y-136643200D03*
X169508800Y-122843200D03*
X169508800Y-125843200D03*
X169508800Y-133643200D03*
X169508800Y-136643200D03*
%TD*%
D11*
%TO.C,D5*%
X142827400Y-82630400D03*
X144577400Y-82630400D03*
%TD*%
D17*
%TO.C,R6*%
X178540000Y-75184000D03*
X176540000Y-75184000D03*
%TD*%
D10*
%TO.C,C6*%
X159502500Y-76184000D03*
X161577500Y-76184000D03*
%TD*%
D17*
%TO.C,R9*%
X140513400Y-80267400D03*
X138513400Y-80267400D03*
%TD*%
D19*
%TO.C,D1*%
X160594000Y-118285500D03*
X162494000Y-118285500D03*
X161544000Y-116410500D03*
%TD*%
D16*
%TO.C,U7*%
X171777000Y-70104000D03*
X171777000Y-68834000D03*
X171777000Y-67564000D03*
X171777000Y-66294000D03*
X171777000Y-65024000D03*
X171777000Y-63754000D03*
X171777000Y-62484000D03*
X171777000Y-61214000D03*
X171777000Y-59944000D03*
X171777000Y-58674000D03*
X171777000Y-57404000D03*
X171777000Y-56134000D03*
X162477000Y-56134000D03*
X162477000Y-57404000D03*
X162477000Y-58674000D03*
X162477000Y-59944000D03*
X162477000Y-61214000D03*
X162477000Y-62484000D03*
X162477000Y-63754000D03*
X162477000Y-65024000D03*
X162477000Y-66294000D03*
X162477000Y-67564000D03*
X162477000Y-68834000D03*
X162477000Y-70104000D03*
%TD*%
D13*
%TO.C,R17*%
X172040000Y-87184000D03*
X172040000Y-89184000D03*
%TD*%
D16*
%TO.C,U8*%
X151523000Y-70104000D03*
X151523000Y-68834000D03*
X151523000Y-67564000D03*
X151523000Y-66294000D03*
X151523000Y-65024000D03*
X151523000Y-63754000D03*
X151523000Y-62484000D03*
X151523000Y-61214000D03*
X151523000Y-59944000D03*
X151523000Y-58674000D03*
X151523000Y-57404000D03*
X151523000Y-56134000D03*
X142223000Y-56134000D03*
X142223000Y-57404000D03*
X142223000Y-58674000D03*
X142223000Y-59944000D03*
X142223000Y-61214000D03*
X142223000Y-62484000D03*
X142223000Y-63754000D03*
X142223000Y-65024000D03*
X142223000Y-66294000D03*
X142223000Y-67564000D03*
X142223000Y-68834000D03*
X142223000Y-70104000D03*
%TD*%
D21*
%TO.C,R21*%
X135930000Y-41103500D03*
X135930000Y-39103500D03*
%TD*%
D20*
%TO.C,Q2*%
X140665000Y-127234000D03*
X140665000Y-129134000D03*
X142540000Y-128184000D03*
%TD*%
D21*
%TO.C,R18*%
X156885000Y-62484000D03*
X156885000Y-60484000D03*
%TD*%
D14*
%TO.C,C14*%
X135930000Y-64008000D03*
X135930000Y-66083000D03*
%TD*%
D17*
%TO.C,R10*%
X140513400Y-82630400D03*
X138513400Y-82630400D03*
%TD*%
%TO.C,R16*%
X170508800Y-95605600D03*
X168508800Y-95605600D03*
%TD*%
D21*
%TO.C,R19*%
X135930000Y-61987000D03*
X135930000Y-59987000D03*
%TD*%
D23*
%TO.C,U5*%
X154740000Y-86945200D03*
X155540000Y-86945200D03*
X156340000Y-86945200D03*
X157140000Y-86945200D03*
X157940000Y-86945200D03*
X158740000Y-86945200D03*
X159540000Y-86945200D03*
X160340000Y-86945200D03*
D24*
X161790000Y-85495200D03*
X161790000Y-84695200D03*
X161790000Y-83895200D03*
X161790000Y-83095200D03*
X161790000Y-82295200D03*
X161790000Y-81495200D03*
X161790000Y-80695200D03*
X161790000Y-79895200D03*
D23*
X160340000Y-78445200D03*
X159540000Y-78445200D03*
X158740000Y-78445200D03*
X157940000Y-78445200D03*
X157140000Y-78445200D03*
X156340000Y-78445200D03*
X155540000Y-78445200D03*
X154740000Y-78445200D03*
D24*
X153290000Y-79895200D03*
X153290000Y-80695200D03*
X153290000Y-81495200D03*
X153290000Y-82295200D03*
X153290000Y-83095200D03*
X153290000Y-83895200D03*
X153290000Y-84695200D03*
X153290000Y-85495200D03*
%TD*%
D13*
%TO.C,R12*%
X143040000Y-99684000D03*
X143040000Y-101684000D03*
%TD*%
D25*
%TO.C,C9*%
X174000700Y-83820000D03*
X171925700Y-83820000D03*
%TD*%
D26*
%TO.C,D2*%
X137740000Y-129184000D03*
X135540000Y-129184000D03*
%TD*%
D21*
%TO.C,R20*%
X157113600Y-41103500D03*
X157113600Y-39103500D03*
%TD*%
D14*
%TO.C,C16*%
X135930000Y-43114000D03*
X135930000Y-45189000D03*
%TD*%
D21*
%TO.C,R8*%
X140540000Y-87184000D03*
X140540000Y-85184000D03*
%TD*%
D10*
%TO.C,C7*%
X164002500Y-93184000D03*
X166077500Y-93184000D03*
%TD*%
M02*
